<?xml version="1.0" standalone="no"?>
<!DOCTYPE svg PUBLIC "-//W3C//DTD SVG 1.1//EN" "http://www.w3.org/Graphics/SVG/1.1/DTD/svg11.dtd" >
<svg xmlns="http://www.w3.org/2000/svg" xmlns:xlink="http://www.w3.org/1999/xlink" version="1.1">
<metadata>
Created by FontForge 20170731 at Mon Aug 24 11:54:15 2020
 By Aleksey,,,
Copyright (c) 2019 by Oleh Lishchuk. All rights reserved. |DCNT
</metadata>
<defs>
<font id="MazzardH-SemiBold" horiz-adv-x="1228" >
  <font-face 
    font-family="Mazzard H SemiBold"
    font-weight="600"
    font-stretch="semi-condensed"
    units-per-em="2048"
    panose-1="0 0 0 0 0 0 0 0 0 0"
    ascent="1638"
    descent="-410"
    x-height="1065"
    cap-height="1434"
    bbox="-221 -541 2439 2073"
    underline-thickness="102"
    underline-position="-358"
    unicode-range="U+000D-FB04"
  />
<missing-glyph horiz-adv-x="681" 
 />
    <glyph glyph-name="f_f" unicode="ff" horiz-adv-x="1357" 
d="M182 844h-162v221h162v133q0 148 105 242q110 96 262 96h143v-244h-125q-55 0 -92 -37t-37 -92v-98h391v133q0 148 105 242q110 96 262 96h143v-244h-125q-56 0 -92.5 -37t-36.5 -92v-98h254v-221h-254v-844h-256v844h-391v-844h-256v844z" />
    <glyph glyph-name="fi" unicode="fi" horiz-adv-x="1183" 
d="M438 1163v-98h254v-221h-254v-844h-256v844h-162v221h162v133q0 148 105 242q110 96 262 96h143v-244h-125q-55 0 -92 -37t-37 -92zM1075 0h-256v1065h256v-1065zM948 1159q-71 0 -117.5 47t-46.5 117q0 69 47.5 115.5t116.5 46.5t115.5 -46.5t46.5 -115.5t-46.5 -116.5
t-115.5 -47.5z" />
    <glyph glyph-name="fl" unicode="fl" horiz-adv-x="1183" 
d="M438 1163v-98h254v-221h-254v-844h-256v844h-162v221h162v133q0 148 105 242q110 96 262 96h143v-244h-125q-55 0 -92 -37t-37 -92zM1075 0h-256v1536h256v-1536z" />
    <glyph glyph-name="f_f_i" unicode="ffi" horiz-adv-x="1830" 
d="M182 0v844h-162v221h162v133q0 148 105 242q110 96 262 96h143v-244h-125q-55 0 -92 -37t-37 -92v-98h391v133q0 148 105 242q110 96 262 96h143v-244h-125q-56 0 -92.5 -37t-36.5 -92v-98h637v-1065h-254v844h-383v-844h-256v844h-391v-844h-256zM1479 1206
q-47 47 -47 117.5t47 114.5q47 47 117 47t114 -47q47 -44 47 -114.5t-47 -117.5q-44 -47 -114 -47t-117 47z" />
    <glyph glyph-name="f_f_l" unicode="ffl" horiz-adv-x="1830" 
d="M182 844h-162v221h162v133q0 148 105 242q110 96 262 96h143v-244h-125q-55 0 -92 -37t-37 -92v-98h391v133q0 148 105 242q110 96 262 96h143v-244h-125q-56 0 -92.5 -37t-36.5 -92v-98h254v-221h-254v-844h-256v844h-391v-844h-256v844zM1722 0h-254v1536h254v-1536z
" />
    <glyph glyph-name="afii10104_afii10104" unicode="&#x457;&#x457;" horiz-adv-x="948" 
d="M365 0h-254v1065h254v-1065zM-55 1237q-44 44 -44 108t44 107q43 44 106.5 44t106.5 -44q44 -43 44 -107t-44 -108q-43 -43 -106.5 -43t-106.5 43zM840 0h-256v1065h256v-1065zM477 1497q63 0 106.5 -44t43.5 -107t-43.5 -107.5t-106.5 -44.5q-65 0 -109 44t-44 108
t44 107.5t109 43.5zM897 1497q66 0 110 -44t44 -107q0 -64 -44.5 -108t-109.5 -44q-63 0 -106 44.5t-43 107.5t43 107t106 44z" />
    <glyph glyph-name=".notdef" horiz-adv-x="681" 
 />
    <glyph glyph-name="uni0000" horiz-adv-x="0" 
 />
    <glyph glyph-name="uni0000" horiz-adv-x="0" 
 />
    <glyph glyph-name="uni000D" unicode="&#xd;" horiz-adv-x="512" 
 />
    <glyph glyph-name="space" unicode=" " horiz-adv-x="528" 
 />
    <glyph glyph-name="exclam" unicode="!" horiz-adv-x="512" 
d="M94 131q0 67 46 113.5t114 46.5q69 0 115.5 -46t46.5 -114q0 -69 -46.5 -115.5t-115.5 -46.5q-68 0 -114 46.5t-46 115.5zM367 453h-220l-28 981h274z" />
    <glyph glyph-name="quotedbl" unicode="&#x22;" horiz-adv-x="802" 
d="M322 928h-199l-23 506h242zM682 928h-199l-22 506h241z" />
    <glyph glyph-name="numbersign" unicode="#" horiz-adv-x="1435" 
d="M41 356l-2 209h301l55 303h-268l2 209h301l64 357h213l-64 -357h275l63 357h213l-64 -357h267l-2 -209h-299l-56 -303h267l2 -209h-303l-64 -356h-213l64 356h-275l-63 -356h-213l63 356h-264zM608 868l-55 -303h274l56 303h-275z" />
    <glyph glyph-name="dollar" unicode="$" horiz-adv-x="1251" 
d="M532 -264v239q-171 24 -293 117.5t-161 224.5l274 82q18 -70 97.5 -118t189.5 -48t184 46.5t74 119.5q0 54 -51 101q-21 18 -60 35q-35 17 -114 43q-261 77 -346 122q-207 112 -207 330q0 173 110 289q112 118 293 139v240h189v-242q151 -24 259.5 -109.5t145.5 -203.5
l-274 -80q-18 58 -83 98.5t-149 40.5q-91 0 -154 -44t-63 -107q0 -81 131 -136q48 -20 236 -75q8 -2 27 -7.5t25.5 -7.5t22 -6.5t22 -7t20 -7t22.5 -8.5t21.5 -9.5t25 -12t27.5 -14.5q63 -34 102 -76q40 -42 68 -111.5t28 -148.5q0 -187 -122 -307.5t-328 -143.5v-237h-189z
" />
    <glyph glyph-name="percent" unicode="%" horiz-adv-x="1695" 
d="M360 0l-131 109l1108 1325l133 -111zM59 1102q0 153 105 258q104 104 258 104q157 0 258 -104q104 -104 104 -258q0 -156 -104 -260q-103 -103 -258 -103q-152 0 -258 103q-105 105 -105 260zM324 1200q-41 -41 -41 -98t41 -98t98 -41t98 41t41 98t-41 98t-98 41t-98 -41
zM1274 696q157 0 258 -104q104 -104 104 -260t-104 -260q-103 -103 -258 -103q-152 0 -258 103q-105 105 -105 260t105 260q104 104 258 104zM1135 332q0 -57 41 -98t98 -41t98 41t41 98q0 60 -39.5 100.5t-99.5 40.5t-99.5 -40.5t-39.5 -100.5z" />
    <glyph glyph-name="ampersand" unicode="&#x26;" horiz-adv-x="1447" 
d="M584 -31q-218 0 -361 131t-143 322q0 219 235 377q-102 150 -102 297q0 161 106 264q107 104 273 104q165 0 276 -102t111 -254q0 -115 -66.5 -200.5t-203.5 -170.5l237 -243q49 125 49 262h256q0 -257 -116 -455l295 -301h-367l-100 102q-171 -133 -379 -133zM784 285
l-270 276q-29 29 -35 37q-133 -89 -133 -186q0 -79 69.5 -135t172.5 -56q108 0 196 64zM543 926q99 53 141.5 92.5t42.5 87.5q0 45 -37 75.5t-92 30.5t-90 -32.5t-35 -83.5q0 -69 70 -170z" />
    <glyph glyph-name="quotesingle" unicode="'" horiz-adv-x="442" 
d="M322 928h-199l-23 506h242z" />
    <glyph glyph-name="parenleft" unicode="(" horiz-adv-x="638" 
d="M352 1602l33 36h233l-32 -43q-21 -27 -74 -127q-59 -107 -97.5 -214.5t-68.5 -268.5q-66 -341 -2 -688q38 -182 78 -281q92 -235 164 -331l32 -43h-233l-2 2q-162 185 -244 499q-59 233 -59 498q0 186 31 367q37 190 77 282q43 107 87.5 191.5t76.5 120.5z" />
    <glyph glyph-name="parenright" unicode=")" horiz-adv-x="638" 
d="M53 1597l-33 41h234l33 -39q17 -19 73 -114q52 -88 93 -197q37 -95 73 -280q33 -168 33 -367q0 -174 -28.5 -342t-69.5 -281q-40 -113 -88 -196q-51 -94 -74 -123q-19 -31 -43 -55l-2 -2h-234l33 45q21 27 74 127q48 86 92 204q39 103 74 277q66 349 0 688
q-30 167 -76 281q-86 225 -164 333z" />
    <glyph glyph-name="asterisk" unicode="*" horiz-adv-x="995" 
d="M430 926l-211 -178l-119 204l262 92l-262 93l119 204l211 -180l-51 273h237l-51 -273l211 180l119 -204l-262 -93l262 -92l-119 -204l-211 178l51 -271h-237z" />
    <glyph glyph-name="plus" unicode="+" 
d="M498 598h-377v233h377v377h233v-377h377v-233h-377v-377h-233v377z" />
    <glyph glyph-name="comma" unicode="," horiz-adv-x="475" 
d="M406 74q0 -204 -240 -363l-82 84q117 120 117 176q-56 11 -93.5 56.5t-37.5 105.5q0 66 45 111t114 45q78 0 127.5 -60.5t49.5 -154.5z" />
    <glyph glyph-name="hyphen" unicode="-" horiz-adv-x="819" 
d="M121 416v233h577v-233h-577z" />
    <glyph glyph-name="period" unicode="." horiz-adv-x="458" 
d="M70 131q0 68 45 114t114 46t114.5 -46t45.5 -114q0 -69 -45.5 -115.5t-114.5 -46.5t-114 46.5t-45 115.5z" />
    <glyph glyph-name="slash" unicode="/" horiz-adv-x="1161" 
d="M231 -358h-231l930 1994h231z" />
    <glyph glyph-name="zero" unicode="0" horiz-adv-x="1286" 
d="M88 485v463q0 220 158 369q159 147 397 147q239 0 395 -147q160 -148 160 -369v-463q0 -220 -160 -368q-157 -148 -395 -148q-237 0 -397 148q-158 149 -158 368zM354 952v-471q0 -108 82 -184q83 -74 207 -74t207 74q84 78 84 184v471q0 108 -84 183q-81 75 -207 75
t-207 -75q-82 -73 -82 -183z" />
    <glyph glyph-name="one" unicode="1" horiz-adv-x="933" 
d="M449 1108l-248 -123l-111 234l434 215h191v-1434h-266v1108z" />
    <glyph glyph-name="two" unicode="2" horiz-adv-x="1187" 
d="M811 1016q0 79 -70 137q-66 57 -161 57q-92 0 -165 -56t-110 -153l-246 117q69 160 208.5 253t312.5 93q214 0 358 -129q147 -129 147 -311q0 -110 -73.5 -230t-233.5 -274l-280 -266h600v-254h-1010v199l526 501q197 191 197 316z" />
    <glyph glyph-name="three" unicode="3" horiz-adv-x="1200" 
d="M809 1034q0 74 -70 125t-178 51q-89 0 -155.5 -35.5t-96.5 -93.5l-241 115q63 124 195.5 196t299.5 72q225 0 373 -121q147 -120 147 -301q0 -179 -153 -299q190 -123 190 -333q0 -191 -155 -316t-387 -125q-191 0 -334 88q-142 89 -195 234l256 90q24 -70 96.5 -114
t173.5 -44q116 0 193.5 56.5t77.5 142.5q0 81 -76.5 135.5t-187.5 54.5h-109v240h74q111 0 186.5 51.5t75.5 130.5z" />
    <glyph glyph-name="four" unicode="4" horiz-adv-x="1318" 
d="M813 0v274h-743v254l755 906h252v-906h183v-254h-183v-274h-264zM813 1038l-426 -510h426v510z" />
    <glyph glyph-name="five" unicode="5" horiz-adv-x="1234" 
d="M1155 457q0 -205 -158 -348q-158 -140 -391 -140q-188 0 -331.5 99.5t-204.5 267.5l264 72q36 -86 108.5 -135.5t165.5 -49.5q116 0 193 68q80 68 80 166q0 106 -88 176q-84 69 -215 69h-400l74 732h780v-244h-561l-22 -246h143q241 0 401 -139q162 -137 162 -348z" />
    <glyph glyph-name="six" unicode="6" horiz-adv-x="1236" 
d="M1141 1186l-246 -117q-77 141 -256 141q-123 0 -205 -73q-80 -74 -80 -183v-98q127 68 279 68q226 0 381 -140q153 -138 153 -342q0 -201 -155 -338q-153 -135 -383 -135t-385 137q-154 139 -154 340v504q0 218 158 367q159 147 395 147q164 0 296 -74.5t202 -203.5z
M365 449q0 -97 75.5 -161.5t188.5 -64.5q112 0 188 63.5t76 155.5q0 98 -76 162q-78 66 -188 66q-112 0 -188 -64t-76 -157z" />
    <glyph glyph-name="seven" unicode="7" horiz-adv-x="1089" 
d="M238 0l520 1190h-717v244h999v-256l-514 -1178h-288z" />
    <glyph glyph-name="eight" unicode="8" horiz-adv-x="1236" 
d="M621 -31q-232 0 -388 123q-153 126 -153 309q0 105 55.5 196t153.5 148q-178 120 -178 314q0 171 145 289q143 116 365 116q220 0 362 -118q145 -118 145 -289q0 -192 -178 -312q209 -126 209 -346q0 -182 -155 -307q-153 -123 -383 -123zM354 424q0 -86 76 -143.5
t191 -57.5q112 0 187 57t75 142t-75 142t-187 57q-115 0 -191 -56t-76 -141zM385 1038q0 -74 68 -124t168 -50q99 0 165 50t66 124q0 72 -66.5 122t-164.5 50q-100 0 -168 -50t-68 -122z" />
    <glyph glyph-name="nine" unicode="9" horiz-adv-x="1247" 
d="M80 258l244 117q36 -70 107.5 -111t162.5 -41q128 0 215 72q86 74 86 182v78q-129 -66 -272 -66q-224 0 -379 140q-154 142 -154 350q0 207 154 346t381 139q231 0 381 -141q153 -138 153 -346v-498q0 -218 -162 -364q-166 -146 -403 -146q-171 0 -308.5 77.5
t-205.5 211.5zM885 975q0 100 -75 167.5t-185 67.5t-184 -66t-74 -163q0 -103 73.5 -170.5t184.5 -67.5q110 0 185 67t75 165z" />
    <glyph glyph-name="colon" unicode=":" horiz-adv-x="458" 
d="M70 131q0 68 45 114t114 46t114.5 -46t45.5 -114q0 -69 -45.5 -115.5t-114.5 -46.5t-114 46.5t-45 115.5zM70 936q0 68 45 114t114 46t114.5 -46t45.5 -114q0 -69 -45.5 -115.5t-114.5 -46.5t-114 46.5t-45 115.5z" />
    <glyph glyph-name="semicolon" unicode=";" horiz-adv-x="458" 
d="M70 936q0 68 45 114t114 46t114.5 -46t45.5 -114q0 -69 -45.5 -115.5t-114.5 -46.5t-114 46.5t-45 115.5zM406 74q0 -204 -240 -363l-80 84q117 120 117 176q-57 11 -95 56.5t-38 105.5q0 66 46 111t113 45q78 0 127.5 -60.5t49.5 -154.5z" />
    <glyph glyph-name="less" unicode="&#x3c;" 
d="M1087 154l-987 456v213l987 463v-256l-665 -313l665 -309v-254z" />
    <glyph glyph-name="equal" unicode="=" 
d="M121 838v233h987v-233h-987zM121 362v234h987v-234h-987z" />
    <glyph glyph-name="greater" unicode="&#x3e;" 
d="M1128 823v-213l-987 -456v254l666 309l-666 313v256z" />
    <glyph glyph-name="question" unicode="?" horiz-adv-x="1183" 
d="M827 1012q0 84 -75.5 141t-186.5 57q-93 0 -164 -43.5t-96 -113.5l-264 73q50 153 188 244q140 94 330 94q230 0 379 -131q154 -130 154 -323q0 -90 -39 -170.5t-99 -126.5q-124 -96 -209 -123l-40 -12l-13 -125h-219l-29 270q61 16 134 45q49 20 116 55q55 33 94 85
t39 104zM463 14q-44 44 -44 115t44 115q47 47 117 47t114 -47q47 -44 47 -115t-47 -115q-44 -44 -114 -44t-117 44z" />
    <glyph glyph-name="at" unicode="@" horiz-adv-x="2004" 
d="M1001 1464q189 4 364.5 -67t301 -190t199 -279t69.5 -328q0 -229 -112 -373q-115 -145 -285 -145q-180 0 -274 143q-119 -143 -310 -143q-177 0 -297 129q-118 127 -118 321q0 195 118 322q120 129 297 129q143 0 258 -92v67h205v-563q0 -51 35.5 -87t89.5 -36
q85 0 139 88.5t54 225.5q0 276 -213 477t-521 201q-311 0 -522 -211q-209 -209 -209 -521q0 -310 209 -522q209 -209 518 -209q176 0 308 72l63 -182q-178 -90 -381 -90q-388 0 -653 268q-264 267 -264 663q0 398 266 664q268 268 665 268zM983 287q97 0 163 70.5t66 174.5
t-66 175t-163 71q-98 0 -164.5 -71t-66.5 -175t66.5 -174.5t164.5 -70.5z" />
    <glyph glyph-name="A" unicode="A" horiz-adv-x="1488" 
d="M307 0h-289l615 1434h223l614 -1434h-288l-113 270h-649zM963 522l-218 520l-219 -520h437z" />
    <glyph glyph-name="B" unicode="B" horiz-adv-x="1396" 
d="M854 0h-735v1434h694q190 0 315 -113q127 -112 127 -279q0 -173 -139 -288q201 -121 201 -344q0 -172 -133 -293q-132 -117 -330 -117zM854 610h-461v-356h461q75 0 125.5 51.5t50.5 126.5t-50.5 126.5t-125.5 51.5zM813 1180h-420v-318h420q68 0 113 45.5t45 114.5
q0 68 -45.5 113t-112.5 45z" />
    <glyph glyph-name="C" unicode="C" horiz-adv-x="1566" 
d="M827 1464q225 0 402 -110q180 -109 268 -293l-266 -100q-60 111 -167 175t-237 64q-196 0 -329 -139q-131 -137 -131 -344t131 -344t329 -137q130 0 237 63t167 174l266 -100q-88 -183 -268 -295q-180 -109 -402 -109q-318 0 -534 213q-213 216 -213 535t213 532
q215 215 534 215z" />
    <glyph glyph-name="D" unicode="D" horiz-adv-x="1527" 
d="M700 0h-581v1434h581q320 0 533 -207q215 -206 215 -510t-215 -510q-213 -207 -533 -207zM700 1180h-307v-926h307q197 0 330 133q133 136 133 330q0 197 -133 330t-330 133z" />
    <glyph glyph-name="E" unicode="E" horiz-adv-x="1255" 
d="M119 1434h1057v-254h-783v-328h670v-254h-670v-344h793v-254h-1067v1434z" />
    <glyph glyph-name="F" unicode="F" horiz-adv-x="1234" 
d="M119 1434h1057v-254h-783v-328h670v-254h-670v-598h-274v1434z" />
    <glyph glyph-name="G" unicode="G" horiz-adv-x="1646" 
d="M840 1464q225 0 405 -110q181 -108 273 -293l-267 -100q-62 112 -170 175.5t-241 63.5q-202 0 -338 -139q-135 -138 -135 -344q0 -207 131 -344t321 -137q145 0 266 83q119 82 166 222h-452v250h764q4 -62 4 -72q0 -316 -213 -535q-212 -215 -531 -215q-317 0 -530 213
q-213 216 -213 535q0 321 217 532q218 215 543 215z" />
    <glyph glyph-name="H" unicode="H" horiz-adv-x="1490" 
d="M393 0h-274v1434h274v-582h703v582h276v-1434h-276v598h-703v-598z" />
    <glyph glyph-name="I" unicode="I" horiz-adv-x="512" 
d="M393 0h-274v1434h274v-1434z" />
    <glyph glyph-name="J" unicode="J" horiz-adv-x="1191" 
d="M1092 1434v-910q0 -238 -164 -397q-166 -158 -412 -158q-154 0 -282.5 67t-204.5 185l229 148q37 -68 106.5 -107t155.5 -39q130 0 219 86q88 88 88 215v910h265z" />
    <glyph glyph-name="K" unicode="K" horiz-adv-x="1341" 
d="M119 0v1434h274v-639l541 639h348l-592 -701l633 -733h-348l-582 674v-674h-274z" />
    <glyph glyph-name="L" unicode="L" horiz-adv-x="1165" 
d="M119 1434h274v-1180h723v-254h-997v1434z" />
    <glyph glyph-name="M" unicode="M" horiz-adv-x="1812" 
d="M393 0h-274v1434h274l514 -906l512 906h275v-1434h-275v913l-422 -751h-182l-422 749v-911z" />
    <glyph glyph-name="N" unicode="N" horiz-adv-x="1501" 
d="M383 0h-264v1434h243l756 -963v963h264v-1434h-243l-756 961v-961z" />
    <glyph glyph-name="O" unicode="O" horiz-adv-x="1656" 
d="M827 1464q323 0 535 -215q215 -212 215 -532t-215 -535q-213 -213 -535 -213q-318 0 -534 213q-213 216 -213 535t213 532q215 215 534 215zM367 717q0 -207 131 -344t329 -137q199 0 330 137q133 139 133 344t-133 344t-330 139q-196 0 -329 -139q-131 -137 -131 -344z
" />
    <glyph glyph-name="P" unicode="P" horiz-adv-x="1335" 
d="M393 506v-506h-274v1434h643q209 0 352 -134q143 -131 143 -329q0 -201 -143 -332q-142 -133 -352 -133h-369zM762 1180h-369v-420h369q91 0 150 60t59 151t-59 150t-150 59z" />
    <glyph glyph-name="Q" unicode="Q" horiz-adv-x="1656" 
d="M827 -31q-318 0 -534 213q-213 216 -213 535t213 532q215 215 534 215q323 0 535 -215q215 -212 215 -532q0 -267 -156 -467l166 -166l-186 -186l-176 178q-180 -107 -398 -107zM367 717q0 -207 131 -344t329 -137q108 0 195 40l-215 218l184 184l228 -225q71 118 71 264
q0 205 -133 344t-330 139q-196 0 -329 -139q-131 -137 -131 -344z" />
    <glyph glyph-name="R" unicode="R" horiz-adv-x="1382" 
d="M119 1434h663q210 0 353 -134q143 -131 143 -329q0 -139 -73.5 -250.5t-198.5 -167.5l327 -553h-305l-301 506h-334v-506h-274v1434zM782 1180h-389v-420h389q91 0 150 60t59 151t-59 150t-150 59z" />
    <glyph glyph-name="S" unicode="S" horiz-adv-x="1251" 
d="M1116 1143l-274 -80q-18 58 -83 98.5t-149 40.5q-91 0 -154 -44t-63 -107q0 -81 131 -136q48 -20 236 -75q8 -2 27 -7.5t25.5 -7.5t22 -6.5t22 -7t20 -7t22.5 -8.5t21.5 -9.5t25 -12t27.5 -14.5q63 -34 102 -76q40 -42 68 -111.5t28 -148.5q0 -207 -149 -332
q-147 -123 -383 -123q-215 0 -365 99q-151 102 -196 249l274 82q18 -70 97.5 -118t189.5 -48t184 46.5t74 119.5q0 54 -51 101q-21 18 -60 35q-35 17 -114 43q-261 77 -346 122q-207 112 -207 330q0 193 135 313q139 121 352 121q189 0 328 -92q138 -88 182 -229z" />
    <glyph glyph-name="T" unicode="T" horiz-adv-x="1325" 
d="M524 1180h-475v254h1227v-254h-475v-1180h-277v1180z" />
    <glyph glyph-name="U" unicode="U" horiz-adv-x="1452" 
d="M1077 575v859h275v-859q0 -257 -181 -432q-177 -174 -446 -174q-266 0 -446 174q-179 176 -179 432v859h275v-859q0 -151 100 -251q101 -101 250 -101q151 0 252 101q100 100 100 251z" />
    <glyph glyph-name="V" unicode="V" horiz-adv-x="1468" 
d="M846 0h-223l-605 1434h289l428 -1041l426 1041h289z" />
    <glyph glyph-name="W" unicode="W" horiz-adv-x="2058" 
d="M729 0h-225l-486 1434h283l313 -994l304 994h225l305 -994l311 994h281l-486 -1434h-223l-301 958z" />
    <glyph glyph-name="X" unicode="X" horiz-adv-x="1427" 
d="M551 731l-512 703h330l346 -478l346 478h328l-510 -703l530 -731h-328l-366 506l-367 -506h-330z" />
    <glyph glyph-name="Y" unicode="Y" horiz-adv-x="1406" 
d="M563 586l-545 848h318l362 -590l375 590h316l-551 -840v-594h-275v586z" />
    <glyph glyph-name="Z" unicode="Z" horiz-adv-x="1298" 
d="M1229 254v-254h-1149v211l758 969h-752v254h1137v-211l-760 -969h766z" />
    <glyph glyph-name="bracketleft" unicode="[" horiz-adv-x="624" 
d="M334 -145h270v-213h-504v1996h504v-213h-270v-1570z" />
    <glyph glyph-name="backslash" unicode="\" horiz-adv-x="1161" 
d="M231 1636l930 -1994h-231l-930 1994h231z" />
    <glyph glyph-name="bracketright" unicode="]" horiz-adv-x="624" 
d="M522 -358h-502v213h269v1570h-269v213h502v-1996z" />
    <glyph glyph-name="asciicircum" unicode="^" 
d="M121 797l387 637h213l387 -633h-270l-224 356l-223 -360h-270z" />
    <glyph glyph-name="underscore" unicode="_" horiz-adv-x="528" 
d="M0 -334v232h528v-232h-528z" />
    <glyph glyph-name="grave" unicode="`" horiz-adv-x="694" 
d="M528 1454l-448 191l115 225l417 -260z" />
    <glyph glyph-name="a" unicode="a" horiz-adv-x="1273" 
d="M588 1096q181 0 323 -115v84h254v-1065h-254v84q-142 -115 -323 -115q-220 0 -371 160q-147 163 -147 403q0 243 147 402q149 162 371 162zM823 752q-82 88 -202 88q-123 0 -205 -88t-82 -220q0 -131 82 -219t205 -88q120 0 202 88q84 90 84 219q0 130 -84 220z" />
    <glyph glyph-name="b" unicode="b" horiz-adv-x="1273" 
d="M109 0v1536h256v-555q142 115 321 115q222 0 371 -162q149 -158 149 -402q0 -241 -149 -403q-151 -160 -371 -160q-179 0 -321 115v-84h-256zM856 752q-82 88 -203 88q-120 0 -202 -88t-82 -220q0 -131 82 -219t202 -88q121 0 203 88q84 90 84 219q0 130 -84 220z" />
    <glyph glyph-name="c" unicode="c" horiz-adv-x="1208" 
d="M1159 743l-256 -75q-35 80 -107.5 126t-162.5 46q-128 0 -213 -88q-86 -89 -86 -220q0 -130 86 -219q85 -88 213 -88q90 0 162.5 46t107.5 126l256 -75q-62 -161 -203.5 -257t-322.5 -96q-239 0 -404 160q-159 163 -159 403q0 243 159 402q162 162 404 162
q181 0 322.5 -96t203.5 -257z" />
    <glyph glyph-name="d" unicode="d" horiz-adv-x="1273" 
d="M588 1096q181 0 323 -115v555h254v-1536h-254v84q-142 -115 -323 -115q-220 0 -371 160q-147 163 -147 403q0 243 147 402q149 162 371 162zM823 752q-82 88 -202 88q-123 0 -205 -88t-82 -220q0 -131 82 -219t205 -88q120 0 202 88q84 90 84 219q0 130 -84 220z" />
    <glyph glyph-name="e" unicode="e" horiz-adv-x="1236" 
d="M1180 438h-846q29 -105 114 -169t197 -64q160 0 250 112l248 -71q-74 -129 -206 -203t-292 -74q-244 0 -412 160q-163 163 -163 403q0 243 159 402q162 162 400 162q239 0 397 -162q162 -162 162 -402q0 -39 -8 -94zM336 637h588q-31 100 -113 161.5t-186 61.5
q-100 0 -180 -61.5t-109 -161.5z" />
    <glyph glyph-name="f" unicode="f" horiz-adv-x="710" 
d="M438 1163v-98h254v-221h-254v-844h-256v844h-162v221h162v133q0 148 105 242q110 96 262 96h143v-244h-125q-55 0 -92 -37t-37 -92z" />
    <glyph glyph-name="g" unicode="g" horiz-adv-x="1273" 
d="M588 1096q181 0 323 -115v84h254v-1036q0 -221 -153 -371t-375 -150q-174 0 -320 93q-144 89 -200 227l256 74q30 -61 101 -100.5t155 -39.5q116 0 200 78q82 76 82 189v55q-142 -115 -323 -115q-220 0 -371 160q-147 163 -147 403q0 243 147 402q149 162 371 162z
M823 752q-82 88 -202 88q-123 0 -205 -88t-82 -220q0 -131 82 -219t205 -88q120 0 202 88q84 90 84 219q0 130 -84 220z" />
    <glyph glyph-name="h" unicode="h" horiz-adv-x="1230" 
d="M109 0v1536h256v-600q121 160 329 160q186 0 305 -119q123 -120 123 -297v-680h-254v608q0 104 -72 174t-180 70t-179.5 -69.5t-71.5 -174.5v-608h-256z" />
    <glyph glyph-name="i" unicode="i" horiz-adv-x="473" 
d="M365 0h-256v1065h256v-1065zM236 1159q-69 0 -115.5 47.5t-46.5 116.5t46.5 115.5t115.5 46.5t116 -46.5t47 -115.5q0 -70 -46 -117t-117 -47z" />
    <glyph glyph-name="j" unicode="j" horiz-adv-x="483" 
d="M121 1065h256v-1188q0 -145 -107 -239q-105 -99 -260 -99h-94v244h74q57 0 94 36.5t37 92.5v1153zM248 1159q-69 0 -115.5 47.5t-46.5 116.5t46.5 115.5t115.5 46.5t116.5 -46.5t47.5 -115.5q0 -70 -46.5 -117t-117.5 -47z" />
    <glyph glyph-name="k" unicode="k" horiz-adv-x="1091" 
d="M109 0v1536h256v-928l356 457h309l-399 -514l442 -551h-313l-395 494v-494h-256z" />
    <glyph glyph-name="l" unicode="l" horiz-adv-x="473" 
d="M365 0h-256v1536h256v-1536z" />
    <glyph glyph-name="m" unicode="m" horiz-adv-x="1871" 
d="M365 0h-256v1065h256v-113q111 144 299 144q222 0 335 -174q113 174 340 174q184 0 303 -113q121 -115 121 -283v-700h-254v627q0 96 -63.5 160.5t-157.5 64.5t-158.5 -64.5t-64.5 -160.5v-627h-256v627q0 96 -63.5 160.5t-157.5 64.5t-158.5 -64.5t-64.5 -160.5v-627z
" />
    <glyph glyph-name="n" unicode="n" horiz-adv-x="1212" 
d="M109 0v1065h256v-129q118 160 319 160q180 0 299 -119q121 -121 121 -297v-680h-256v608q0 104 -68.5 174t-171.5 70q-104 0 -173.5 -70t-69.5 -174v-608h-256z" />
    <glyph glyph-name="o" unicode="o" horiz-adv-x="1265" 
d="M229 129q-159 163 -159 403q0 243 159 402q162 162 404 162q241 0 403 -162q162 -158 162 -402q0 -241 -162 -403q-165 -160 -403 -160q-239 0 -404 160zM420 752q-86 -89 -86 -220q0 -130 86 -219q85 -88 213 -88t213 88q86 89 86 219q0 131 -86 220q-85 88 -213 88
t-213 -88z" />
    <glyph glyph-name="p" unicode="p" horiz-adv-x="1273" 
d="M365 -461h-256v1526h256v-84q142 115 321 115q222 0 371 -162q149 -158 149 -402q0 -241 -149 -403q-151 -160 -371 -160q-179 0 -321 115v-545zM856 752q-82 88 -203 88q-120 0 -202 -88t-82 -220q0 -131 82 -219t202 -88q121 0 203 88q84 90 84 219q0 130 -84 220z" />
    <glyph glyph-name="q" unicode="q" horiz-adv-x="1273" 
d="M588 1096q181 0 323 -115v84h254v-1526h-254v545q-142 -115 -323 -115q-220 0 -371 160q-147 163 -147 403q0 243 147 402q149 162 371 162zM823 752q-82 88 -202 88q-123 0 -205 -88t-82 -220q0 -131 82 -219t205 -88q120 0 202 88q84 90 84 219q0 130 -84 220z" />
    <glyph glyph-name="r" unicode="r" horiz-adv-x="745" 
d="M365 1065v-131q110 162 350 162v-285q-54 23 -105 23q-105 0 -175 -71t-70 -177v-586h-256v1065h256z" />
    <glyph glyph-name="s" unicode="s" horiz-adv-x="972" 
d="M897 809l-240 -39q-34 104 -186 104q-65 0 -107 -24.5t-42 -67.5q0 -52 94 -86l219 -73q147 -51 212.5 -127.5t65.5 -192.5q0 -161 -115 -247.5t-306 -86.5q-190 0 -304.5 83t-138.5 231l240 34q14 -58 68.5 -92.5t140.5 -34.5q75 0 123.5 28.5t48.5 76.5q0 62 -119 102
l-219 70q-135 44 -194.5 114t-59.5 183q0 163 111 247.5t300 84.5q172 0 280 -76.5t128 -210.5z" />
    <glyph glyph-name="t" unicode="t" horiz-adv-x="741" 
d="M20 842v223h152v209h256v-209h264v-223h-264v-469q0 -56 37 -92.5t94 -36.5h133v-244h-157q-152 0 -259 96q-104 94 -104 240v506h-152z" />
    <glyph glyph-name="u" unicode="u" horiz-adv-x="1212" 
d="M109 385v680h256v-606q0 -105 68.5 -175.5t172.5 -70.5q103 0 172.5 71t69.5 175v606h256v-1065h-256v129q-118 -160 -320 -160q-182 0 -301 119q-118 118 -118 297z" />
    <glyph glyph-name="v" unicode="v" horiz-adv-x="1157" 
d="M457 0l-439 1065h265l297 -741l294 741h265l-439 -1065h-243z" />
    <glyph glyph-name="w" unicode="w" horiz-adv-x="1595" 
d="M596 0h-229l-349 1065h258l203 -670l203 670h231l203 -670l203 670h256l-346 -1065h-230l-200 641z" />
    <glyph glyph-name="x" unicode="x" horiz-adv-x="1140" 
d="M821 0l-252 344l-250 -344h-301l400 547l-377 518h299l229 -315l232 315h299l-379 -518l399 -547h-299z" />
    <glyph glyph-name="y" unicode="y" horiz-adv-x="1116" 
d="M399 -53l29 73l-410 1045h265l272 -719l279 719h264l-482 -1204q-68 -168 -178 -245t-286 -77h-41v244h41q182 0 247 164z" />
    <glyph glyph-name="z" unicode="z" horiz-adv-x="1019" 
d="M70 0v188l518 643h-508v234h860v-188l-520 -644h530v-233h-880z" />
    <glyph glyph-name="braceleft" unicode="{" horiz-adv-x="698" 
d="M535 1638h143v-213h-121q-54 0 -88.5 -34.5t-34.5 -85.5v-394q0 -108 -54 -177t-149 -93q95 -24 149 -94t54 -178v-394q0 -51 34.5 -85.5t88.5 -34.5h121v-213h-143q-144 0 -240 96q-94 94 -94 237v394q0 50 -42.5 92t-92.5 57l-46 14v216q22 4 62 22q119 54 119 141v394
q0 143 94 237q96 96 240 96z" />
    <glyph glyph-name="bar" unicode="|" horiz-adv-x="411" 
d="M311 -358h-211v1996h211v-1996z" />
    <glyph glyph-name="braceright" unicode="}" horiz-adv-x="698" 
d="M20 1425v213h144q141 0 237 -96q97 -97 97 -237v-394q0 -50 42.5 -92t92.5 -57l45 -14v-216q-22 -4 -64 -22q-116 -55 -116 -141v-394q0 -140 -97 -237q-96 -96 -237 -96h-144v213h123q51 0 86 34.5t35 85.5v394q0 108 54 178t149 94q-95 24 -149 93t-54 177v394
q0 51 -35 85.5t-86 34.5h-123z" />
    <glyph glyph-name="asciitilde" unicode="~" 
d="M776 541q-47 0 -101.5 19t-93.5 42.5t-78 42.5t-59 19q-41 0 -67.5 -32t-26.5 -77h-229q3 145 100 242q99 99 232 96q86 0 192 -62q109 -59 139 -59q41 0 68 31t27 78h229q-3 -145 -100 -242q-98 -98 -232 -98z" />
    <glyph glyph-name="exclamdown" unicode="&#xa1;" horiz-adv-x="512" 
d="M94 936q0 68 46 114t114 46q69 0 115.5 -46t46.5 -114q0 -69 -46.5 -115.5t-115.5 -46.5q-68 0 -114 46.5t-46 115.5zM119 -369l28 981h220l26 -981h-274z" />
    <glyph glyph-name="cent" unicode="&#xa2;" horiz-adv-x="1208" 
d="M539 -59v219q-208 35 -338 186q-131 155 -131 371t131 368q130 154 338 189v219h188v-219q149 -25 263.5 -117t168.5 -229l-256 -76q-35 80 -107.5 126t-162.5 46q-128 0 -213 -88q-86 -89 -86 -219t86 -219q85 -88 213 -88q90 0 162.5 46t107.5 126l256 -76
q-54 -137 -168.5 -229t-263.5 -117v-219h-188z" />
    <glyph glyph-name="sterling" unicode="&#xa3;" horiz-adv-x="1216" 
d="M1133 0h-1072v254h162v348h-141v189h141v219q0 194 135 323q134 131 330 131q163 0 303 -96q138 -94 185 -244l-267 -73q-24 68 -85 113.5t-134 45.5q-85 0 -144 -58t-59 -140v-221h361v-189h-361v-348h646v-254z" />
    <glyph glyph-name="currency" unicode="&#xa4;" horiz-adv-x="1179" 
d="M250 236l-150 147l152 149q-45 83 -45 185t49 190l-156 154l150 147l153 -155q83 45 185 45q103 0 186 -45l156 155l149 -147l-157 -156q47 -83 47 -188q0 -97 -43 -182l151 -152l-147 -147l-150 149q-88 -49 -192 -49t-189 49zM760 717q0 72 -49.5 122t-122.5 50
q-53 4 -95.5 -27.5t-60.5 -78.5t-10.5 -100.5t45.5 -88.5q35 -38 87.5 -46t99 10t78.5 61t28 98z" />
    <glyph glyph-name="yen" unicode="&#xa5;" horiz-adv-x="1406" 
d="M559 592l-541 842h318l362 -588l375 588h316l-551 -840v-2h264v-189h-264v-79h264v-189h-264v-135h-275v135h-264v189h264v79h-264v189h260z" />
    <glyph glyph-name="brokenbar" unicode="&#xa6;" horiz-adv-x="411" 
d="M311 1638v-831h-211v831h211zM100 -358v831h211v-831h-211z" />
    <glyph glyph-name="section" unicode="&#xa7;" horiz-adv-x="962" 
d="M489 -389q-165 0 -286 92q-119 91 -154 242l234 84q19 -92 75.5 -146.5t135.5 -54.5q74 0 124 46.5t50 115.5q0 106 -95 147l-249 115q-111 51 -172.5 140.5t-61.5 199.5q0 142 92 242q-92 100 -92 245q0 168 113 275q113 110 282 110q152 0 265.5 -87t148.5 -228
l-231 -84q-17 82 -67.5 132t-117.5 50q-64 0 -106.5 -46.5t-42.5 -117.5q0 -106 65 -133l263 -114q119 -54 185 -145.5t66 -203.5q0 -134 -98 -241q98 -98 98 -246q0 -171 -120 -279q-119 -110 -304 -110zM557 641l-178 76q-13 -7 -29 -46t-16 -77q0 -106 84 -141l190 -88
q60 51 60 122q0 107 -111 154z" />
    <glyph glyph-name="dieresis" unicode="&#xa8;" horiz-adv-x="903" 
d="M80 1593q0 64 44 108t109 44q66 0 109 -43t43 -109t-43 -108.5t-109 -42.5t-109.5 42.5t-43.5 108.5zM516 1593q0 63 44.5 107.5t107.5 44.5q66 0 109.5 -43t43.5 -109t-43.5 -108.5t-109.5 -42.5q-64 0 -108 43t-44 108z" />
    <glyph glyph-name="copyright" unicode="&#xa9;" horiz-adv-x="1628" 
d="M815 -16q-305 0 -520 215t-215 518t215 518q218 215 520 215q303 0 518 -215t215 -518t-215 -518t-518 -215zM184 717q0 -260 185 -445q187 -184 446 -184q261 0 445 184t184 445q0 260 -184 444q-184 187 -445 187t-446 -185t-185 -446zM825 1118q123 0 222 -58.5
t149 -158.5l-160 -59q-70 119 -211 119q-100 0 -170 -70q-67 -70 -67 -172q0 -105 67.5 -174.5t169.5 -69.5q141 0 211 117l160 -60q-52 -99 -150.5 -158t-220.5 -59q-172 0 -293 115q-116 116 -116 287t116 284q120 117 293 117z" />
    <glyph glyph-name="ordfeminine" unicode="&#xaa;" horiz-adv-x="876" 
d="M383 1444q129 0 225 -90v80h203v-746h-203v80q-96 -90 -225 -90q-145 0 -246 110q-100 109 -100 273q0 163 100 272q102 111 246 111zM426 1249q-74 0 -126 -54t-52 -132q0 -79 52 -135t126 -56q75 0 126.5 55.5t51.5 135.5q0 78 -51.5 132t-126.5 54z" />
    <glyph glyph-name="guillemotleft" unicode="&#xab;" horiz-adv-x="1140" 
d="M459 133l-400 399l400 400l147 -148l-250 -252l250 -251zM913 133l-399 399l399 400l148 -148l-252 -252l252 -251z" />
    <glyph glyph-name="logicalnot" unicode="&#xac;" 
d="M885 315v285h-764v234h987v-519h-223z" />
    <glyph glyph-name="uni00AD" unicode="&#xad;" horiz-adv-x="819" 
d="M121 416v233h577v-233h-577z" />
    <glyph glyph-name="registered" unicode="&#xae;" horiz-adv-x="1628" 
d="M815 -16q-305 0 -520 215t-215 518t215 518q218 215 520 215q303 0 518 -215t215 -518t-215 -518t-518 -215zM815 1348q-261 0 -446 -185t-185 -446q0 -260 185 -445q187 -184 446 -184q261 0 445 184t184 445q0 260 -184 444q-184 187 -445 187zM672 326h-166v782h364
q122 0 201 -76q82 -73 82 -186q0 -75 -38.5 -137t-106.5 -97l170 -286h-185l-149 256h-172v-256zM870 956h-198v-221h198q47 0 79 32t32 79t-32 78.5t-79 31.5z" />
    <glyph glyph-name="overscore" unicode="&#xaf;" horiz-adv-x="796" 
d="M717 1505h-637v207h637v-207z" />
    <glyph glyph-name="degree" unicode="&#xb0;" horiz-adv-x="843" 
d="M59 1204q0 153 105 258t258 105q156 0 258 -105q104 -104 104 -258q0 -156 -104 -260q-102 -102 -258 -102q-153 0 -258 102q-105 105 -105 260zM324 1303q-41 -41 -41 -98.5t41 -98.5t98 -41t98 41t41 98.5t-41 98.5t-98 41t-98 -41z" />
    <glyph glyph-name="plusminus" unicode="&#xb1;" 
d="M498 743h-377v234h377v377h233v-377h377v-234h-377v-313h-233v313zM121 98v234h987v-234h-987z" />
    <glyph glyph-name="twosuperior" unicode="&#xb2;" horiz-adv-x="655" 
d="M434 1296q0 41 -33.5 69t-81.5 28q-99 0 -143 -111l-149 72q42 89 119 140.5t173 51.5q116 0 199 -71q82 -70 82 -172q0 -126 -170 -273l-137 -129h315v-153h-561v116l285 269q102 95 102 163z" />
    <glyph glyph-name="threesuperior" unicode="&#xb3;" horiz-adv-x="665" 
d="M438 1303q0 39 -34.5 64.5t-88.5 25.5q-98 0 -133 -72l-141 49q36 80 112 128t173 48q119 0 199.5 -68.5t80.5 -172.5q0 -96 -98 -148q117 -53 117 -170q0 -107 -86 -178q-84 -72 -211 -72q-105 0 -184.5 51t-110.5 136l149 53q11 -39 49 -62.5t91 -23.5q60 0 98.5 28.5
t38.5 71.5t-38 71t-95 28h-62v120h41q57 0 95 26t38 67z" />
    <glyph glyph-name="acute" unicode="&#xb4;" horiz-adv-x="694" 
d="M166 1454l-86 156l420 260l112 -225z" />
    <glyph glyph-name="mu" unicode="&#xb5;" horiz-adv-x="1212" 
d="M528 -31q-89 0 -168 31v-461h-251v1526h256v-606q0 -105 68.5 -175.5t172.5 -70.5q103 0 172.5 71t69.5 175v606h256v-1065h-256v129q-118 -160 -320 -160z" />
    <glyph glyph-name="paragraph" unicode="&#xb6;" horiz-adv-x="1398" 
d="M483 1434h865v-191h-203v-1601h-211v1601h-242v-1601h-209v968q-175 0 -295 117q-118 118 -118 295q0 178 118 293q119 119 295 119z" />
    <glyph glyph-name="middot" unicode="&#xb7;" horiz-adv-x="458" 
d="M115 602q-44 44 -44 114.5t44 114.5t114.5 44t114.5 -44t44 -114.5t-44 -114.5t-114.5 -44t-114.5 44z" />
    <glyph glyph-name="cedilla" unicode="&#xb8;" horiz-adv-x="636" 
d="M201 -180l43 180h188l-20 -90q6 -1 15.5 -4t34 -15t43.5 -28.5t34.5 -47t15.5 -67.5q0 -91 -74 -149t-190 -58q-50 0 -103.5 13t-81.5 28l-26 12l29 134q51 -39 137 -39q51 0 86 17.5t35 43.5q0 24 -39 42.5t-86 23.5z" />
    <glyph glyph-name="onesuperior" unicode="&#xb9;" horiz-adv-x="495" 
d="M233 1352l-137 -68l-59 135l242 117h114v-788h-160v604z" />
    <glyph glyph-name="ordmasculine" unicode="&#xba;" horiz-adv-x="870" 
d="M436 1444q169 0 283 -111q115 -112 115 -272q0 -161 -115 -273q-113 -110 -283 -110q-171 0 -284 110q-115 112 -115 273q0 160 115 272q114 111 284 111zM248 1061q0 -78 54.5 -133.5t133.5 -55.5q78 0 132.5 55.5t54.5 133.5t-54.5 133t-132.5 55q-80 0 -134 -54.5
t-54 -133.5z" />
    <glyph glyph-name="guillemotright" unicode="&#xbb;" horiz-adv-x="1140" 
d="M682 932l399 -400l-399 -399l-147 148l249 251l-249 252zM227 932l400 -400l-400 -399l-147 148l250 251l-250 252z" />
    <glyph glyph-name="onequarter" unicode="&#xbc;" horiz-adv-x="1650" 
d="M1364 551l-209 -252h209v252zM1364 0v147h-399v154l407 487h152v-489h96v-152h-96v-147h-160zM233 645v604l-137 -67l-59 135l242 117h114v-789h-160zM1391 1434l-1008 -1434h-219l1007 1434h220z" />
    <glyph glyph-name="onehalf" unicode="&#xbd;" horiz-adv-x="1701" 
d="M233 645v604l-137 -67l-59 135l242 117h114v-789h-160zM1391 1434l-1008 -1434h-219l1007 1434h220zM1481 549q0 41 -33.5 68.5t-81.5 27.5q-100 0 -143 -110l-148 71q39 88 117 140.5t174 52.5q115 0 199 -72t84 -172q0 -122 -172 -272l-138 -129h316v-154h-561v117
l284 268q103 95 103 164z" />
    <glyph glyph-name="threequarters" unicode="&#xbe;" horiz-adv-x="1804" 
d="M528 0h-219l1008 1434h219zM1118 147v154l408 487h151v-489h97v-152h-97v-147h-159v147h-400zM328 635q-105 0 -184.5 50.5t-110.5 135.5l149 53q11 -39 49 -62.5t91 -23.5q60 0 98.5 29t38.5 72t-38 70.5t-95 27.5h-62v121h41q58 0 95.5 25.5t37.5 66.5q0 39 -34.5 64.5
t-88.5 25.5q-98 0 -133 -71l-141 49q36 80 112 128t173 48q119 0 199.5 -69t80.5 -173q0 -95 -98 -147q117 -53 117 -170q0 -107 -86 -178q-84 -72 -211 -72zM1518 549l-209 -250h209v250z" />
    <glyph glyph-name="questiondown" unicode="&#xbf;" horiz-adv-x="1165" 
d="M338 51q0 -85 74.5 -140.5t187.5 -55.5q94 0 163.5 42.5t94.5 114.5l266 -73q-51 -154 -190 -244q-140 -94 -330 -94q-228 0 -381 129q-151 130 -151 323q0 75 27 142t66 111.5t89.5 81t89.5 55.5t74 30l41 12l12 127h221l27 -272q-58 -15 -133 -45q-64 -27 -117 -57
q-54 -32 -92.5 -83.5t-38.5 -103.5zM698 1049q47 -44 47 -114.5t-47 -117.5q-44 -44 -114 -44t-117 44q-44 47 -44 117.5t44 114.5q47 47 117 47t114 -47z" />
    <glyph glyph-name="Agrave" unicode="&#xc0;" horiz-adv-x="1488" 
d="M307 0h-289l615 1434h223l614 -1434h-288l-113 270h-649zM963 522l-218 520l-219 -520h437zM838 1554l-449 191l115 225l418 -260z" />
    <glyph glyph-name="Aacute" unicode="&#xc1;" horiz-adv-x="1488" 
d="M307 0h-289l615 1434h223l614 -1434h-288l-113 270h-649zM963 522l-218 520l-219 -520h437zM1087 1745l-446 -191l-86 156l418 260z" />
    <glyph glyph-name="Acircumflex" unicode="&#xc2;" horiz-adv-x="1488" 
d="M307 0h-289l615 1434h223l614 -1434h-288l-113 270h-649zM483 1552l-104 144l358 260h15l356 -260l-102 -142l-263 152zM963 522l-218 520l-219 -520h437z" />
    <glyph glyph-name="Atilde" unicode="&#xc3;" horiz-adv-x="1488" 
d="M420 270l-113 -270h-289l615 1434h223l614 -1434h-288l-113 270h-649zM598 1591h-195q0 101 68 172q69 72 164 72q62 0 121 -41q59 -39 78 -39q23 0 39 20.5t16 49.5h194q0 -103 -66 -173.5t-163 -70.5q-64 0 -123 39q-56 39 -76 39q-24 0 -40.5 -19.5t-16.5 -48.5z
M963 522l-218 520l-219 -520h437z" />
    <glyph glyph-name="Adieresis" unicode="&#xc4;" horiz-adv-x="1488" 
d="M420 270l-113 -270h-289l615 1434h223l614 -1434h-288l-113 270h-649zM963 522l-218 520l-219 -520h437zM811 1694q0 66 43 108.5t109 42.5t108.5 -42.5t42.5 -108.5q0 -64 -43 -108t-108 -44t-108.5 44t-43.5 108zM528 1845q64 0 107 -43t43 -108q0 -63 -43.5 -107.5
t-106.5 -44.5q-66 0 -109.5 43t-43.5 109t43.5 108.5t109.5 42.5z" />
    <glyph glyph-name="Aring" unicode="&#xc5;" horiz-adv-x="1488" 
d="M420 270l-113 -270h-289l615 1434h223l614 -1434h-288l-113 270h-649zM745 2013q97 0 168 -71q72 -72 72 -170t-72 -170q-70 -70 -168 -70q-100 0 -170.5 70t-70.5 170q0 101 69 170q71 71 172 71zM963 522l-218 520l-219 -520h437zM811 1772q4 41 -31 58.5t-70 0
t-32 -58.5q-3 -40 32 -56.5t70 0t31 56.5z" />
    <glyph glyph-name="AE" unicode="&#xc6;" horiz-adv-x="2101" 
d="M498 270l-166 -270h-314l900 1434h1103v-254h-721v-328h607v-254h-607v-344h732v-254h-1008v270h-526zM653 522h371v600z" />
    <glyph glyph-name="Ccedilla" unicode="&#xc7;" horiz-adv-x="1566" 
d="M80 717q0 319 213 532q215 215 534 215q225 0 402 -110q180 -109 268 -293l-266 -100q-60 111 -167 175t-237 64q-196 0 -329 -139q-131 -137 -131 -344t131 -344t329 -137q130 0 237 63t167 174l266 -100q-80 -162 -226.5 -267t-334.5 -131l-14 -65q6 -1 15.5 -4
t33.5 -15t43 -28.5t34 -47t15 -67.5q0 -91 -74 -149t-190 -58q-50 0 -102.5 13t-82.5 28l-24 12l28 134q51 -39 136 -39q54 0 88.5 17.5t34.5 43.5q0 24 -38.5 42.5t-84.5 23.5l-43 4l34 153q-289 27 -479 238q-186 207 -186 506z" />
    <glyph glyph-name="Egrave" unicode="&#xc8;" horiz-adv-x="1255" 
d="M119 1434h1057v-254h-783v-328h670v-254h-670v-344h793v-254h-1067v1434zM823 1710l-84 -156l-448 191l115 225z" />
    <glyph glyph-name="Eacute" unicode="&#xc9;" horiz-adv-x="1255" 
d="M119 1434h1057v-254h-783v-328h670v-254h-670v-344h793v-254h-1067v1434zM543 1554l-86 156l417 260l115 -225z" />
    <glyph glyph-name="Ecircumflex" unicode="&#xca;" horiz-adv-x="1255" 
d="M119 1434h1057v-254h-783v-328h670v-254h-670v-344h793v-254h-1067v1434zM383 1552l-102 144l358 260h12l359 -260l-103 -142l-262 152z" />
    <glyph glyph-name="Edieresis" unicode="&#xcb;" horiz-adv-x="1255" 
d="M119 1434h1057v-254h-783v-328h670v-254h-670v-344h793v-254h-1067v1434zM862 1542q-63 0 -106 44.5t-43 107.5q0 66 42.5 108.5t106.5 42.5q66 0 110 -42.5t44 -108.5t-44 -109t-110 -43zM276 1694q0 66 43 108.5t109 42.5t109 -42.5t43 -108.5q0 -63 -44.5 -107.5
t-107.5 -44.5t-107.5 44.5t-44.5 107.5z" />
    <glyph glyph-name="Igrave" unicode="&#xcc;" horiz-adv-x="512" 
d="M393 0h-274v1434h274v-1434zM348 1554l-446 191l114 225l418 -260z" />
    <glyph glyph-name="Iacute" unicode="&#xcd;" horiz-adv-x="512" 
d="M393 0h-274v1434h274v-1434zM152 1554l-84 156l417 260l115 -225z" />
    <glyph glyph-name="Icircumflex" unicode="&#xce;" horiz-adv-x="512" 
d="M393 0h-274v1434h274v-1434zM256 1706l-262 -154l-103 144l357 260h14l359 -260l-105 -142z" />
    <glyph glyph-name="Idieresis" unicode="&#xcf;" horiz-adv-x="512" 
d="M393 0h-274v1434h274v-1434zM-115 1694q0 66 44 108.5t110 42.5t108.5 -42.5t42.5 -108.5q0 -63 -44 -107.5t-107 -44.5q-65 0 -109.5 44t-44.5 108zM322 1694q0 65 43.5 108t107.5 43q66 0 110 -42.5t44 -108.5t-44 -109t-110 -43q-63 0 -107 44.5t-44 107.5z" />
    <glyph glyph-name="Eth" unicode="&#xd0;" horiz-adv-x="1570" 
d="M20 602v229h142v603h581q320 0 533 -207q215 -206 215 -510t-215 -510q-213 -207 -533 -207h-581v602h-142zM438 1180v-349h389v-229h-389v-348h305q197 0 330 133t133 330t-133 330t-330 133h-305z" />
    <glyph glyph-name="Ntilde" unicode="&#xd1;" horiz-adv-x="1501" 
d="M383 0h-264v1434h243l756 -963v963h264v-1434h-243l-756 961v-961zM604 1591h-194q0 102 67 172q72 72 166 72q62 0 121 -41q56 -39 76 -39q23 0 40 20.5t17 49.5h195q0 -103 -68 -174q-67 -70 -164 -70q-65 0 -121 39t-75 39q-25 0 -42.5 -19.5t-17.5 -48.5z" />
    <glyph glyph-name="Ograve" unicode="&#xd2;" horiz-adv-x="1656" 
d="M827 1464q323 0 535 -215q215 -212 215 -532t-215 -535q-213 -213 -535 -213q-318 0 -534 213q-213 216 -213 535t213 532q215 215 534 215zM367 717q0 -207 131 -344t329 -137q199 0 330 137q133 139 133 344t-133 344t-330 139q-196 0 -329 -139q-131 -137 -131 -344z
M922 1554l-449 191l115 225l418 -260z" />
    <glyph glyph-name="Oacute" unicode="&#xd3;" horiz-adv-x="1656" 
d="M827 1464q323 0 535 -215q215 -212 215 -532t-215 -535q-213 -213 -535 -213q-318 0 -534 213q-213 216 -213 535t213 532q215 215 534 215zM367 717q0 -207 131 -344t329 -137q199 0 330 137q133 139 133 344t-133 344t-330 139q-196 0 -329 -139q-131 -137 -131 -344z
M723 1554l-84 156l418 260l114 -225z" />
    <glyph glyph-name="Ocircumflex" unicode="&#xd4;" horiz-adv-x="1656" 
d="M827 1464q323 0 535 -215q215 -212 215 -532t-215 -535q-213 -213 -535 -213q-318 0 -534 213q-213 216 -213 535t213 532q215 215 534 215zM367 717q0 -207 131 -344t329 -137q199 0 330 137q133 139 133 344t-133 344t-330 139q-196 0 -329 -139q-131 -137 -131 -344z
M827 1706l-262 -154l-102 144l358 260h13l358 -260l-105 -142z" />
    <glyph glyph-name="Otilde" unicode="&#xd5;" horiz-adv-x="1656" 
d="M827 1464q323 0 535 -215q215 -212 215 -532t-215 -535q-213 -213 -535 -213q-318 0 -534 213q-213 216 -213 535t213 532q215 215 534 215zM367 717q0 -207 131 -344t329 -137q199 0 330 137q133 139 133 344t-133 344t-330 139q-196 0 -329 -139q-131 -137 -131 -344z
M682 1591h-195q0 101 68 172q69 72 164 72q62 0 121 -41q59 -39 78 -39q23 0 39 20.5t16 49.5h194q0 -102 -67 -172q-66 -72 -162 -72q-67 0 -123 39t-76 39q-24 0 -40.5 -19.5t-16.5 -48.5z" />
    <glyph glyph-name="Odieresis" unicode="&#xd6;" horiz-adv-x="1656" 
d="M827 1464q323 0 535 -215q215 -212 215 -532t-215 -535q-213 -213 -535 -213q-318 0 -534 213q-213 216 -213 535t213 532q215 215 534 215zM367 717q0 -207 131 -344t329 -137q199 0 330 137q133 139 133 344t-133 344t-330 139q-196 0 -329 -139q-131 -137 -131 -344z
M457 1694q0 66 43.5 108.5t109.5 42.5t109 -42.5t43 -108.5q0 -64 -43.5 -108t-108.5 -44t-109 44t-44 108zM893 1694q0 65 43.5 108t107.5 43q66 0 110 -42.5t44 -108.5t-44 -109t-110 -43q-63 0 -107 44.5t-44 107.5z" />
    <glyph glyph-name="multiply" unicode="&#xd7;" 
d="M449 717l-310 307l166 166l309 -307l312 309l164 -164l-310 -311l310 -307l-164 -166l-312 309l-309 -309l-166 166z" />
    <glyph glyph-name="Oslash" unicode="&#xd8;" horiz-adv-x="1656" 
d="M266 84l53 78q-239 211 -239 555q0 319 213 532q215 215 534 215q180 0 347 -78l55 78l166 -114l-56 -78q238 -218 238 -555q0 -320 -215 -535q-213 -213 -535 -213q-185 0 -342 80l-57 -80zM1178 1040l-537 -768q82 -36 186 -36q199 0 330 137q133 139 133 344
q0 193 -112 323zM481 391l535 770q-85 39 -189 39q-196 0 -329 -139q-131 -137 -131 -344q0 -194 114 -326z" />
    <glyph glyph-name="Ugrave" unicode="&#xd9;" horiz-adv-x="1452" 
d="M1077 575v859h275v-859q0 -257 -181 -432q-177 -174 -446 -174q-266 0 -446 174q-179 176 -179 432v859h275v-859q0 -151 100 -251q101 -101 250 -101q151 0 252 101q100 100 100 251zM819 1554l-448 191l114 225l418 -260z" />
    <glyph glyph-name="Uacute" unicode="&#xda;" horiz-adv-x="1452" 
d="M1077 575v859h275v-859q0 -257 -181 -432q-177 -174 -446 -174q-266 0 -446 174q-179 176 -179 432v859h275v-859q0 -151 100 -251q101 -101 250 -101q151 0 252 101q100 100 100 251zM623 1554l-86 156l417 260l115 -225z" />
    <glyph glyph-name="Ucircumflex" unicode="&#xdb;" horiz-adv-x="1452" 
d="M1077 575v859h275v-859q0 -257 -181 -432q-177 -174 -446 -174q-266 0 -446 174q-179 176 -179 432v859h275v-859q0 -151 100 -251q101 -101 250 -101q151 0 252 101q100 100 100 251zM725 1706l-262 -154l-103 144l359 260h12l359 -260l-103 -142z" />
    <glyph glyph-name="Udieresis" unicode="&#xdc;" horiz-adv-x="1452" 
d="M1077 575v859h275v-859q0 -257 -181 -432q-177 -174 -446 -174q-266 0 -446 174q-179 176 -179 432v859h275v-859q0 -151 100 -251q101 -101 250 -101q151 0 252 101q100 100 100 251zM356 1694q0 66 43 108.5t109 42.5t108.5 -42.5t42.5 -108.5q0 -64 -43 -108t-108 -44
t-108.5 44t-43.5 108zM793 1694q0 66 42.5 108.5t106.5 42.5q66 0 110 -42.5t44 -108.5t-44 -109t-110 -43q-63 0 -106 44.5t-43 107.5z" />
    <glyph glyph-name="Yacute" unicode="&#xdd;" horiz-adv-x="1406" 
d="M563 0v586l-545 848h318l362 -590l375 590h316l-551 -840v-594h-275zM1049 1745l-449 -191l-84 156l418 260z" />
    <glyph glyph-name="Thorn" unicode="&#xde;" horiz-adv-x="1335" 
d="M119 0v1434h274v-252h369q210 0 352 -133q143 -131 143 -332t-143 -332q-142 -133 -352 -133h-369v-252h-274zM762 928h-369v-422h369q91 0 150 60t59 151t-59 151t-150 60z" />
    <glyph glyph-name="germandbls" unicode="&#xdf;" horiz-adv-x="1230" 
d="M559 1311q-84 0 -139 -49.5t-55 -124.5v-1137h-256v1180q0 165 124 274q126 111 318 111q181 0 303 -101q123 -99 123 -245q0 -46 -19.5 -94.5t-37 -74t-52.5 -70.5q-3 -4 -5.5 -7t-4.5 -6q-76 -94 -2 -172q27 -27 95 -79.5t96 -76.5q57 -46 92 -124.5t35 -172.5
q0 -187 -138 -274.5t-436 -87.5v253q172 0 239.5 27.5t67.5 95.5q0 39 -19.5 73t-50.5 60t-68.5 52t-75 56t-68.5 64.5t-50.5 85t-19.5 111.5q-2 60 23.5 119.5t56.5 97.5t56 75.5t22 59.5q0 43 -45.5 72t-108.5 29z" />
    <glyph glyph-name="agrave" unicode="&#xe0;" horiz-adv-x="1273" 
d="M588 -31q-220 0 -371 160q-147 163 -147 403q0 243 147 402q149 162 371 162q181 0 323 -115v84h254v-1065h-254v84q-142 -115 -323 -115zM416 752q-82 -88 -82 -220q0 -131 82 -219t205 -88q120 0 202 88q84 90 84 219q0 130 -84 220q-82 88 -202 88q-123 0 -205 -88z
M817 1362l-86 -156l-446 191l114 225z" />
    <glyph glyph-name="aacute" unicode="&#xe1;" horiz-adv-x="1273" 
d="M588 -31q-220 0 -371 160q-147 163 -147 403q0 243 147 402q149 162 371 162q181 0 323 -115v84h254v-1065h-254v84q-142 -115 -323 -115zM416 752q-82 -88 -82 -220q0 -131 82 -219t205 -88q120 0 202 88q84 90 84 219q0 130 -84 220q-82 88 -202 88q-123 0 -205 -88z
M983 1397l-448 -191l-84 156l417 260z" />
    <glyph glyph-name="acircumflex" unicode="&#xe2;" horiz-adv-x="1273" 
d="M588 -31q-220 0 -371 160q-147 163 -147 403q0 243 147 402q149 162 371 162q181 0 323 -115v84h254v-1065h-254v84q-142 -115 -323 -115zM416 752q-82 -88 -82 -220q0 -131 82 -219t205 -88q120 0 202 88q84 90 84 219q0 130 -84 220q-82 88 -202 88q-123 0 -205 -88z
M377 1204l-103 144l357 260h14l359 -260l-105 -142l-260 152z" />
    <glyph glyph-name="atilde" unicode="&#xe3;" horiz-adv-x="1273" 
d="M588 -31q-220 0 -371 160q-147 163 -147 403q0 243 147 402q149 162 371 162q181 0 323 -115v84h254v-1065h-254v84q-142 -115 -323 -115zM416 752q-82 -88 -82 -220q0 -131 82 -219t205 -88q120 0 202 88q84 90 84 219q0 130 -84 220q-82 88 -202 88q-123 0 -205 -88z
M494 1243h-195q0 101 68 172q69 72 163 72q59 0 121 -41q59 -39 78 -39q23 0 39 20.5t16 49.5h195q0 -101 -68 -172q-66 -72 -161 -72q-67 0 -123 39t-76 39q-24 0 -40.5 -19.5t-16.5 -48.5z" />
    <glyph glyph-name="adieresis" unicode="&#xe4;" horiz-adv-x="1273" 
d="M588 1096q181 0 323 -115v84h254v-1065h-254v84q-142 -115 -323 -115q-220 0 -371 160q-147 163 -147 403q0 243 147 402q149 162 371 162zM823 752q-82 88 -202 88q-123 0 -205 -88t-82 -220q0 -131 82 -219t205 -88q120 0 202 88q84 90 84 219q0 130 -84 220zM705 1346
q0 65 43.5 108t107.5 43q66 0 110 -42.5t44 -108.5t-44 -109t-110 -43q-63 0 -107 44.5t-44 107.5zM268 1346q0 66 44 108.5t110 42.5t108.5 -42.5t42.5 -108.5q0 -64 -43 -108t-108 -44q-66 0 -110 44t-44 108z" />
    <glyph glyph-name="aring" unicode="&#xe5;" horiz-adv-x="1273" 
d="M588 1096q181 0 323 -115v84h254v-1065h-254v84q-142 -115 -323 -115q-220 0 -371 160q-147 163 -147 403q0 243 147 402q149 162 371 162zM416 752q-82 -88 -82 -220q0 -131 82 -219t205 -88q120 0 202 88q84 90 84 219q0 130 -84 220q-82 88 -202 88q-123 0 -205 -88z
M469 1253q-70 70 -70 170t70 170q72 72 170 72t170 -72t72 -170t-72 -170q-69 -69 -170 -69t-170 69zM592 1470q-19 -19 -19 -47t19 -47t47 -19t47 19q20 19 20 47t-20 47q-19 20 -47 20t-47 -20z" />
    <glyph glyph-name="ae" unicode="&#xe6;" horiz-adv-x="2078" 
d="M588 -31q-220 0 -371 160q-147 163 -147 403q0 243 147 402q149 162 371 162q185 0 323 -117v86h254v-88q140 119 334 119q225 0 377 -162q154 -165 154 -402q0 -54 -9 -94h-845q29 -105 114 -169t197 -64q160 0 250 112l248 -71q-68 -128 -194.5 -202.5t-279.5 -74.5
q-196 0 -346 123v-92h-254v86q-138 -117 -323 -117zM416 752q-82 -88 -82 -220q0 -131 82 -219t205 -88q120 0 202 88q84 90 84 219q0 130 -84 220q-82 88 -202 88q-123 0 -205 -88zM1178 637h587q-29 100 -111.5 161.5t-187.5 61.5q-99 0 -178 -61.5t-110 -161.5z" />
    <glyph glyph-name="ccedilla" unicode="&#xe7;" horiz-adv-x="1208" 
d="M514 -180l35 155q-208 27 -346 183q-133 157 -133 374q0 243 159 402q162 162 404 162q181 0 322.5 -96t203.5 -257l-256 -75q-35 80 -107.5 126t-162.5 46q-128 0 -213 -88q-86 -89 -86 -220q0 -130 86 -219q85 -88 213 -88q90 0 162.5 46t107.5 126l256 -75
q-54 -136 -163.5 -226t-254.5 -116l-16 -70q6 -1 15.5 -4t34 -15t43.5 -28.5t34.5 -47t15.5 -67.5q0 -91 -74.5 -149t-191.5 -58q-50 0 -102 13t-82 28l-25 12l29 134q51 -39 135 -39q54 0 88.5 17.5t34.5 43.5q0 24 -38.5 42.5t-84.5 23.5z" />
    <glyph glyph-name="egrave" unicode="&#xe8;" horiz-adv-x="1236" 
d="M1180 438h-846q29 -105 114 -169t197 -64q160 0 250 112l248 -71q-74 -129 -206 -203t-292 -74q-244 0 -412 160q-163 163 -163 403q0 243 159 402q162 162 400 162q239 0 397 -162q162 -162 162 -402q0 -39 -8 -94zM336 637h588q-31 100 -113 161.5t-186 61.5
q-100 0 -180 -61.5t-109 -161.5zM723 1206l-449 191l115 225l418 -260z" />
    <glyph glyph-name="eacute" unicode="&#xe9;" horiz-adv-x="1236" 
d="M1180 438h-846q29 -105 114 -169t197 -64q160 0 250 112l248 -71q-74 -129 -206 -203t-292 -74q-244 0 -412 160q-163 163 -163 403q0 243 159 402q162 162 400 162q239 0 397 -162q162 -162 162 -402q0 -39 -8 -94zM336 637h588q-31 100 -113 161.5t-186 61.5
q-100 0 -180 -61.5t-109 -161.5zM524 1206l-84 156l418 260l115 -225z" />
    <glyph glyph-name="ecircumflex" unicode="&#xea;" horiz-adv-x="1236" 
d="M1180 438h-846q29 -105 114 -169t197 -64q160 0 250 112l248 -71q-74 -129 -206 -203t-292 -74q-244 0 -412 160q-163 163 -163 403q0 243 159 402q162 162 400 162q239 0 397 -162q162 -162 162 -402q0 -39 -8 -94zM336 637h588q-31 100 -113 161.5t-186 61.5
q-100 0 -180 -61.5t-109 -161.5zM629 1358l-262 -154l-103 144l359 260h12l358 -260l-104 -142z" />
    <glyph glyph-name="edieresis" unicode="&#xeb;" horiz-adv-x="1236" 
d="M1180 438h-846q29 -105 114 -169t197 -64q160 0 250 112l248 -71q-74 -129 -206 -203t-292 -74q-244 0 -412 160q-163 163 -163 403q0 243 159 402q162 162 400 162q239 0 397 -162q162 -162 162 -402q0 -39 -8 -94zM336 637h588q-31 100 -113 161.5t-186 61.5
q-100 0 -180 -61.5t-109 -161.5zM258 1346q0 66 44 108.5t110 42.5t108.5 -42.5t42.5 -108.5q0 -63 -44 -107.5t-107 -44.5q-66 0 -110 44t-44 108zM694 1346q0 65 44 108t108 43q66 0 109.5 -42.5t43.5 -108.5t-43.5 -109t-109.5 -43q-63 0 -107.5 44.5t-44.5 107.5z" />
    <glyph glyph-name="igrave" unicode="&#xec;" horiz-adv-x="473" 
d="M365 0h-256v1065h256v-1065zM-86 1397l113 225l419 -260l-84 -154z" />
    <glyph glyph-name="iacute" unicode="&#xed;" horiz-adv-x="473" 
d="M365 0h-256v1065h256v-1065zM14 1362l418 260l115 -225l-449 -189z" />
    <glyph glyph-name="icircumflex" unicode="&#xee;" horiz-adv-x="473" 
d="M365 0h-256v1065h256v-1065zM-20 1206l-105 142l354 260h15l354 -260l-106 -140l-254 150z" />
    <glyph glyph-name="idieresis" unicode="&#xef;" horiz-adv-x="475" 
d="M365 0h-254v1065h254v-1065zM-55 1237q-44 44 -44 108t44 107q43 44 106.5 44t106.5 -44q44 -43 44 -107t-44 -108q-43 -43 -106.5 -43t-106.5 43zM315 1237q-43 44 -43 108t43 107q44 44 108 44t107 -44q44 -43 44 -107t-44 -108q-43 -43 -107 -43t-108 43z" />
    <glyph glyph-name="eth" unicode="&#xf0;" horiz-adv-x="1265" 
d="M633 1096q113 0 219 -41q-77 154 -240 215l-100 -154l-156 98l62 97q-74 6 -158 6v250q175 0 307 -27l97 148l153 -99l-67 -104q228 -98 337.5 -326t110.5 -622q0 -244 -162 -406q-158 -162 -403 -162q-239 0 -404 160q-159 163 -159 403q0 243 159 402q162 162 404 162z
M420 752q-86 -89 -86 -220q0 -130 86 -219q85 -88 213 -88t213 88q86 89 86 219q0 131 -86 220q-85 88 -213 88t-213 -88z" />
    <glyph glyph-name="ntilde" unicode="&#xf1;" horiz-adv-x="1212" 
d="M109 0v1065h256v-129q118 160 319 160q180 0 299 -119q121 -121 121 -297v-680h-256v608q0 104 -68.5 174t-171.5 70q-104 0 -173.5 -70t-69.5 -174v-608h-256zM471 1243h-195q0 101 68 172q69 72 164 72q62 0 121 -41q59 -39 78 -39q23 0 39 20.5t16 49.5h194
q0 -103 -66 -173.5t-163 -70.5q-67 0 -123 39t-76 39q-24 0 -40.5 -19.5t-16.5 -48.5z" />
    <glyph glyph-name="ograve" unicode="&#xf2;" horiz-adv-x="1265" 
d="M229 129q-159 163 -159 403q0 243 159 402q162 162 404 162q241 0 403 -162q162 -158 162 -402q0 -241 -162 -403q-165 -160 -403 -160q-239 0 -404 160zM420 752q-86 -89 -86 -220q0 -130 86 -219q85 -88 213 -88t213 88q86 89 86 219q0 131 -86 220q-85 88 -213 88
t-213 -88zM725 1206l-446 191l114 225l418 -260z" />
    <glyph glyph-name="oacute" unicode="&#xf3;" horiz-adv-x="1265" 
d="M229 129q-159 163 -159 403q0 243 159 402q162 162 404 162q241 0 403 -162q162 -158 162 -402q0 -241 -162 -403q-165 -160 -403 -160q-239 0 -404 160zM420 752q-86 -89 -86 -220q0 -130 86 -219q85 -88 213 -88t213 88q86 89 86 219q0 131 -86 220q-85 88 -213 88
t-213 -88zM528 1206l-84 156l418 260l115 -225z" />
    <glyph glyph-name="ocircumflex" unicode="&#xf4;" horiz-adv-x="1265" 
d="M229 129q-159 163 -159 403q0 243 159 402q162 162 404 162q241 0 403 -162q162 -158 162 -402q0 -241 -162 -403q-165 -160 -403 -160q-239 0 -404 160zM420 752q-86 -89 -86 -220q0 -130 86 -219q85 -88 213 -88t213 88q86 89 86 219q0 131 -86 220q-85 88 -213 88
t-213 -88zM633 1358l-262 -154l-103 144l357 260h14l358 -260l-104 -142z" />
    <glyph glyph-name="otilde" unicode="&#xf5;" horiz-adv-x="1265" 
d="M229 129q-159 163 -159 403q0 243 159 402q162 162 404 162q241 0 403 -162q162 -158 162 -402q0 -241 -162 -403q-165 -160 -403 -160q-239 0 -404 160zM420 752q-86 -89 -86 -220q0 -130 86 -219q85 -88 213 -88t213 88q86 89 86 219q0 131 -86 220q-85 88 -213 88
t-213 -88zM485 1243h-194q0 102 67 172q72 72 166 72q62 0 121 -41q56 -39 78 -39q23 0 39 20.5t16 49.5h195q0 -103 -68 -174q-67 -70 -164 -70q-64 0 -120 39t-76 39q-25 0 -42.5 -19.5t-17.5 -48.5z" />
    <glyph glyph-name="odieresis" unicode="&#xf6;" horiz-adv-x="1265" 
d="M229 129q-159 163 -159 403q0 243 159 402q162 162 404 162q241 0 403 -162q162 -158 162 -402q0 -241 -162 -403q-165 -160 -403 -160q-239 0 -404 160zM420 752q-86 -89 -86 -220q0 -130 86 -219q85 -88 213 -88t213 88q86 89 86 219q0 131 -86 220q-85 88 -213 88
t-213 -88zM262 1346q0 66 44 108.5t110 42.5t108.5 -42.5t42.5 -108.5q0 -63 -44 -107.5t-107 -44.5q-66 0 -110 44t-44 108zM698 1346q0 65 44 108t108 43q66 0 110 -42.5t44 -108.5t-44 -109t-110 -43q-63 0 -107.5 44.5t-44.5 107.5z" />
    <glyph glyph-name="divide" unicode="&#xf7;" 
d="M121 600v234h987v-234h-987zM498 184q-44 47 -44 117.5t44 114.5q47 47 117 47t114 -47q47 -44 47 -114.5t-47 -117.5q-44 -44 -114 -44t-117 44zM498 1016q-44 47 -44 117t44 114q47 47 117 47t114 -47q47 -44 47 -114t-47 -117q-44 -44 -114 -44t-117 44z" />
    <glyph glyph-name="oslash" unicode="&#xf8;" horiz-adv-x="1265" 
d="M633 1096q130 0 237 -49l35 49l160 -115l-31 -45q164 -159 164 -404q0 -241 -162 -403q-165 -160 -403 -160q-138 0 -240 51l-33 -51l-161 115l32 47q-161 154 -161 401q0 243 159 402q162 162 404 162zM877 713l-332 -477q57 -11 88 -11q128 0 213 88q86 89 86 219
q0 99 -55 181zM387 354l332 475q-42 11 -86 11q-128 0 -213 -88q-86 -89 -86 -220q0 -98 53 -178z" />
    <glyph glyph-name="ugrave" unicode="&#xf9;" horiz-adv-x="1212" 
d="M528 -31q-182 0 -301 119q-118 118 -118 297v680h256v-606q0 -105 68.5 -175.5t172.5 -70.5q103 0 172.5 71t69.5 175v606h256v-1065h-256v129q-118 -160 -320 -160zM784 1362l-84 -156l-448 191l115 225z" />
    <glyph glyph-name="uacute" unicode="&#xfa;" horiz-adv-x="1212" 
d="M109 385v680h256v-606q0 -105 68.5 -175.5t172.5 -70.5q103 0 172.5 71t69.5 175v606h256v-1065h-256v129q-118 -160 -320 -160q-182 0 -301 119q-118 118 -118 297zM950 1397l-446 -191l-86 156l418 260z" />
    <glyph glyph-name="ucircumflex" unicode="&#xfb;" horiz-adv-x="1212" 
d="M109 385v680h256v-606q0 -105 68.5 -175.5t172.5 -70.5q103 0 172.5 71t69.5 175v606h256v-1065h-256v129q-118 -160 -320 -160q-182 0 -301 119q-118 118 -118 297zM606 1358l-262 -154l-102 144l358 260h14l357 -260l-103 -142z" />
    <glyph glyph-name="udieresis" unicode="&#xfc;" horiz-adv-x="1212" 
d="M109 385v680h256v-606q0 -105 68.5 -175.5t172.5 -70.5q103 0 172.5 71t69.5 175v606h256v-1065h-256v129q-118 -160 -320 -160q-182 0 -301 119q-118 118 -118 297zM674 1346q0 66 42.5 108.5t108.5 42.5t109 -42.5t43 -108.5q0 -63 -44.5 -107.5t-107.5 -44.5
t-107 44.5t-44 107.5zM238 1346q0 66 42.5 108.5t108.5 42.5t109 -42.5t43 -108.5q0 -64 -43.5 -108t-108.5 -44t-108 44t-43 108z" />
    <glyph glyph-name="yacute" unicode="&#xfd;" horiz-adv-x="1116" 
d="M428 20l-410 1045h265l272 -719l279 719h264l-482 -1204q-68 -168 -178 -245t-286 -77h-41v244h41q182 0 247 164zM455 1206l-86 156l419 260l113 -225z" />
    <glyph glyph-name="thorn" unicode="&#xfe;" horiz-adv-x="1273" 
d="M365 -461h-256v1997h256v-555q142 115 321 115q222 0 371 -162q149 -158 149 -402q0 -241 -149 -403q-151 -160 -371 -160q-179 0 -321 115v-545zM856 752q-82 88 -203 88q-120 0 -202 -88t-82 -220q0 -131 82 -219t202 -88q121 0 203 88q84 90 84 219q0 130 -84 220z
" />
    <glyph glyph-name="ydieresis" unicode="&#xff;" horiz-adv-x="1116" 
d="M428 20l-410 1045h265l272 -719l279 719h264l-482 -1204q-68 -168 -178 -245t-286 -77h-41v244h41q182 0 247 164zM625 1346q0 66 42.5 108.5t108.5 42.5t110 -42.5t44 -108.5q0 -64 -44 -108t-110 -44q-63 0 -107 44.5t-44 107.5zM342 1194q-66 0 -110 43t-44 109
t44 108.5t110 42.5q64 0 108 -43t44 -108q0 -63 -44.5 -107.5t-107.5 -44.5z" />
    <glyph glyph-name="Amacron" unicode="&#x100;" horiz-adv-x="1488" 
d="M307 0h-289l615 1434h223l614 -1434h-288l-113 270h-649zM426 1606v209h637v-209h-637zM963 522l-218 520l-219 -520h437z" />
    <glyph glyph-name="amacron" unicode="&#x101;" horiz-adv-x="1273" 
d="M588 1096q181 0 323 -115v84h254v-1065h-254v84q-142 -115 -323 -115q-220 0 -371 160q-147 163 -147 403q0 243 147 402q149 162 371 162zM416 752q-82 -88 -82 -220q0 -131 82 -219t205 -88q120 0 202 88q84 90 84 219q0 130 -84 220q-82 88 -202 88q-123 0 -205 -88z
M956 1466v-209h-634v209h634z" />
    <glyph glyph-name="Abreve" unicode="&#x102;" horiz-adv-x="1488" 
d="M420 270l-113 -270h-289l615 1434h223l614 -1434h-288l-113 270h-649zM412 1864h196q0 -64 39 -108t98 -44q60 0 97 43t37 109h198q0 -140 -96 -236q-94 -94 -238 -94q-143 0 -237 94t-94 236zM963 522l-218 520l-219 -520h437z" />
    <glyph glyph-name="abreve" unicode="&#x103;" horiz-adv-x="1273" 
d="M588 -31q-220 0 -371 160q-147 163 -147 403q0 243 147 402q149 162 371 162q181 0 323 -115v84h254v-1065h-254v84q-142 -115 -323 -115zM823 752q-82 88 -202 88q-123 0 -205 -88t-82 -220q0 -131 82 -219t205 -88q120 0 202 88q84 90 84 219q0 130 -84 220zM305 1516
h199q0 -66 38.5 -109t98.5 -43q57 0 95 43t38 109h199q0 -140 -96 -236q-94 -94 -238 -94q-146 0 -240 94t-94 236z" />
    <glyph glyph-name="Aogonek" unicode="&#x104;" horiz-adv-x="1488" 
d="M307 0h-289l615 1434h223l614 -1434h-36l-35 -31q-27 -27 -56 -71q-32 -49 -32 -95q0 -32 20 -50.5t51 -18.5q23 0 49 12t39 25l13 12l86 -105l-33 -30q-25 -22 -84 -49q-64 -31 -125 -31q-92 0 -151.5 53t-59.5 135q0 53 30 115t66 96l31 33h-61l-113 270h-649zM963 522
l-218 520l-219 -520h437z" />
    <glyph glyph-name="aogonek" unicode="&#x105;" horiz-adv-x="1273" 
d="M588 -31q-220 0 -371 160q-147 163 -147 403q0 243 147 402q149 162 371 162q181 0 323 -115v84h254v-1065h-30q-105 -86 -121 -178q-2 -4 -2 -19q0 -32 20 -50.5t51 -18.5q23 0 49 12t39 25l13 12l86 -105l-33 -30q-25 -22 -84 -49q-64 -31 -125 -31q-92 0 -151.5 53
t-59.5 135q0 53 30 114t66 97l31 33h-33v84q-142 -115 -323 -115zM416 752q-82 -88 -82 -220q0 -131 82 -219t205 -88q120 0 202 88q84 90 84 219q0 130 -84 220q-82 88 -202 88q-123 0 -205 -88z" />
    <glyph glyph-name="Cacute" unicode="&#x106;" horiz-adv-x="1566" 
d="M827 1464q225 0 402 -110q180 -109 268 -293l-266 -100q-60 111 -167 175t-237 64q-196 0 -329 -139q-131 -137 -131 -344t131 -344t329 -137q130 0 237 63t167 174l266 -100q-88 -183 -268 -295q-180 -109 -402 -109q-318 0 -534 213q-213 216 -213 535t213 532
q215 215 534 215zM719 1554l-86 156l418 260l114 -225z" />
    <glyph glyph-name="cacute" unicode="&#x107;" horiz-adv-x="1208" 
d="M1159 743l-256 -75q-35 80 -107.5 126t-162.5 46q-128 0 -213 -88q-86 -89 -86 -220q0 -130 86 -219q85 -88 213 -88q90 0 162.5 46t107.5 126l256 -75q-62 -161 -203.5 -257t-322.5 -96q-239 0 -404 160q-159 163 -159 403q0 243 159 402q162 162 404 162
q181 0 322.5 -96t203.5 -257zM524 1206l-84 156l418 260l115 -225z" />
    <glyph glyph-name="Ccircumflex" unicode="&#x108;" horiz-adv-x="1566" 
d="M827 1464q225 0 402 -110q180 -109 268 -293l-266 -100q-60 111 -167 175t-237 64q-196 0 -329 -139q-131 -137 -131 -344t131 -344t329 -137q130 0 237 63t167 174l266 -100q-88 -183 -268 -295q-180 -109 -402 -109q-318 0 -534 213q-213 216 -213 535t213 532
q215 215 534 215zM821 1706l-260 -154l-104 144l358 260h14l357 -260l-103 -142z" />
    <glyph glyph-name="ccircumflex" unicode="&#x109;" horiz-adv-x="1208" 
d="M1159 743l-256 -75q-35 80 -107.5 126t-162.5 46q-128 0 -213 -88q-86 -89 -86 -220q0 -130 86 -219q85 -88 213 -88q90 0 162.5 46t107.5 126l256 -75q-62 -161 -203.5 -257t-322.5 -96q-239 0 -404 160q-159 163 -159 403q0 243 159 402q162 162 404 162
q181 0 322.5 -96t203.5 -257zM629 1358l-262 -154l-105 144l359 260h14l358 -260l-104 -142z" />
    <glyph glyph-name="Cdotaccent" unicode="&#x10a;" horiz-adv-x="1566" 
d="M827 1464q225 0 402 -110q180 -109 268 -293l-266 -100q-60 111 -167 175t-237 64q-196 0 -329 -139q-131 -137 -131 -344t131 -344t329 -137q130 0 237 63t167 174l266 -100q-88 -183 -268 -295q-180 -109 -402 -109q-318 0 -534 213q-213 216 -213 535t213 532
q215 215 534 215zM662 1704q0 69 45.5 115.5t113.5 46.5q69 0 115.5 -46.5t46.5 -115.5q0 -68 -46.5 -114t-115.5 -46q-67 0 -113 46t-46 114z" />
    <glyph glyph-name="cdotaccent" unicode="&#x10b;" horiz-adv-x="1208" 
d="M1159 743l-256 -75q-35 80 -107.5 126t-162.5 46q-128 0 -213 -88q-86 -89 -86 -220q0 -130 86 -219q85 -88 213 -88q90 0 162.5 46t107.5 126l256 -75q-62 -161 -203.5 -257t-322.5 -96q-239 0 -404 160q-159 163 -159 403q0 243 159 402q162 162 404 162
q181 0 322.5 -96t203.5 -257zM469 1356q0 69 45.5 115.5t114.5 46.5t114 -46.5t45 -115.5q0 -68 -45 -114t-114 -46t-114.5 46t-45.5 114z" />
    <glyph glyph-name="Ccaron" unicode="&#x10c;" horiz-adv-x="1566" 
d="M827 1464q225 0 402 -110q180 -109 268 -293l-266 -100q-60 111 -167 175t-237 64q-196 0 -329 -139q-131 -137 -131 -344t131 -344t329 -137q130 0 237 63t167 174l266 -100q-88 -183 -268 -295q-180 -109 -402 -109q-318 0 -534 213q-213 216 -213 535t213 532
q215 215 534 215zM821 1804l262 152l103 -141l-357 -261h-14l-358 261l104 143z" />
    <glyph glyph-name="ccaron" unicode="&#x10d;" horiz-adv-x="1208" 
d="M1159 743l-256 -75q-35 80 -107.5 126t-162.5 46q-128 0 -213 -88q-86 -89 -86 -220q0 -130 86 -219q85 -88 213 -88q90 0 162.5 46t107.5 126l256 -75q-62 -161 -203.5 -257t-322.5 -96q-239 0 -404 160q-159 163 -159 403q0 243 159 402q162 162 404 162
q181 0 322.5 -96t203.5 -257zM629 1456l260 152l104 -142l-358 -260h-14l-359 260l105 144z" />
    <glyph glyph-name="Dcaron" unicode="&#x10e;" horiz-adv-x="1527" 
d="M700 0h-581v1434h581q320 0 533 -207q215 -206 215 -510t-215 -510q-213 -207 -533 -207zM700 1180h-307v-926h307q197 0 330 133q133 136 133 330t-133 327q-133 136 -330 136zM528 1554l-358 261l102 143l263 -154l262 152l102 -141l-356 -261h-15z" />
    <glyph glyph-name="dcaron" unicode="&#x10f;" horiz-adv-x="1560" 
d="M588 1096q185 0 323 -117v557h254v-1536h-254v86q-138 -117 -323 -117q-220 0 -371 160q-147 163 -147 403q0 243 147 402q149 162 371 162zM1266 1440q0 54 37.5 90.5t93.5 36.5q63 0 103 -47t40 -119q0 -157 -194 -268l-3 -3l-65 66q96 75 96 113q-47 7 -77.5 44
t-30.5 87zM623 840q-123 0 -205 -88q-84 -90 -84 -220q0 -129 84 -219q82 -88 205 -88q122 0 204 88q84 90 84 219q0 130 -84 220q-82 88 -204 88z" />
    <glyph glyph-name="Dcroat" unicode="&#x110;" horiz-adv-x="1570" 
d="M20 602v229h142v603h581q320 0 533 -207q215 -206 215 -510t-215 -510q-213 -207 -533 -207h-581v602h-142zM438 1180v-349h389v-229h-389v-348h305q197 0 330 133t133 330t-133 330t-330 133h-305z" />
    <glyph glyph-name="dslash" unicode="&#x111;" horiz-adv-x="1275" 
d="M588 1096q181 0 323 -115v205h-344v188h344v162h254v-162h101v-188h-101v-1186h-254v84q-142 -115 -323 -115q-220 0 -371 160q-147 163 -147 403q0 243 147 402q149 162 371 162zM823 752q-82 88 -202 88q-123 0 -205 -88t-82 -220q0 -131 82 -219t205 -88q120 0 202 88
q84 90 84 219q0 130 -84 220z" />
    <glyph glyph-name="Emacron" unicode="&#x112;" horiz-adv-x="1255" 
d="M119 1434h1057v-254h-783v-328h670v-254h-670v-344h793v-254h-1067v1434zM328 1606v209h637v-209h-637z" />
    <glyph glyph-name="emacron" unicode="&#x113;" horiz-adv-x="1236" 
d="M1180 438h-846q29 -105 114 -169t197 -64q160 0 250 112l248 -71q-74 -129 -206 -203t-292 -74q-244 0 -412 160q-163 163 -163 403q0 243 159 402q162 162 400 162q239 0 397 -162q162 -162 162 -402q0 -39 -8 -94zM336 637h588q-31 100 -113 161.5t-186 61.5
q-100 0 -180 -61.5t-109 -161.5zM946 1257h-635v209h635v-209z" />
    <glyph glyph-name="Ebreve" unicode="&#x114;" horiz-adv-x="1255" 
d="M1186 0h-1067v1434h1057v-254h-783v-328h670v-254h-670v-344h793v-254zM645 1534q-143 0 -237 94q-95 95 -95 236h197q0 -64 39 -108t98 -44t96 42.5t37 109.5h199q0 -140 -96 -236q-94 -94 -238 -94z" />
    <glyph glyph-name="ebreve" unicode="&#x115;" horiz-adv-x="1236" 
d="M1180 438h-846q29 -105 114 -169t197 -64q160 0 250 112l248 -71q-74 -129 -206 -203t-292 -74q-244 0 -412 160q-163 163 -163 403q0 243 159 402q162 162 400 162q239 0 397 -162q162 -162 162 -402q0 -39 -8 -94zM336 637h588q-31 100 -113 161.5t-186 61.5
q-100 0 -180 -61.5t-109 -161.5zM295 1516h199q0 -64 39 -108t98 -44t96 42.5t37 109.5h199q0 -139 -97 -236q-94 -94 -237 -94q-146 0 -240 94t-94 236z" />
    <glyph glyph-name="Edotaccent" unicode="&#x116;" horiz-adv-x="1255" 
d="M119 1434h1057v-254h-783v-328h670v-254h-670v-344h793v-254h-1067v1434zM485 1704q0 69 46 115.5t114 46.5q69 0 115.5 -46.5t46.5 -115.5q0 -68 -46.5 -114t-115.5 -46q-67 0 -113.5 46t-46.5 114z" />
    <glyph glyph-name="edotaccent" unicode="&#x117;" horiz-adv-x="1236" 
d="M1180 438h-846q29 -105 114 -169t197 -64q160 0 250 112l248 -71q-74 -129 -206 -203t-292 -74q-244 0 -412 160q-163 163 -163 403q0 243 159 402q162 162 400 162q239 0 397 -162q162 -162 162 -402q0 -39 -8 -94zM336 637h588q-31 100 -113 161.5t-186 61.5
q-100 0 -180 -61.5t-109 -161.5zM469 1356q0 69 46 115.5t114 46.5q69 0 115.5 -46.5t46.5 -115.5q0 -68 -46.5 -114t-115.5 -46q-67 0 -113.5 46t-46.5 114z" />
    <glyph glyph-name="Eogonek" unicode="&#x118;" horiz-adv-x="1255" 
d="M942 0h-823v1434h1057v-254h-783v-328h670v-254h-670v-344h793v-254h-53l-35 -31q-27 -27 -56 -71q-32 -49 -32 -95q0 -32 20 -50.5t51 -18.5q23 0 49 12t39 25l13 12l86 -105l-33 -30q-25 -22 -84 -49q-64 -31 -125 -31q-92 0 -151.5 53t-59.5 135q0 53 29.5 113.5
t64.5 97.5z" />
    <glyph glyph-name="eogonek" unicode="&#x119;" horiz-adv-x="1236" 
d="M70 532q0 243 159 402q162 162 400 162q239 0 397 -162q162 -162 162 -402q0 -39 -8 -94h-846q29 -105 114 -169t197 -64q160 0 250 112l248 -71q-123 -212 -371 -264q-102 -102 -102 -179q0 -32 20 -50.5t51 -18.5q24 0 50 11.5t40 25.5l13 12l86 -105l-33 -30
q-25 -22 -84 -49q-67 -31 -127 -31q-91 0 -151 53t-60 135q0 102 103 217q-219 21 -365 179q-143 155 -143 380zM625 860q-100 0 -180 -61.5t-109 -161.5h588q-31 100 -113 161.5t-186 61.5z" />
    <glyph glyph-name="Ecaron" unicode="&#x11a;" horiz-adv-x="1255" 
d="M119 1434h1057v-254h-783v-328h670v-254h-670v-344h793v-254h-1067v1434zM639 1554l-358 261l102 143l262 -154l262 152l103 -141l-359 -261h-12z" />
    <glyph glyph-name="ecaron" unicode="&#x11b;" horiz-adv-x="1236" 
d="M1180 438h-846q29 -105 114 -169t197 -64q160 0 250 112l248 -71q-74 -129 -206 -203t-292 -74q-244 0 -412 160q-163 163 -163 403q0 243 159 402q162 162 400 162q239 0 397 -162q162 -162 162 -402q0 -39 -8 -94zM336 637h588q-31 100 -113 161.5t-186 61.5
q-100 0 -180 -61.5t-109 -161.5zM629 1456l260 152l104 -142l-358 -260h-12l-359 260l103 144z" />
    <glyph glyph-name="Gcircumflex" unicode="&#x11c;" horiz-adv-x="1646" 
d="M840 1464q225 0 405 -110q181 -108 273 -293l-267 -100q-62 112 -170 175.5t-241 63.5q-202 0 -338 -139q-135 -138 -135 -344q0 -207 131 -344t321 -137q145 0 266 83q119 82 166 222h-452v250h764q4 -62 4 -72q0 -316 -213 -535q-212 -215 -531 -215q-317 0 -530 213
q-213 216 -213 535q0 321 217 532q218 215 543 215zM821 1706l-260 -154l-104 144l358 260h14l357 -260l-103 -142z" />
    <glyph glyph-name="gcircumflex" unicode="&#x11d;" horiz-adv-x="1273" 
d="M588 1096q181 0 323 -115v84h254v-1036q0 -221 -153 -371t-375 -150q-174 0 -320 93q-144 89 -200 227l256 74q30 -61 101 -100.5t155 -39.5q116 0 200 78q82 76 82 189v55q-142 -115 -323 -115q-220 0 -371 160q-147 163 -147 403q0 243 147 402q149 162 371 162z
M823 752q-82 88 -202 88q-123 0 -205 -88t-82 -220q0 -131 82 -219t205 -88q120 0 202 88q84 90 84 219q0 130 -84 220zM618 1358l-260 -154l-104 144l358 260h15l356 -260l-102 -142z" />
    <glyph glyph-name="Gbreve" unicode="&#x11e;" horiz-adv-x="1646" 
d="M840 1464q225 0 405 -110q181 -108 273 -293l-267 -100q-62 112 -170 175.5t-241 63.5q-202 0 -338 -139q-135 -138 -135 -344q0 -207 131 -344t321 -137q145 0 266 83q119 82 166 222h-452v250h764q4 -62 4 -72q0 -316 -213 -535q-212 -215 -531 -215q-317 0 -530 213
q-213 216 -213 535q0 321 217 532q218 215 543 215zM489 1864h197q0 -64 39 -108t98 -44t96 42.5t37 109.5h199q0 -140 -96 -236q-94 -94 -238 -94q-143 0 -237 94q-95 95 -95 236z" />
    <glyph glyph-name="gbreve" unicode="&#x11f;" horiz-adv-x="1273" 
d="M588 -31q-220 0 -371 160q-147 163 -147 403q0 243 147 402q149 162 371 162q181 0 323 -115v84h254v-1036q0 -221 -153 -371t-375 -150q-174 0 -320 93q-144 89 -200 227l256 74q30 -61 101 -100.5t155 -39.5q116 0 200 78q82 76 82 189v55q-142 -115 -323 -115z
M823 752q-82 88 -202 88q-123 0 -205 -88t-82 -220q0 -131 82 -219t205 -88q120 0 202 88q84 90 84 219q0 130 -84 220zM287 1516h196q0 -64 39.5 -108t98.5 -44t96 42.5t37 109.5h198q0 -140 -96 -236q-94 -94 -238 -94q-143 0 -237 94t-94 236z" />
    <glyph glyph-name="Gdotaccent" unicode="&#x120;" horiz-adv-x="1646" 
d="M840 1464q225 0 405 -110q181 -108 273 -293l-267 -100q-62 112 -170 175.5t-241 63.5q-202 0 -338 -139q-135 -138 -135 -344q0 -207 131 -344t321 -137q145 0 266 83q119 82 166 222h-452v250h764q4 -62 4 -72q0 -316 -213 -535q-212 -215 -531 -215q-317 0 -530 213
q-213 216 -213 535q0 321 217 532q218 215 543 215zM662 1704q0 69 45.5 115.5t113.5 46.5q69 0 115.5 -46.5t46.5 -115.5q0 -68 -46.5 -114t-115.5 -46q-67 0 -113 46t-46 114z" />
    <glyph glyph-name="gdotaccent" unicode="&#x121;" horiz-adv-x="1273" 
d="M588 -31q-220 0 -371 160q-147 163 -147 403q0 243 147 402q149 162 371 162q181 0 323 -115v84h254v-1036q0 -221 -153 -371t-375 -150q-174 0 -320 93q-144 89 -200 227l256 74q30 -61 101 -100.5t155 -39.5q116 0 200 78q82 76 82 189v55q-142 -115 -323 -115z
M823 752q-82 88 -202 88q-123 0 -205 -88t-82 -220q0 -131 82 -219t205 -88q120 0 202 88q84 90 84 219q0 130 -84 220zM459 1356q0 69 45.5 115.5t113.5 46.5q69 0 115.5 -46.5t46.5 -115.5q0 -68 -46.5 -114t-115.5 -46q-67 0 -113 46t-46 114z" />
    <glyph glyph-name="uni0122" unicode="&#x122;" horiz-adv-x="1646" 
d="M840 1464q225 0 405 -110q181 -108 273 -293l-267 -100q-62 112 -170 175.5t-241 63.5q-202 0 -338 -139q-135 -138 -135 -344q0 -207 131 -344t321 -137q145 0 266 83q119 82 166 222h-452v250h764q4 -62 4 -72q0 -316 -213 -535q-212 -215 -531 -215q-317 0 -530 213
q-213 216 -213 535q0 321 217 532q218 215 543 215zM991 -270q0 -158 -194 -269l-2 -2l-64 68q94 73 94 111q-45 11 -76.5 48t-31.5 83q0 54 37.5 90.5t93.5 36.5q63 0 103 -47t40 -119z" />
    <glyph glyph-name="uni0123" unicode="&#x123;" horiz-adv-x="1273" 
d="M588 -31q-220 0 -371 160q-147 163 -147 403q0 243 147 402q149 162 371 162q181 0 323 -115v84h254v-1036q0 -221 -153 -371t-375 -150q-174 0 -320 93q-144 89 -200 227l256 74q30 -61 101 -100.5t155 -39.5q116 0 200 78q82 76 82 189v55q-142 -115 -323 -115z
M823 752q-82 88 -202 88q-123 0 -205 -88t-82 -220q0 -131 82 -219t205 -88q120 0 202 88q84 90 84 219q0 130 -84 220zM477 1350q0 156 195 268l2 2l63 -68q-94 -73 -94 -112q47 -8 78 -44t31 -85q0 -54 -37.5 -90.5t-93.5 -36.5q-63 0 -103.5 46.5t-40.5 119.5z" />
    <glyph glyph-name="Hcircumflex" unicode="&#x124;" horiz-adv-x="1490" 
d="M393 598v-598h-274v1434h274v-582h703v582h276v-1434h-276v598h-703zM483 1552l-104 144l358 260h15l356 -260l-102 -142l-263 152z" />
    <glyph glyph-name="hcircumflex" unicode="&#x125;" horiz-adv-x="1230" 
d="M365 608v-608h-256v1536h256v-600q121 160 329 160q186 0 305 -119q123 -120 123 -297v-680h-254v608q0 104 -72 174t-180 70t-179.5 -69.5t-71.5 -174.5zM242 1788l-260 -154l-105 144l359 260h14l356 -260l-102 -142z" />
    <glyph glyph-name="Hbar" unicode="&#x126;" horiz-adv-x="1538" 
d="M1376 1434v-197h142v-227h-142v-1010h-274v598h-703v-598h-276v1010h-103v227h103v197h276v-197h703v197h274zM1102 852v158h-703v-158h703z" />
    <glyph glyph-name="hbar" unicode="&#x127;" horiz-adv-x="1232" 
d="M367 1536v-162h342v-188h-342v-250q121 160 329 160q189 0 308 -119q122 -119 122 -297v-680h-256v608q0 104 -72 174t-180 70t-179.5 -69.5t-71.5 -174.5v-608h-256v1186h-101v188h101v162h256z" />
    <glyph glyph-name="Itilde" unicode="&#x128;" horiz-adv-x="512" 
d="M393 0h-274v1434h274v-1434zM111 1591h-195q0 101 68 172q69 72 163 72q62 0 121 -41q59 -39 78 -39q23 0 39 20.5t16 49.5h195q0 -101 -68 -172q-66 -72 -161 -72q-67 0 -123 39t-76 39q-24 0 -40.5 -19.5t-16.5 -48.5z" />
    <glyph glyph-name="itilde" unicode="&#x129;" horiz-adv-x="491" 
d="M375 0h-256v1065h256v-1065zM102 1243h-194q0 102 67 172q69 72 162 72q62 0 121 -41q56 -39 76 -39q23 0 39 20.5t16 49.5h195q0 -103 -68 -174q-64 -70 -160 -70q-64 0 -120 39t-76 39q-24 0 -41 -19.5t-17 -48.5z" />
    <glyph glyph-name="Imacron" unicode="&#x12a;" horiz-adv-x="512" 
d="M393 0h-274v1434h274v-1434zM573 1606h-634v209h634v-209z" />
    <glyph glyph-name="imacron" unicode="&#x12b;" horiz-adv-x="473" 
d="M365 0h-256v1065h256v-1065zM-80 1257v209h633v-209h-633z" />
    <glyph glyph-name="Ibreve" unicode="&#x12c;" horiz-adv-x="512" 
d="M393 0h-274v1434h274v-1434zM-78 1864h199q0 -66 38.5 -109t98.5 -43q57 0 95 43t38 109h199q0 -140 -96 -236q-94 -94 -238 -94q-146 0 -240 94t-94 236z" />
    <glyph glyph-name="ibreve" unicode="&#x12d;" horiz-adv-x="473" 
d="M365 0h-256v1065h256v-1065zM-94 1516h196q0 -66 39 -109t99 -43q57 0 94 43t37 109h198q0 -142 -94 -236t-237 -94q-144 0 -238 94t-94 236z" />
    <glyph glyph-name="Iogonek" unicode="&#x12e;" horiz-adv-x="512" 
d="M47 -244q0 53 30 114t66 97l33 33h-57v1434h274v-1434h-28l-35 -31q-27 -27 -56 -71q-32 -49 -32 -95q0 -60 61 -69q70 0 113 49l86 -105l-33 -30q-25 -22 -84 -49q-67 -31 -127 -31q-91 0 -151 53t-60 135z" />
    <glyph glyph-name="iogonek" unicode="&#x12f;" horiz-adv-x="473" 
d="M242 -432q-92 0 -151.5 53t-59.5 135q0 53 30 114t66 97l31 33h-49v1065h256v-1065h-17l-35 -31q-24 -24 -55 -71q-33 -50 -33 -95q0 -32 20.5 -50.5t51.5 -18.5q23 0 49 12t39 25l12 12l86 -105l-32 -30q-25 -22 -84 -49q-64 -31 -125 -31zM236 1159q-69 0 -115.5 47.5
t-46.5 116.5t46.5 115.5t115.5 46.5q63 0 109 -40.5t52 -101.5q2 -4 2 -20q0 -70 -46 -117t-117 -47z" />
    <glyph glyph-name="Idot" unicode="&#x130;" horiz-adv-x="512" 
d="M393 0h-274v1434h274v-1434zM96 1704q0 69 46 115.5t114 46.5q69 0 114.5 -46.5t45.5 -115.5q0 -68 -45.5 -114t-114.5 -46q-68 0 -114 46t-46 114z" />
    <glyph glyph-name="dotlessi" unicode="&#x131;" horiz-adv-x="473" 
d="M365 0h-256v1065h256v-1065z" />
    <glyph glyph-name="IJ" unicode="&#x132;" horiz-adv-x="1703" 
d="M393 0h-274v1434h274v-1434zM1606 1434v-910q0 -238 -166 -397q-166 -158 -410 -158q-157 0 -284 67t-203 185l227 148q38 -68 108.5 -107t155.5 -39q130 0 219 86q88 88 88 215v910h265z" />
    <glyph glyph-name="ij" unicode="&#x133;" horiz-adv-x="956" 
d="M365 0h-256v1065h256v-1065zM236 1159q-69 0 -115.5 47.5t-46.5 116.5t46.5 115.5t115.5 46.5t116 -46.5t47 -115.5q0 -70 -46 -117t-117 -47zM594 1065h254v-1188q0 -145 -107 -239q-105 -99 -260 -99h-92v244h74q56 0 93.5 37t37.5 92v1153zM604 1206q-47 47 -47 117.5
t47 114.5q47 47 117.5 47t114.5 -47q47 -44 47 -114.5t-47 -117.5q-44 -47 -114.5 -47t-117.5 47z" />
    <glyph glyph-name="Jcircumflex" unicode="&#x134;" horiz-adv-x="1191" 
d="M1092 1434v-910q0 -238 -164 -397q-166 -158 -412 -158q-154 0 -282.5 67t-204.5 185l229 148q37 -68 106.5 -107t155.5 -39q130 0 219 86q88 88 88 215v910h265zM950 1706l-262 -154l-102 144l358 260h12l359 -260l-103 -142z" />
    <glyph glyph-name="jcircumflex" unicode="&#x135;" horiz-adv-x="483" 
d="M121 1065h256v-1188q0 -145 -107 -239q-105 -99 -260 -99h-94v244h74q57 0 94 36.5t37 92.5v1153zM248 1358l-262 -154l-103 144l357 260h14l358 -260l-104 -142z" />
    <glyph glyph-name="uni0136" unicode="&#x136;" horiz-adv-x="1341" 
d="M119 0v1434h274v-639l541 639h348l-592 -701l633 -733h-348l-582 674v-674h-274zM649 -362q-46 11 -76 47t-30 84q0 54 37 90.5t92 36.5q63 0 103 -47t40 -119q0 -159 -192 -269v-2h-2l-66 68q94 73 94 111z" />
    <glyph glyph-name="uni0137" unicode="&#x137;" horiz-adv-x="1091" 
d="M365 0h-256v1536h256v-928l356 457h309l-399 -514l442 -551h-313l-395 494v-494zM424 -231q0 54 37.5 90.5t93.5 36.5q63 0 103 -47t40 -119q0 -158 -194 -269l-2 -2l-64 68q94 73 94 111q-45 11 -76.5 48t-31.5 83z" />
    <glyph glyph-name="Lacute" unicode="&#x139;" horiz-adv-x="1165" 
d="M1116 0h-997v1434h274v-1180h723v-254zM63 1710l418 260l115 -225l-446 -191z" />
    <glyph glyph-name="lacute" unicode="&#x13a;" horiz-adv-x="473" 
d="M365 0h-256v1536h256v-1536zM131 1636l-84 156l418 260l115 -225z" />
    <glyph glyph-name="uni013B" unicode="&#x13b;" horiz-adv-x="1165" 
d="M119 0v1434h274v-1180h723v-254h-997zM500 -231q0 54 37 90.5t94 36.5q62 0 102.5 -47t40.5 -119q0 -158 -194 -269l-2 -2l-66 68q93 72 96 111q-48 11 -78 46.5t-30 84.5z" />
    <glyph glyph-name="uni013C" unicode="&#x13c;" horiz-adv-x="473" 
d="M365 0h-256v1536h256v-1536zM373 -270q0 -157 -195 -269l-2 -2l-63 68q94 73 94 111q-46 11 -76.5 47t-30.5 84q0 54 37 90.5t92 36.5q63 0 103.5 -47t40.5 -119z" />
    <glyph glyph-name="Lcaron" unicode="&#x13d;" horiz-adv-x="1165" 
d="M119 0v1434h274v-1180h723v-254h-997zM627 1337q0 54 37.5 90.5t93.5 36.5q62 0 102.5 -47t40.5 -119q0 -157 -194 -268l-2 -2l-66 66q94 73 94 112q-45 8 -75.5 45t-30.5 86z" />
    <glyph glyph-name="lcaron" unicode="&#x13e;" horiz-adv-x="757" 
d="M365 0h-256v1536h256v-1536zM463 1440q0 54 37.5 90.5t93.5 36.5q63 0 103 -47t40 -119q0 -157 -194 -268l-2 -3l-64 66q94 73 94 113q-45 8 -76.5 45t-31.5 86z" />
    <glyph glyph-name="Ldot" unicode="&#x13f;" horiz-adv-x="1165" 
d="M119 0v1434h274v-1180h723v-254h-997zM954 602q-44 -44 -114.5 -44t-114.5 44t-44 114.5t44 114.5t114.5 44t114.5 -44t44 -114.5t-44 -114.5z" />
    <glyph glyph-name="ldot" unicode="&#x140;" horiz-adv-x="931" 
d="M365 0h-256v1536h256v-1536zM702 877q68 0 114 -45.5t46 -114.5t-46 -114.5t-114 -45.5q-69 0 -115 45.5t-46 114.5t46 114.5t115 45.5z" />
    <glyph glyph-name="Lslash" unicode="&#x141;" horiz-adv-x="1249" 
d="M203 438l-68 -41l-115 199l183 113v725h274v-557l232 143l114 -199l-346 -213v-354h723v-254h-997v438z" />
    <glyph glyph-name="lslash" unicode="&#x142;" horiz-adv-x="479" 
d="M367 1536v-637l112 64v-215l-112 -66v-682h-254v537l-113 -66v217l113 64v784h254z" />
    <glyph glyph-name="Nacute" unicode="&#x143;" horiz-adv-x="1501" 
d="M119 0v1434h243l756 -963v963h264v-1434h-243l-756 961v-961h-264zM1096 1745l-449 -191l-84 156l418 260z" />
    <glyph glyph-name="nacute" unicode="&#x144;" horiz-adv-x="1212" 
d="M365 608v-608h-256v1065h256v-129q118 160 319 160q180 0 299 -119q121 -121 121 -297v-680h-256v608q0 104 -68.5 174t-171.5 70q-104 0 -173.5 -70t-69.5 -174zM961 1397l-447 -191l-86 156l418 260z" />
    <glyph glyph-name="uni0145" unicode="&#x145;" horiz-adv-x="1501" 
d="M383 0h-264v1434h243l756 -963v963h264v-1434h-243l-756 961v-961zM737 -362q-45 11 -76.5 48t-31.5 83q0 54 37.5 90.5t93.5 36.5q63 0 103 -47t40 -119q0 -158 -194 -269l-2 -2l-64 68q94 73 94 111z" />
    <glyph glyph-name="uni0146" unicode="&#x146;" horiz-adv-x="1212" 
d="M365 0h-256v1065h256v-129q118 160 319 160q180 0 299 -119q121 -121 121 -297v-680h-256v608q0 104 -68.5 174t-171.5 70q-104 0 -173.5 -70t-69.5 -174v-608zM598 -362q-46 11 -76 47t-30 84q0 54 37 90.5t92 36.5q63 0 103 -47t40 -119q0 -158 -193 -269q0 -2 -2 -2
l-65 68q94 73 94 111z" />
    <glyph glyph-name="Ncaron" unicode="&#x147;" horiz-adv-x="1501" 
d="M383 0h-264v1434h243l756 -963v963h264v-1434h-243l-756 961v-961zM743 1554l-358 261l104 143l263 -154l260 152l104 -141l-358 -261h-15z" />
    <glyph glyph-name="ncaron" unicode="&#x148;" horiz-adv-x="1212" 
d="M365 608v-608h-256v1065h256v-129q118 160 319 160q180 0 299 -119q121 -121 121 -297v-680h-256v608q0 104 -68.5 174t-171.5 70q-104 0 -173.5 -70t-69.5 -174zM610 1206l-358 260l102 144l262 -154l263 152l102 -142l-356 -260h-15z" />
    <glyph glyph-name="Eng" unicode="&#x14a;" horiz-adv-x="1501" 
d="M1118 1434h264v-1371q0 -240 -165 -395q-165 -160 -410 -160l4 254q121 0 207 75.5t98 191.5l-733 932v-961h-264v1434h243l756 -963v963z" />
    <glyph glyph-name="eng" unicode="&#x14b;" horiz-adv-x="1212" 
d="M109 0v1065h256v-129q118 160 319 160q180 0 299 -119q121 -121 121 -297v-803q0 -148 -107 -242q-107 -96 -260 -96h-92v244h74q55 0 92 36.5t37 92.5v696q0 104 -68.5 174t-171.5 70q-104 0 -173.5 -70t-69.5 -174v-608h-256z" />
    <glyph glyph-name="Omacron" unicode="&#x14c;" horiz-adv-x="1656" 
d="M827 1464q323 0 535 -215q215 -212 215 -532t-215 -535q-213 -213 -535 -213q-318 0 -534 213q-213 216 -213 535t213 532q215 215 534 215zM367 717q0 -207 131 -344t329 -137q199 0 330 137q133 139 133 344t-133 344t-330 139q-196 0 -329 -139q-131 -137 -131 -344z
M1145 1606h-635v209h635v-209z" />
    <glyph glyph-name="omacron" unicode="&#x14d;" horiz-adv-x="1265" 
d="M229 129q-159 163 -159 403q0 243 159 402q162 162 404 162q241 0 403 -162q162 -158 162 -402q0 -241 -162 -403q-165 -160 -403 -160q-239 0 -404 160zM420 752q-86 -89 -86 -220q0 -130 86 -219q85 -88 213 -88t213 88q86 89 86 219q0 131 -86 220q-85 88 -213 88
t-213 -88zM950 1257h-635v209h635v-209z" />
    <glyph glyph-name="Obreve" unicode="&#x14e;" horiz-adv-x="1656" 
d="M827 1464q323 0 535 -215q215 -212 215 -532t-215 -535q-213 -213 -535 -213q-318 0 -534 213q-213 216 -213 535t213 532q215 215 534 215zM367 717q0 -207 131 -344t329 -137q199 0 330 137q133 139 133 344t-133 344t-330 139q-196 0 -329 -139q-131 -137 -131 -344z
M494 1864h198q0 -64 39 -108t98 -44q60 0 97 43t37 109h198q0 -140 -96 -236q-94 -94 -238 -94q-145 0 -239 94t-94 236z" />
    <glyph glyph-name="obreve" unicode="&#x14f;" horiz-adv-x="1265" 
d="M229 129q-159 163 -159 403q0 243 159 402q162 162 404 162q241 0 403 -162q162 -158 162 -402q0 -241 -162 -403q-165 -160 -403 -160q-239 0 -404 160zM420 752q-86 -89 -86 -220q0 -130 86 -219q85 -88 213 -88t213 88q86 89 86 219q0 131 -86 220q-85 88 -213 88
t-213 -88zM299 1516h199q0 -66 38.5 -109t98.5 -43q57 0 95 43t38 109h197q0 -139 -97 -236q-94 -94 -235 -94q-146 0 -240 94t-94 236z" />
    <glyph glyph-name="Ohungarumlaut" unicode="&#x150;" horiz-adv-x="1656" 
d="M827 1464q323 0 535 -215q215 -212 215 -532t-215 -535q-213 -213 -535 -213q-318 0 -534 213q-213 216 -213 535t213 532q215 215 534 215zM367 717q0 -207 131 -344t329 -137q199 0 330 137q133 139 133 344t-133 344t-330 139q-196 0 -329 -139q-131 -137 -131 -344z
M623 1532l-127 121l292 348l179 -180zM1044 1532l-126 121l292 348l179 -180z" />
    <glyph glyph-name="ohungarumlaut" unicode="&#x151;" horiz-adv-x="1265" 
d="M229 129q-159 163 -159 403q0 243 159 402q162 162 404 162q241 0 403 -162q162 -158 162 -402q0 -241 -162 -403q-165 -160 -403 -160q-239 0 -404 160zM420 752q-86 -89 -86 -220q0 -130 86 -219q85 -88 213 -88t213 88q86 89 86 219q0 131 -86 220q-85 88 -213 88
t-213 -88zM428 1184l-129 121l295 348l178 -180zM850 1184l-129 121l295 348l178 -180z" />
    <glyph glyph-name="OE" unicode="&#x152;" horiz-adv-x="2447" 
d="M827 -31q-318 0 -534 213q-213 216 -213 535t213 532q215 215 534 215q285 0 486 -168v138h1054v-254h-780v-328h668v-254h-668v-344h791v-254h-1065v137q-201 -168 -486 -168zM367 717q0 -207 131 -344t329 -137q199 0 330 137q133 139 133 344t-133 344t-330 139
q-196 0 -329 -139q-131 -137 -131 -344z" />
    <glyph glyph-name="oe" unicode="&#x153;" horiz-adv-x="2099" 
d="M633 1096q266 0 434 -195q165 195 428 195q240 0 395 -162q160 -160 160 -402q0 -58 -8 -94h-846q29 -105 114 -169t197 -64q160 0 250 112l248 -71q-69 -128 -201 -202.5t-293 -74.5q-278 0 -442 197q-164 -197 -436 -197q-239 0 -404 160q-159 163 -159 403
q0 243 159 402q162 162 404 162zM420 313q85 -88 213 -88t213 88q86 89 86 219q0 131 -86 220q-85 88 -213 88t-213 -88q-86 -89 -86 -220q0 -130 86 -219zM1198 637h588q-29 100 -111.5 161.5t-187.5 61.5q-99 0 -178.5 -61.5t-110.5 -161.5z" />
    <glyph glyph-name="Racute" unicode="&#x154;" horiz-adv-x="1382" 
d="M119 1434h663q210 0 353 -134q143 -131 143 -329q0 -139 -73.5 -250.5t-198.5 -167.5l327 -553h-305l-301 506h-334v-506h-274v1434zM782 1180h-389v-420h389q91 0 150 60t59 151t-59 150t-150 59zM946 1745l-448 -191l-84 156l417 260z" />
    <glyph glyph-name="racute" unicode="&#x155;" horiz-adv-x="745" 
d="M365 1065v-131q110 162 350 162v-285q-54 23 -105 23q-105 0 -175 -71t-70 -177v-586h-256v1065h256zM297 1206l-86 156l418 260l114 -225z" />
    <glyph glyph-name="uni0156" unicode="&#x156;" horiz-adv-x="1382" 
d="M119 1434h663q210 0 353 -134q143 -131 143 -329q0 -139 -73.5 -250.5t-198.5 -167.5l327 -553h-305l-301 506h-334v-506h-274v1434zM782 1180h-389v-420h389q91 0 150 60t59 151t-59 150t-150 59zM698 -362q-45 11 -76.5 48t-31.5 83q0 54 37.5 90.5t93.5 36.5
q63 0 103 -47t40 -119q0 -158 -194 -269l-2 -2l-64 68q94 73 94 111z" />
    <glyph glyph-name="uni0157" unicode="&#x157;" horiz-adv-x="745" 
d="M365 1065v-131q110 162 350 162v-285q-54 23 -105 23q-105 0 -175 -71t-70 -177v-586h-256v1065h256zM383 -270q0 -157 -195 -269l-2 -2l-63 68q94 73 94 111q-48 11 -78 46.5t-30 84.5q0 54 37.5 90.5t93.5 36.5q63 0 103 -47t40 -119z" />
    <glyph glyph-name="Rcaron" unicode="&#x158;" horiz-adv-x="1382" 
d="M393 0h-274v1434h663q210 0 353 -134q143 -131 143 -329q0 -139 -73.5 -250.5t-198.5 -167.5l327 -553h-305l-301 506h-334v-506zM782 1180h-389v-420h389q91 0 150 60t59 151t-59 150t-150 59zM594 1554l-356 261l102 143l262 -154l260 152l105 -141l-359 -261h-14z" />
    <glyph glyph-name="rcaron" unicode="&#x159;" horiz-adv-x="745" 
d="M365 1065v-131q110 162 350 162v-285q-54 23 -105 23q-105 0 -175 -71t-70 -177v-586h-256v1065h256zM399 1456l263 152l102 -142l-356 -260h-15l-358 260l102 144z" />
    <glyph glyph-name="Sacute" unicode="&#x15a;" horiz-adv-x="1251" 
d="M1116 1143l-274 -80q-18 58 -83 98.5t-149 40.5q-91 0 -154 -44t-63 -107q0 -81 131 -136q48 -20 236 -75q8 -2 27 -7.5t25.5 -7.5t22 -6.5t22 -7t20 -7t22.5 -8.5t21.5 -9.5t25 -12t27.5 -14.5q63 -34 102 -76q40 -42 68 -111.5t28 -148.5q0 -207 -149 -332
q-147 -123 -383 -123q-215 0 -365 99q-151 102 -196 249l274 82q18 -70 97.5 -118t189.5 -48t184 46.5t74 119.5q0 54 -51 101q-21 18 -60 35q-35 17 -114 43q-261 77 -346 122q-207 112 -207 330q0 193 135 313q139 121 352 121q189 0 328 -92q138 -88 182 -229zM520 1554
l-84 156l418 260l115 -225z" />
    <glyph glyph-name="sacute" unicode="&#x15b;" horiz-adv-x="972" 
d="M897 809l-240 -39q-34 104 -186 104q-65 0 -107 -24.5t-42 -67.5q0 -52 94 -86l219 -73q147 -51 212.5 -127.5t65.5 -192.5q0 -161 -115 -247.5t-306 -86.5q-190 0 -304.5 83t-138.5 231l240 34q14 -58 68.5 -92.5t140.5 -34.5q75 0 123.5 28.5t48.5 76.5q0 62 -119 102
l-219 70q-135 44 -194.5 114t-59.5 183q0 163 111 247.5t300 84.5q172 0 280 -76.5t128 -210.5zM379 1206l-86 156l418 260l114 -225z" />
    <glyph glyph-name="Scircumflex" unicode="&#x15c;" horiz-adv-x="1251" 
d="M1116 1143l-274 -80q-18 58 -83 98.5t-149 40.5q-91 0 -154 -44t-63 -107q0 -81 131 -136q48 -20 236 -75q8 -2 27 -7.5t25.5 -7.5t22 -6.5t22 -7t20 -7t22.5 -8.5t21.5 -9.5t25 -12t27.5 -14.5q63 -34 102 -76q40 -42 68 -111.5t28 -148.5q0 -207 -149 -332
q-147 -123 -383 -123q-215 0 -365 99q-151 102 -196 249l274 82q18 -70 97.5 -118t189.5 -48t184 46.5t74 119.5q0 54 -51 101q-21 18 -60 35q-35 17 -114 43q-261 77 -346 122q-207 112 -207 330q0 193 135 313q139 121 352 121q189 0 328 -92q138 -88 182 -229zM625 1706
l-263 -154l-104 144l358 260h15l358 -260l-104 -142z" />
    <glyph glyph-name="scircumflex" unicode="&#x15d;" horiz-adv-x="972" 
d="M897 809l-240 -39q-34 104 -186 104q-65 0 -107 -24.5t-42 -67.5q0 -52 94 -86l219 -73q147 -51 212.5 -127.5t65.5 -192.5q0 -161 -115 -247.5t-306 -86.5q-190 0 -304.5 83t-138.5 231l240 34q14 -58 68.5 -92.5t140.5 -34.5q75 0 123.5 28.5t48.5 76.5q0 62 -119 102
l-219 70q-135 44 -194.5 114t-59.5 183q0 163 111 247.5t300 84.5q172 0 280 -76.5t128 -210.5zM481 1358l-260 -154l-104 144l358 260h14l357 -260l-103 -142z" />
    <glyph glyph-name="Scedilla" unicode="&#x15e;" horiz-adv-x="1251" 
d="M578 -184l-41 4l34 153q-182 13 -315.5 109t-177.5 235l274 82q18 -70 97.5 -118t189.5 -48t184 46.5t74 119.5q0 54 -51 101q-21 18 -60 35q-35 17 -114 43q-261 77 -346 122q-207 112 -207 330q0 193 135 313q139 121 352 121q189 0 328 -92q138 -88 182 -229l-274 -80
q-18 58 -83 98.5t-149 40.5q-91 0 -154 -44t-63 -107q0 -81 131 -136q48 -20 236 -75q8 -2 27 -7.5t25.5 -7.5t22 -6.5t22 -7t20 -7t22.5 -8.5t21.5 -9.5t25 -12t27.5 -14.5q63 -34 102 -76q40 -42 68 -111.5t28 -148.5q0 -177 -110.5 -295t-298.5 -149l-14 -70
q6 -1 15.5 -4t34 -15t43.5 -28.5t34.5 -47t15.5 -67.5q0 -91 -75 -149t-191 -58q-50 0 -102.5 13t-80.5 28l-26 12l28 134q51 -39 136 -39q51 0 86.5 17.5t35.5 43.5q0 24 -39 42.5t-85 23.5z" />
    <glyph glyph-name="scedilla" unicode="&#x15f;" horiz-adv-x="972" 
d="M49 283l240 34q14 -58 68.5 -92.5t140.5 -34.5q75 0 123.5 28.5t48.5 76.5q0 62 -119 102l-219 70q-135 44 -194.5 114t-59.5 183q0 163 111 247.5t300 84.5q172 0 280 -76.5t128 -210.5l-240 -39q-34 104 -186 104q-65 0 -107 -24.5t-42 -67.5q0 -52 94 -86l219 -73
q147 -51 212.5 -127.5t65.5 -192.5q0 -131 -77 -212.5t-215 -108.5l-17 -72q6 -1 15.5 -4t33.5 -15t43 -28.5t34 -47t15 -67.5q0 -91 -74 -149t-190 -58q-50 0 -102 13t-80 28l-27 12l29 134q51 -39 135 -39q51 0 87 17.5t36 43.5q0 24 -39 42.5t-86 23.5l-41 4l35 151
q-163 13 -261 95t-118 217z" />
    <glyph glyph-name="Scaron" unicode="&#x160;" horiz-adv-x="1251" 
d="M1116 1143l-274 -80q-18 58 -83 98.5t-149 40.5q-91 0 -154 -44t-63 -107q0 -81 131 -136q48 -20 236 -75q8 -2 27 -7.5t25.5 -7.5t22 -6.5t22 -7t20 -7t22.5 -8.5t21.5 -9.5t25 -12t27.5 -14.5q63 -34 102 -76q40 -42 68 -111.5t28 -148.5q0 -207 -149 -332
q-147 -123 -383 -123q-215 0 -365 99q-151 102 -196 249l274 82q18 -70 97.5 -118t189.5 -48t184 46.5t74 119.5q0 54 -51 101q-21 18 -60 35q-35 17 -114 43q-261 77 -346 122q-207 112 -207 330q0 193 135 313q139 121 352 121q189 0 328 -92q138 -88 182 -229zM625 1804
l260 152l104 -141l-358 -261h-15l-358 261l104 143z" />
    <glyph glyph-name="scaron" unicode="&#x161;" horiz-adv-x="972" 
d="M897 809l-240 -39q-34 104 -186 104q-65 0 -107 -24.5t-42 -67.5q0 -52 94 -86l219 -73q147 -51 212.5 -127.5t65.5 -192.5q0 -161 -115 -247.5t-306 -86.5q-190 0 -304.5 83t-138.5 231l240 34q14 -58 68.5 -92.5t140.5 -34.5q75 0 123.5 28.5t48.5 76.5q0 62 -119 102
l-219 70q-135 44 -194.5 114t-59.5 183q0 163 111 247.5t300 84.5q172 0 280 -76.5t128 -210.5zM481 1456l262 152l103 -142l-357 -260h-14l-358 260l104 144z" />
    <glyph glyph-name="uni0162" unicode="&#x162;" horiz-adv-x="1325" 
d="M524 0v1180h-475v254h1227v-254h-475v-1180h-277zM647 -362q-46 11 -76 47t-30 84q0 54 37 90.5t92 36.5q63 0 103 -47t40 -119q0 -159 -192 -269q0 -2 -3 -2l-65 68q94 73 94 111z" />
    <glyph glyph-name="uni0163" unicode="&#x163;" horiz-adv-x="741" 
d="M20 842v223h152v209h256v-209h264v-223h-264v-469q0 -56 37 -92.5t94 -36.5h133v-244h-157q-152 0 -259 96q-104 94 -104 240v506h-152zM573 -270q0 -159 -192 -269l-2 -2l-66 68q95 74 95 111q-46 11 -76.5 47t-30.5 84q0 54 37 90.5t92 36.5q63 0 103 -47t40 -119z" />
    <glyph glyph-name="Tcaron" unicode="&#x164;" horiz-adv-x="1325" 
d="M49 1434h1227v-254h-475v-1180h-277v1180h-475v254zM670 1554h-15l-358 261l104 143l261 -154l262 152l102 -141z" />
    <glyph glyph-name="tcaron" unicode="&#x165;" horiz-adv-x="794" 
d="M20 842v223h152v209h256v-209h264v-223h-264v-469q0 -56 37 -92.5t94 -36.5h133v-244h-157q-152 0 -259 96q-104 94 -104 240v506h-152zM774 1374q0 -158 -192 -268v-2h-2l-66 65q94 73 94 113q-45 8 -75.5 45t-30.5 86q0 54 37 90.5t94 36.5q61 0 101 -47t40 -119z" />
    <glyph glyph-name="Tbar" unicode="&#x166;" horiz-adv-x="1325" 
d="M1044 537h-243v-537h-277v537h-241v251h241v392h-475v254h1227v-254h-475v-392h243v-251z" />
    <glyph glyph-name="tbar" unicode="&#x167;" horiz-adv-x="741" 
d="M172 842h-152v223h152v209h256v-209h264v-223h-264v-180h182v-187h-182v-102q0 -56 37 -92.5t94 -36.5h133v-244h-157q-152 0 -259 96q-104 94 -104 240v139h-121v187h121v180z" />
    <glyph glyph-name="Utilde" unicode="&#x168;" horiz-adv-x="1452" 
d="M1077 575v859h275v-859q0 -257 -181 -432q-177 -174 -446 -174q-266 0 -446 174q-179 176 -179 432v859h275v-859q0 -151 100 -251q101 -101 250 -101q151 0 252 101q100 100 100 251zM580 1591h-195q0 101 68 172q69 72 163 72q62 0 121 -41q59 -39 78 -39q23 0 39 20.5
t16 49.5h195q0 -103 -66 -173.5t-163 -70.5q-67 0 -123 39t-76 39q-24 0 -40.5 -19.5t-16.5 -48.5z" />
    <glyph glyph-name="utilde" unicode="&#x169;" horiz-adv-x="1212" 
d="M109 385v680h256v-606q0 -105 68.5 -175.5t172.5 -70.5q103 0 172.5 71t69.5 175v606h256v-1065h-256v129q-118 -160 -320 -160q-182 0 -301 119q-118 118 -118 297zM461 1243h-195q0 101 68 172q69 72 164 72q61 0 120 -41q59 -39 78 -39q23 0 39.5 20.5t16.5 49.5h194
q0 -103 -66 -173.5t-163 -70.5q-67 0 -123 39t-76 39q-24 0 -40.5 -19.5t-16.5 -48.5z" />
    <glyph glyph-name="Umacron" unicode="&#x16a;" horiz-adv-x="1452" 
d="M1077 575v859h275v-859q0 -257 -181 -432q-177 -174 -446 -174q-266 0 -446 174q-179 176 -179 432v859h275v-859q0 -151 100 -251q101 -101 250 -101q151 0 252 101q100 100 100 251zM1044 1606h-636v209h636v-209z" />
    <glyph glyph-name="umacron" unicode="&#x16b;" horiz-adv-x="1212" 
d="M528 -31q-182 0 -301 119q-118 118 -118 297v680h256v-606q0 -105 68.5 -175.5t172.5 -70.5q103 0 172.5 71t69.5 175v606h256v-1065h-256v129q-118 -160 -320 -160zM926 1466v-209h-637v209h637z" />
    <glyph glyph-name="Ubreve" unicode="&#x16c;" horiz-adv-x="1452" 
d="M1077 575v859h275v-859q0 -257 -181 -432q-177 -174 -446 -174q-266 0 -446 174q-179 176 -179 432v859h275v-859q0 -151 100 -251q101 -101 250 -101q151 0 252 101q100 100 100 251zM393 1864h197q0 -64 39 -108t98 -44t96 42.5t37 109.5h199q0 -140 -96 -236
q-94 -94 -238 -94t-238 94t-94 236z" />
    <glyph glyph-name="ubreve" unicode="&#x16d;" horiz-adv-x="1212" 
d="M109 385v680h256v-606q0 -105 68.5 -175.5t172.5 -70.5q103 0 172.5 71t69.5 175v606h256v-1065h-256v129q-118 -160 -320 -160q-182 0 -301 119q-118 118 -118 297zM274 1516h197q0 -64 39 -108t98 -44t96 42.5t37 109.5h199q0 -140 -96 -236q-94 -94 -238 -94
q-143 0 -237 94q-95 95 -95 236z" />
    <glyph glyph-name="Uring" unicode="&#x16e;" horiz-adv-x="1452" 
d="M1077 575v859h275v-859q0 -257 -181 -432q-177 -174 -446 -174q-266 0 -446 174q-179 176 -179 432v859h275v-859q0 -151 100 -251q101 -101 250 -101q151 0 252 101q100 100 100 251zM555 1602q-70 70 -70 170t70 170q71 71 170 71t170 -71q72 -72 72 -170t-72 -170
q-70 -70 -170 -70t-170 70zM659 1772q-4 -40 31 -56.5t70.5 0t32.5 56.5q3 41 -32.5 58.5t-70.5 0t-31 -58.5z" />
    <glyph glyph-name="uring" unicode="&#x16f;" horiz-adv-x="1212" 
d="M109 385v680h256v-606q0 -105 68.5 -175.5t172.5 -70.5q103 0 172.5 71t69.5 175v606h256v-1065h-256v129q-118 -160 -320 -160q-182 0 -301 119q-118 118 -118 297zM608 1665q96 0 168 -72t72 -170t-72 -170q-69 -69 -168 -69q-100 0 -170.5 69.5t-70.5 169.5
q0 101 69 170q72 72 172 72zM608 1358q26 0 46 19.5t20 45.5q0 44 -40.5 62t-74.5 -15q-31 -31 -13 -71.5t62 -40.5z" />
    <glyph glyph-name="Uhungarumlaut" unicode="&#x170;" horiz-adv-x="1452" 
d="M1077 575v859h275v-859q0 -257 -181 -432q-177 -174 -446 -174q-266 0 -446 174q-179 176 -179 432v859h275v-859q0 -151 100 -251q101 -101 250 -101q151 0 252 101q100 100 100 251zM520 1532l-127 121l293 348l178 -180zM942 1532l-127 121l293 348l178 -180z" />
    <glyph glyph-name="uhungarumlaut" unicode="&#x171;" horiz-adv-x="1212" 
d="M109 385v680h256v-606q0 -105 68.5 -175.5t172.5 -70.5q103 0 172.5 71t69.5 175v606h256v-1065h-256v129q-118 -160 -320 -160q-182 0 -301 119q-118 118 -118 297zM1167 1473l-344 -289l-127 121l293 348zM401 1184l-127 121l293 348l178 -180z" />
    <glyph glyph-name="Uogonek" unicode="&#x172;" horiz-adv-x="1452" 
d="M100 575v859h275v-859q0 -151 100 -251q101 -101 250 -101q151 0 252 101q100 100 100 251v859h275v-859q0 -212 -127 -372q-128 -161 -328 -213q-113 -98 -113 -187q0 -32 20.5 -50.5t51.5 -18.5q23 0 49 12t39 25l12 12l86 -105l-32 -30q-25 -22 -84 -49
q-64 -31 -125 -31q-92 0 -151.5 53t-59.5 135q0 106 98 213q-253 15 -422 187q-166 172 -166 419z" />
    <glyph glyph-name="uogonek" unicode="&#x173;" horiz-adv-x="1212" 
d="M109 385v680h256v-606q0 -105 68.5 -175.5t172.5 -70.5q103 0 172.5 71t69.5 175v606h256v-1065h-21l-34 -31q-27 -27 -56 -71q-32 -49 -32 -95q0 -69 73 -69q23 0 49 12t39 25l13 12l86 -105l-33 -30q-25 -22 -84 -49q-67 -31 -127 -31q-91 0 -151 53t-60 135
q0 53 30.5 113.5t67.5 97.5l31 33h-47v129q-118 -160 -320 -160q-182 0 -301 119q-118 118 -118 297z" />
    <glyph glyph-name="Wcircumflex" unicode="&#x174;" horiz-adv-x="2058" 
d="M729 0h-225l-486 1434h283l313 -994l304 994h225l305 -994l311 994h281l-486 -1434h-223l-301 958zM1028 1706l-260 -154l-104 144l358 260h14l357 -260l-103 -142z" />
    <glyph glyph-name="wcircumflex" unicode="&#x175;" horiz-adv-x="1595" 
d="M367 0l-349 1065h258l203 -670l203 670h231l203 -670l203 670h256l-346 -1065h-230l-200 641l-203 -641h-229zM799 1358l-262 -154l-105 144l359 260h14l356 -260l-102 -142z" />
    <glyph glyph-name="Ycircumflex" unicode="&#x176;" horiz-adv-x="1406" 
d="M563 0v586l-545 848h318l362 -590l375 590h316l-551 -840v-594h-275zM442 1552l-102 144l356 260h15l358 -260l-104 -142l-260 152z" />
    <glyph glyph-name="ycircumflex" unicode="&#x177;" horiz-adv-x="1116" 
d="M428 20l-410 1045h265l272 -719l279 719h264l-482 -1204q-68 -168 -178 -245t-286 -77h-41v244h41q182 0 247 164zM297 1204l-104 144l358 260h14l357 -260l-103 -142l-262 152z" />
    <glyph glyph-name="Ydieresis" unicode="&#x178;" horiz-adv-x="1406" 
d="M563 586l-545 848h318l362 -590l375 590h316l-551 -840v-594h-275v586zM922 1845q66 0 109.5 -42.5t43.5 -108.5t-43.5 -109t-109.5 -43q-63 0 -107.5 44.5t-44.5 107.5q0 65 44 108t108 43zM334 1694q0 66 43.5 108.5t109.5 42.5t109 -42.5t43 -108.5q0 -64 -43.5 -108
t-108.5 -44t-109 44t-44 108z" />
    <glyph glyph-name="Zacute" unicode="&#x179;" horiz-adv-x="1298" 
d="M1229 254v-254h-1149v211l758 969h-752v254h1137v-211l-760 -969h766zM997 1745l-446 -191l-86 156l418 260z" />
    <glyph glyph-name="zacute" unicode="&#x17a;" horiz-adv-x="1019" 
d="M950 233v-233h-880v188l518 643h-508v234h860v-188l-520 -644h530zM854 1397l-446 -191l-86 156l417 260z" />
    <glyph glyph-name="Zdotaccent" unicode="&#x17b;" horiz-adv-x="1298" 
d="M1229 0h-1149v211l758 969h-752v254h1137v-211l-760 -969h766v-254zM494 1704q0 69 45.5 115.5t113.5 46.5q69 0 115.5 -46.5t46.5 -115.5q0 -68 -46.5 -114t-115.5 -46q-67 0 -113 46t-46 114z" />
    <glyph glyph-name="zdotaccent" unicode="&#x17c;" horiz-adv-x="1019" 
d="M950 233v-233h-880v188l518 643h-508v234h860v-188l-520 -644h530zM510 1196q-68 0 -114 46t-46 114q0 69 46 115.5t114 46.5q69 0 115.5 -46.5t46.5 -115.5q0 -68 -46.5 -114t-115.5 -46z" />
    <glyph glyph-name="Zcaron" unicode="&#x17d;" horiz-adv-x="1298" 
d="M1229 0h-1149v211l758 969h-752v254h1137v-211l-760 -969h766v-254zM659 1554h-12l-358 261l102 143l262 -154l262 152l103 -141z" />
    <glyph glyph-name="zcaron" unicode="&#x17e;" horiz-adv-x="1019" 
d="M950 233v-233h-880v188l518 643h-508v234h860v-188l-520 -644h530zM504 1206l-359 260l103 144l262 -154l262 152l102 -142l-358 -260h-12z" />
    <glyph glyph-name="uni018F" unicode="&#x18f;" horiz-adv-x="1656" 
d="M827 1464q323 0 535 -215q215 -212 215 -532t-215 -535q-213 -213 -535 -213q-318 0 -534 213q-213 216 -213 535q0 67 8 114h1192q-38 167 -162 267q-123 102 -291 102q-220 0 -358 -170l-272 100q101 157 266 245.5t364 88.5zM827 236q164 0 283 94q123 95 164 248
h-891q40 -152 162 -248q122 -94 282 -94z" />
    <glyph glyph-name="florin" unicode="&#x192;" horiz-adv-x="763" 
d="M-78 -461h-143l43 244h123q57 0 99.5 36.5t53.5 92.5l138 770h-162l39 223h161l52 293q28 148 147 242q125 96 279 96h143l-43 -244h-125q-56 0 -100.5 -37t-51.5 -92l-47 -258h254l-39 -223h-254l-141 -805q-28 -149 -149 -242q-122 -96 -277 -96z" />
    <glyph glyph-name="uni01DD" unicode="&#x1dd;" horiz-adv-x="1236" 
d="M57 627h846q-30 105 -114.5 169t-198.5 64q-158 0 -248 -112l-248 73q72 128 204.5 201.5t291.5 73.5q249 0 411 -162q166 -159 166 -402q0 -242 -161 -403q-160 -160 -398 -160q-234 0 -399 160q-160 165 -160 403q0 59 8 95zM901 428h-588q29 -100 111.5 -161.5
t187.5 -61.5q99 0 178.5 61.5t110.5 161.5z" />
    <glyph glyph-name="Aringacute" unicode="&#x1fa;" horiz-adv-x="1488" 
d="M420 270l-113 -270h-289l609 1419q-56 31 -89.5 86.5t-33.5 122.5q0 101 69 170q72 72 172 72q59 0 111 -27l369 230l114 -226l-362 -155q8 -24 8 -64q0 -67 -33.5 -122.5t-89.5 -86.5l608 -1419h-288l-113 270h-649zM963 522l-218 520l-219 -520h437zM811 1628
q4 41 -31 58.5t-70 0t-32 -58.5q-3 -40 32 -56.5t70 0t31 56.5z" />
    <glyph glyph-name="aringacute" unicode="&#x1fb;" horiz-adv-x="1273" 
d="M588 1096q181 0 323 -115v84h254v-1065h-254v84q-142 -115 -323 -115q-220 0 -371 160q-147 163 -147 403q0 243 147 402q149 162 371 162zM416 752q-82 -88 -82 -220q0 -131 82 -219t205 -88q120 0 202 88q84 90 84 219q0 130 -84 220q-82 88 -202 88q-123 0 -205 -88z
M639 1665q68 0 127 -35l352 219l115 -225l-356 -151q4 -46 4 -50q0 -98 -72 -170q-69 -69 -170 -69t-170 69q-70 70 -70 170t70 171t170 71zM592 1470q-19 -19 -19 -47t19 -47t47 -19t47 19q20 19 20 47t-20 47q-19 20 -47 20t-47 -20z" />
    <glyph glyph-name="AEacute" unicode="&#x1fc;" horiz-adv-x="2101" 
d="M332 0h-314l900 1434h1103v-254h-721v-328h607v-254h-607v-344h732v-254h-1008v270h-526zM653 522h371v600zM1509 1745l-446 -191l-86 156l418 260z" />
    <glyph glyph-name="aeacute" unicode="&#x1fd;" horiz-adv-x="2078" 
d="M588 -31q-220 0 -371 160q-147 163 -147 403q0 243 147 402q149 162 371 162q185 0 323 -117v86h254v-88q140 119 334 119q225 0 377 -162q154 -165 154 -402q0 -54 -9 -94h-845q29 -105 114 -169t197 -64q160 0 250 112l248 -71q-68 -128 -194.5 -202.5t-279.5 -74.5
q-196 0 -346 123v-92h-254v86q-138 -117 -323 -117zM416 752q-82 -88 -82 -220q0 -131 82 -219t205 -88q120 0 202 88q84 90 84 219q0 130 -84 220q-82 88 -202 88q-123 0 -205 -88zM1178 637h587q-29 100 -111.5 161.5t-187.5 61.5q-99 0 -178 -61.5t-110 -161.5z
M1372 1397l-448 -191l-84 156l417 260z" />
    <glyph glyph-name="Oslashacute" unicode="&#x1fe;" horiz-adv-x="1656" 
d="M266 84l53 78q-239 211 -239 555q0 319 213 532q215 215 534 215q180 0 347 -78l55 78l166 -114l-56 -78q238 -218 238 -555q0 -320 -215 -535q-213 -213 -535 -213q-185 0 -342 80l-57 -80zM1178 1040l-537 -768q82 -36 186 -36q199 0 330 137q133 139 133 344
q0 193 -112 323zM481 391l535 770q-85 39 -189 39q-196 0 -329 -139q-131 -137 -131 -344q0 -194 114 -326zM723 1554l-84 156l418 260l114 -225z" />
    <glyph glyph-name="oslashacute" unicode="&#x1ff;" horiz-adv-x="1265" 
d="M633 1096q130 0 237 -49l35 49l160 -115l-31 -45q164 -159 164 -404q0 -241 -162 -403q-165 -160 -403 -160q-138 0 -240 51l-33 -51l-161 115l32 47q-161 154 -161 401q0 243 159 402q162 162 404 162zM877 713l-332 -477q57 -11 88 -11q128 0 213 88q86 89 86 219
q0 99 -55 181zM387 354l332 475q-42 11 -86 11q-128 0 -213 -88q-86 -89 -86 -220q0 -98 53 -178zM528 1206l-84 156l418 260l115 -225z" />
    <glyph glyph-name="uni0218" unicode="&#x218;" horiz-adv-x="1251" 
d="M1116 1143l-274 -80q-18 58 -83 98.5t-149 40.5q-91 0 -154 -44t-63 -107q0 -81 131 -136q48 -20 236 -75q8 -2 27 -7.5t25.5 -7.5t22 -6.5t22 -7t20 -7t22.5 -8.5t21.5 -9.5t25 -12t27.5 -14.5q63 -34 102 -76q40 -42 68 -111.5t28 -148.5q0 -207 -149 -332
q-147 -123 -383 -123q-215 0 -365 99q-151 102 -196 249l274 82q18 -70 97.5 -118t189.5 -48t184 46.5t74 119.5q0 54 -51 101q-21 18 -60 35q-35 17 -114 43q-261 77 -346 122q-207 112 -207 330q0 193 135 313q139 121 352 121q189 0 328 -92q138 -88 182 -229zM823 -270
q0 -158 -194 -269l-2 -2l-64 68q94 73 94 111q-45 11 -76.5 48t-31.5 83q0 54 37.5 90.5t93.5 36.5q63 0 103 -47t40 -119z" />
    <glyph glyph-name="uni0219" unicode="&#x219;" horiz-adv-x="972" 
d="M897 809l-240 -39q-34 104 -186 104q-65 0 -107 -24.5t-42 -67.5q0 -52 94 -86l219 -73q147 -51 212.5 -127.5t65.5 -192.5q0 -161 -115 -247.5t-306 -86.5q-190 0 -304.5 83t-138.5 231l240 34q14 -58 68.5 -92.5t140.5 -34.5q75 0 123.5 28.5t48.5 76.5q0 62 -119 102
l-219 70q-135 44 -194.5 114t-59.5 183q0 163 111 247.5t300 84.5q172 0 280 -76.5t128 -210.5zM680 -270q0 -157 -195 -269l-2 -2l-63 68q94 73 94 111q-45 11 -76.5 48t-31.5 83q0 54 37.5 90.5t93.5 36.5q63 0 103 -47t40 -119z" />
    <glyph glyph-name="uni021A" unicode="&#x21a;" horiz-adv-x="1325" 
d="M524 0v1180h-475v254h1227v-254h-475v-1180h-277zM647 -362q-46 11 -76 47t-30 84q0 54 37 90.5t92 36.5q63 0 103 -47t40 -119q0 -159 -192 -269q0 -2 -3 -2l-65 68q94 73 94 111z" />
    <glyph glyph-name="uni021B" unicode="&#x21b;" horiz-adv-x="741" 
d="M20 842v223h152v209h256v-209h264v-223h-264v-469q0 -56 37 -92.5t94 -36.5h133v-244h-157q-152 0 -259 96q-104 94 -104 240v506h-152zM573 -270q0 -159 -192 -269l-2 -2l-66 68q95 74 95 111q-46 11 -76.5 47t-30.5 84q0 54 37 90.5t92 36.5q63 0 103 -47t40 -119z" />
    <glyph glyph-name="uni0237" unicode="&#x237;" horiz-adv-x="483" 
d="M121 1065h256v-1188q0 -145 -107 -239q-105 -99 -260 -99h-94v244h74q57 0 94 36.5t37 92.5v1153z" />
    <glyph glyph-name="uni0259" unicode="&#x259;" horiz-adv-x="1236" 
d="M57 627h846q-30 105 -114.5 169t-198.5 64q-158 0 -248 -112l-248 73q72 128 204.5 201.5t291.5 73.5q249 0 411 -162q166 -159 166 -402q0 -242 -161 -403q-160 -160 -398 -160q-234 0 -399 160q-160 165 -160 403q0 59 8 95zM901 428h-588q29 -100 111.5 -161.5
t187.5 -61.5q99 0 178.5 61.5t110.5 161.5z" />
    <glyph glyph-name="circumflex" unicode="&#x2c6;" horiz-adv-x="890" 
d="M446 1604l-262 -152l-104 141l358 262h15l358 -262l-104 -139z" />
    <glyph glyph-name="caron" unicode="&#x2c7;" horiz-adv-x="890" 
d="M446 1704l261 149l104 -139l-358 -262h-15l-358 262l104 141z" />
    <glyph glyph-name="breve" unicode="&#x2d8;" horiz-adv-x="827" 
d="M80 1763h199q0 -66 38.5 -109.5t98.5 -43.5t96.5 42.5t36.5 110.5h199q0 -138 -97 -235q-94 -94 -237 -94q-146 0 -240 94t-94 235z" />
    <glyph glyph-name="dotaccent" unicode="&#x2d9;" horiz-adv-x="481" 
d="M242 1763q68 0 113.5 -45t45.5 -114t-45.5 -114.5t-113.5 -45.5q-69 0 -115.5 45.5t-46.5 114.5t46.5 114t115.5 45z" />
    <glyph glyph-name="ring" unicode="&#x2da;" horiz-adv-x="643" 
d="M80 1671q0 100 70 170q72 72 172 72q98 0 170 -72q71 -71 71 -170q0 -101 -71 -172q-69 -69 -170 -69q-103 0 -172 69q-70 70 -70 172zM274 1718q-19 -19 -19 -47.5t19 -48.5q19 -19 47.5 -19t47.5 19q30 30 16 67.5t-47 46.5t-64 -18z" />
    <glyph glyph-name="ogonek" unicode="&#x2db;" horiz-adv-x="614" 
d="M176 -33l33 33h188l-35 -31q-24 -24 -55 -71q-33 -50 -33 -95q0 -69 74 -69q23 0 49 12t39 25l13 12l86 -105l-33 -30q-25 -22 -84 -49q-67 -31 -127 -31q-91 0 -151 53t-60 135q0 53 30 114t66 97z" />
    <glyph glyph-name="tilde" unicode="&#x2dc;" horiz-adv-x="841" 
d="M274 1491h-194q0 100 67 170q72 72 166 72q62 0 121 -39t78 -39q23 0 39 19t16 48h195q0 -103 -68 -174q-66 -69 -164 -69q-64 0 -120 39q-59 41 -76 41q-25 0 -42.5 -19.5t-17.5 -48.5z" />
    <glyph glyph-name="hungarumlaut" unicode="&#x2dd;" horiz-adv-x="1054" 
d="M209 1430l-129 122l295 349l178 -181zM631 1430l-127 122l293 349l178 -181z" />
    <glyph glyph-name="uni0394" unicode="&#x394;" horiz-adv-x="1449" 
d="M1432 0h-1414l594 1434h226zM1042 252l-317 786l-315 -786h632z" />
    <glyph glyph-name="uni03A9" unicode="&#x3a9;" horiz-adv-x="1656" 
d="M80 748q0 305 213 512q213 204 534 204q322 0 535 -207q215 -206 215 -514q0 -287 -193 -489h193v-254h-563v254q126 56 201 177.5t75 273.5q0 212 -133 354q-132 141 -330 141q-197 0 -329 -141q-131 -137 -131 -348q0 -159 82 -283t217 -174v-254h-564v254h172
q-194 206 -194 494z" />
    <glyph glyph-name="uni0400" unicode="&#x400;" horiz-adv-x="1255" 
d="M119 1434h1057v-254h-783v-328h670v-254h-670v-344h793v-254h-1067v1434zM823 1710l-84 -156l-448 191l115 225z" />
    <glyph glyph-name="uni0401" unicode="&#x401;" horiz-adv-x="1255" 
d="M119 1434h1057v-254h-783v-328h670v-254h-670v-344h793v-254h-1067v1434zM862 1542q-63 0 -106 44.5t-43 107.5q0 66 42.5 108.5t106.5 42.5q66 0 110 -42.5t44 -108.5t-44 -109t-110 -43zM276 1694q0 66 43 108.5t109 42.5t109 -42.5t43 -108.5q0 -63 -44.5 -107.5
t-107.5 -44.5t-107.5 44.5t-44.5 107.5z" />
    <glyph glyph-name="uni0402" unicode="&#x402;" horiz-adv-x="1775" 
d="M524 0v1180h-475v254h1227v-254h-475v-295q126 33 274 33q273 0 427.5 -125.5t154.5 -350.5q0 -233 -160 -354q-155 -119 -418 -119l4 254q147 0 222 50.5t75 164.5q0 226 -313 226q-120 0 -266 -35v-629h-277z" />
    <glyph glyph-name="uni0403" unicode="&#x403;" horiz-adv-x="1114" 
d="M393 1180v-1180h-274v1434h944v-254h-670zM915 1745l-448 -191l-84 156l418 260z" />
    <glyph glyph-name="uni0404" unicode="&#x404;" horiz-adv-x="1566" 
d="M827 1464q225 0 402 -110q180 -109 268 -293l-266 -100q-60 111 -167 175t-237 64q-162 0 -284 -98q-121 -96 -162 -252h610v-250h-614q37 -162 160 -264q124 -100 290 -100q130 0 237 63t167 174l266 -100q-88 -183 -268 -295q-180 -109 -402 -109q-318 0 -534 213
q-213 216 -213 535t213 532q215 215 534 215z" />
    <glyph glyph-name="uni0405" unicode="&#x405;" horiz-adv-x="1251" 
d="M1116 1143l-274 -80q-18 58 -83 98.5t-149 40.5q-91 0 -154 -44t-63 -107q0 -81 131 -136q48 -20 236 -75q8 -2 27 -7.5t25.5 -7.5t22 -6.5t22 -7t20 -7t22.5 -8.5t21.5 -9.5t25 -12t27.5 -14.5q63 -34 102 -76q40 -42 68 -111.5t28 -148.5q0 -207 -149 -332
q-147 -123 -383 -123q-215 0 -365 99q-151 102 -196 249l274 82q18 -70 97.5 -118t189.5 -48t184 46.5t74 119.5q0 54 -51 101q-21 18 -60 35q-35 17 -114 43q-261 77 -346 122q-207 112 -207 330q0 193 135 313q139 121 352 121q189 0 328 -92q138 -88 182 -229z" />
    <glyph glyph-name="uni0406" unicode="&#x406;" horiz-adv-x="512" 
d="M393 0h-274v1434h274v-1434z" />
    <glyph glyph-name="uni0407" unicode="&#x407;" horiz-adv-x="512" 
d="M393 0h-274v1434h274v-1434zM-115 1694q0 66 44 108.5t110 42.5t108.5 -42.5t42.5 -108.5q0 -63 -44 -107.5t-107 -44.5q-65 0 -109.5 44t-44.5 108zM322 1694q0 65 43.5 108t107.5 43q66 0 110 -42.5t44 -108.5t-44 -109t-110 -43q-63 0 -107 44.5t-44 107.5z" />
    <glyph glyph-name="uni0408" unicode="&#x408;" horiz-adv-x="1191" 
d="M1092 1434v-910q0 -238 -164 -397q-166 -158 -412 -158q-154 0 -282.5 67t-204.5 185l229 148q37 -68 106.5 -107t155.5 -39q130 0 219 86q88 88 88 215v910h265z" />
    <glyph glyph-name="uni0409" unicode="&#x409;" horiz-adv-x="2281" 
d="M80 0h-62v254h62q94 0 147 102q54 108 54 381v697h1058v-508h367q212 0 354 -133t142 -330q0 -198 -144 -330q-142 -133 -352 -133h-641v1180h-508v-443q0 -386 -129 -561q-129 -176 -348 -176zM1339 672v-418h367q88 0 148.5 59.5t60.5 149.5q0 91 -59 150t-150 59h-367
z" />
    <glyph glyph-name="uni040A" unicode="&#x40a;" horiz-adv-x="2314" 
d="M393 0h-274v1434h274v-549h703v549h276v-549h367q210 0 352 -127q143 -125 143 -316q0 -190 -143 -315q-142 -127 -352 -127h-643v631h-703v-631zM1739 631h-367v-377h367q88 0 148.5 54.5t60.5 133.5q0 82 -59 135.5t-150 53.5z" />
    <glyph glyph-name="uni040B" unicode="&#x40b;" horiz-adv-x="1775" 
d="M524 0v1180h-475v254h1227v-254h-475v-287q137 25 250 25q288 0 447 -125.5t159 -356.5v-436h-277v436q0 228 -329 228q-124 0 -250 -27v-637h-277z" />
    <glyph glyph-name="uni040C" unicode="&#x40c;" horiz-adv-x="1341" 
d="M393 0h-274v1434h274v-639l541 639h348l-592 -701l633 -733h-348l-582 674v-674zM1004 1745l-447 -191l-86 156l418 260z" />
    <glyph glyph-name="uni040D" unicode="&#x40d;" horiz-adv-x="1501" 
d="M119 0v1434h274v-973l735 973h254v-1434h-276v967l-733 -967h-254zM930 1710l-86 -156l-447 191l113 225z" />
    <glyph glyph-name="uni040E" unicode="&#x40e;" horiz-adv-x="1429" 
d="M604 387l-586 1047h304l428 -775l366 775h293l-483 -1018q-103 -214 -233.5 -315t-307.5 -101h-137v254h117q144 0 239 133zM717 1534q-165 0 -271 100t-106 252h217q0 -61 45 -102t113 -41q66 0 110.5 41t44.5 102h217q0 -152 -106 -252t-264 -100z" />
    <glyph glyph-name="uni040F" unicode="&#x40f;" horiz-adv-x="1470" 
d="M119 0v1434h274v-1180h684v1180h275v-1434h-480v-348h-274v348h-479z" />
    <glyph glyph-name="uni0410" unicode="&#x410;" horiz-adv-x="1488" 
d="M307 0h-289l615 1434h223l614 -1434h-288l-113 270h-649zM963 522l-218 520l-219 -520h437z" />
    <glyph glyph-name="uni0411" unicode="&#x411;" horiz-adv-x="1345" 
d="M119 1434h1009v-254h-735v-256h369q212 0 354 -133q141 -132 141 -330q0 -199 -143 -330q-140 -131 -352 -131h-643v1434zM393 670v-416h369q88 0 148.5 59.5t60.5 147.5t-59.5 148.5t-149.5 60.5h-369z" />
    <glyph glyph-name="uni0412" unicode="&#x412;" horiz-adv-x="1396" 
d="M854 0h-735v1434h694q190 0 315 -113q127 -112 127 -279q0 -173 -139 -288q201 -121 201 -344q0 -172 -133 -293q-132 -117 -330 -117zM854 610h-461v-356h461q75 0 125.5 51.5t50.5 126.5t-50.5 126.5t-125.5 51.5zM813 1180h-420v-318h420q68 0 113 45.5t45 114.5
q0 68 -45.5 113t-112.5 45z" />
    <glyph glyph-name="uni0413" unicode="&#x413;" horiz-adv-x="1114" 
d="M393 1180v-1180h-274v1434h944v-254h-670z" />
    <glyph glyph-name="uni0414" unicode="&#x414;" horiz-adv-x="1681" 
d="M315 0v-348h-274v602h166q141 56 141 477v703h1069v-1180h223v-602h-274v348h-1051zM535 254h608v926h-518v-439q0 -302 -90 -487z" />
    <glyph glyph-name="uni0415" unicode="&#x415;" horiz-adv-x="1255" 
d="M119 1434h1057v-254h-783v-328h670v-254h-670v-344h793v-254h-1067v1434z" />
    <glyph glyph-name="uni0416" unicode="&#x416;" horiz-adv-x="2076" 
d="M360 0h-342l592 733l-551 701h342l502 -641v641h275v-635l499 635h340l-551 -701l592 -733h-340l-540 670v-670h-275v674z" />
    <glyph glyph-name="uni0417" unicode="&#x417;" horiz-adv-x="1325" 
d="M666 -31q-213 0 -366.5 95.5t-229.5 265.5l268 100q89 -194 326 -194q131 0 212.5 54t81.5 142q0 74 -57 126t-139 52h-273v252h269q73 0 121.5 45.5t48.5 112.5q0 80 -74 130t-192 50q-232 0 -314 -196l-268 100q75 170 225.5 265t360.5 95q241 0 393 -116
q155 -116 155 -297q0 -198 -167 -310q196 -123 196 -338q0 -188 -164 -311q-163 -123 -413 -123z" />
    <glyph glyph-name="uni0418" unicode="&#x418;" horiz-adv-x="1501" 
d="M373 0h-254v1434h274v-973l735 973h254v-1434h-276v967z" />
    <glyph glyph-name="uni0419" unicode="&#x419;" horiz-adv-x="1501" 
d="M1106 967l-733 -967h-254v1434h274v-973l735 973h254v-1434h-276v967zM387 1886h217q0 -61 45 -102t113 -41q66 0 111 41t45 102h217q0 -151 -107 -252q-106 -100 -264 -100q-164 0 -270 100q-107 101 -107 252z" />
    <glyph glyph-name="uni041A" unicode="&#x41a;" horiz-adv-x="1341" 
d="M119 0v1434h274v-639l541 639h348l-592 -701l633 -733h-348l-582 674v-674h-274z" />
    <glyph glyph-name="uni041B" unicode="&#x41b;" horiz-adv-x="1458" 
d="M80 0h-62v254h62q96 0 149 102q54 108 54 381v697h1058v-1434h-276v1180h-508v-443q0 -386 -129 -561q-129 -176 -348 -176z" />
    <glyph glyph-name="uni041C" unicode="&#x41c;" horiz-adv-x="1812" 
d="M393 0h-274v1434h274l514 -906l512 906h275v-1434h-275v913l-422 -751h-182l-422 749v-911z" />
    <glyph glyph-name="uni041D" unicode="&#x41d;" horiz-adv-x="1490" 
d="M393 0h-274v1434h274v-582h703v582h276v-1434h-276v598h-703v-598z" />
    <glyph glyph-name="uni041E" unicode="&#x41e;" horiz-adv-x="1656" 
d="M827 1464q323 0 535 -215q215 -212 215 -532t-215 -535q-213 -213 -535 -213q-318 0 -534 213q-213 216 -213 535t213 532q215 215 534 215zM367 717q0 -207 131 -344t329 -137q199 0 330 137q133 139 133 344t-133 344t-330 139q-196 0 -329 -139q-131 -137 -131 -344z
" />
    <glyph glyph-name="uni041F" unicode="&#x41f;" horiz-adv-x="1490" 
d="M393 1180v-1180h-274v1434h1253v-1434h-276v1180h-703z" />
    <glyph glyph-name="uni0420" unicode="&#x420;" horiz-adv-x="1335" 
d="M393 506v-506h-274v1434h643q209 0 352 -134q143 -131 143 -329q0 -201 -143 -332q-142 -133 -352 -133h-369zM762 1180h-369v-420h369q91 0 150 60t59 151t-59 150t-150 59z" />
    <glyph glyph-name="uni0421" unicode="&#x421;" horiz-adv-x="1566" 
d="M827 1464q225 0 402 -110q180 -109 268 -293l-266 -100q-60 111 -167 175t-237 64q-196 0 -329 -139q-131 -137 -131 -344t131 -344t329 -137q130 0 237 63t167 174l266 -100q-88 -183 -268 -295q-180 -109 -402 -109q-318 0 -534 213q-213 216 -213 535t213 532
q215 215 534 215z" />
    <glyph glyph-name="uni0422" unicode="&#x422;" horiz-adv-x="1325" 
d="M524 1180h-475v254h1227v-254h-475v-1180h-277v1180z" />
    <glyph glyph-name="uni0423" unicode="&#x423;" horiz-adv-x="1429" 
d="M604 387l-586 1047h304l428 -775l366 775h293l-483 -1018q-103 -214 -233.5 -315t-307.5 -101h-137v254h117q144 0 239 133z" />
    <glyph glyph-name="uni0424" unicode="&#x424;" horiz-adv-x="1771" 
d="M748 1321v143h276v-143q287 -3 475 -176q193 -172 193 -428q0 -255 -193 -430q-189 -171 -475 -174v-144h-276v144q-286 3 -478 174q-190 175 -190 430q0 256 190 428q191 173 478 176zM1024 1057v-680q160 0 270 96q111 99 111 244q0 146 -109 241q-108 99 -272 99z
M748 377v680q-165 0 -273 -99q-108 -94 -108 -241q0 -145 108 -244q113 -96 273 -96z" />
    <glyph glyph-name="uni0425" unicode="&#x425;" horiz-adv-x="1427" 
d="M551 731l-512 703h330l346 -478l346 478h328l-510 -703l530 -731h-328l-366 506l-367 -506h-330z" />
    <glyph glyph-name="uni0426" unicode="&#x426;" horiz-adv-x="1615" 
d="M119 0v1434h274v-1180h684v1180h275v-1180h225v-602h-277v348h-1181z" />
    <glyph glyph-name="uni0427" unicode="&#x427;" horiz-adv-x="1378" 
d="M688 516q-291 0 -454.5 126.5t-163.5 354.5v437h274v-437q0 -227 340 -227q156 0 301 37v627h275v-1434h-275v551q-149 -35 -297 -35z" />
    <glyph glyph-name="uni0428" unicode="&#x428;" horiz-adv-x="2142" 
d="M119 0v1434h274v-1180h531v1180h274v-1180h551v1180h274v-1434h-1904z" />
    <glyph glyph-name="uni0429" unicode="&#x429;" horiz-adv-x="2287" 
d="M119 1434h274v-1180h531v1180h274v-1180h551v1180h274v-1180h226v-602h-277v348h-1853v1434z" />
    <glyph glyph-name="uni042A" unicode="&#x42a;" horiz-adv-x="1722" 
d="M506 0v1180h-457v254h731v-508h369q210 0 352 -133q141 -132 141 -330t-141 -330q-142 -133 -352 -133h-643zM780 672v-418h369q88 0 148.5 59.5t60.5 149.5q0 91 -59 150t-150 59h-369z" />
    <glyph glyph-name="uni042B" unicode="&#x42b;" horiz-adv-x="1808" 
d="M762 0h-643v1434h274v-508h369q212 0 354 -133q141 -132 141 -330q0 -199 -143 -330q-142 -133 -352 -133zM1690 0h-277v1434h277v-1434zM393 672v-418h369q91 0 150 59t59 150q0 86 -54.5 144.5t-136.5 64.5h-18h-369z" />
    <glyph glyph-name="uni042C" unicode="&#x42c;" horiz-adv-x="1335" 
d="M119 0v1434h274v-508h369q212 0 354 -133q141 -132 141 -330q0 -199 -143 -330q-142 -133 -352 -133h-643zM393 672v-418h369q84 0 142.5 54t66.5 136q0 102 -56 165t-153 63h-369z" />
    <glyph glyph-name="uni042D" unicode="&#x42d;" horiz-adv-x="1566" 
d="M70 373l266 100q60 -111 166.5 -174t236.5 -63q168 0 289 100q125 101 162 264h-555v250h551q-41 157 -164 252q-119 98 -283 98q-129 0 -235.5 -64t-167.5 -175l-266 100q93 186 271 294.5t398 108.5q321 0 533 -215q215 -212 215 -532t-215 -535q-213 -213 -533 -213
q-219 0 -397.5 109t-271.5 295z" />
    <glyph glyph-name="uni042E" unicode="&#x42e;" horiz-adv-x="2177" 
d="M119 0v1434h274v-582h219q47 269 248 440q205 172 490 172q320 0 532 -215q215 -212 215 -532t-215 -535q-213 -213 -532 -213q-290 0 -496 176q-205 175 -246 453h-215v-598h-274zM1350 236q196 0 327 137q133 139 133 344t-133 344t-327 139q-199 0 -332 -139
q-131 -137 -131 -344t131 -344t332 -137z" />
    <glyph glyph-name="uni042F" unicode="&#x42f;" horiz-adv-x="1384" 
d="M690 508l-303 -508h-307l323 545q-135 51 -214.5 165.5t-79.5 260.5q0 197 141 329q143 134 352 134h664v-1434h-277v508h-299zM602 762h387v418h-387q-91 0 -150 -59t-59 -150t59 -150t150 -59z" />
    <glyph glyph-name="uni0430" unicode="&#x430;" horiz-adv-x="1273" 
d="M588 1096q181 0 323 -115v84h254v-1065h-254v84q-142 -115 -323 -115q-220 0 -371 160q-147 163 -147 403q0 243 147 402q149 162 371 162zM823 752q-82 88 -202 88q-123 0 -205 -88t-82 -220q0 -131 82 -219t205 -88q120 0 202 88q84 90 84 219q0 130 -84 220z" />
    <glyph glyph-name="uni0431" unicode="&#x431;" horiz-adv-x="1308" 
d="M80 766q0 357 161.5 543t508.5 223l356 35v-256l-352 -35q-395 -44 -422 -365q126 185 366 185q227 0 383 -164q158 -166 158 -404q0 -234 -160 -399q-157 -160 -395 -160q-98 0 -185.5 29t-164.5 92t-133 154.5t-88.5 225t-32.5 296.5zM686 223q123 0 205 88
q84 90 84 221q0 130 -84 220t-205 90q-123 0 -207 -90t-84 -220q0 -131 84 -221q82 -88 207 -88z" />
    <glyph glyph-name="uni0432" unicode="&#x432;" horiz-adv-x="1128" 
d="M109 1065h573q144 0 238 -76q99 -77 108 -190q2 -6 2 -25q0 -125 -94 -207q143 -85 143 -241q0 -144 -102 -236q-104 -90 -254 -90h-614v1065zM362 446v-204h359q58 -6 82 48t0 108t-82 48h-359zM682 823h-320v-170h320q37 0 60.5 24t23.5 62q0 37 -23.5 60.5t-60.5 23.5
z" />
    <glyph glyph-name="uni0433" unicode="&#x433;" horiz-adv-x="823" 
d="M362 821v-821h-253v1065h696v-244h-443z" />
    <glyph glyph-name="uni0434" unicode="&#x434;" horiz-adv-x="1372" 
d="M283 -307h-254v551h172q63 81 63 352v469h889v-821h190v-551h-253v307h-807v-307zM463 244h436v577h-381v-243q0 -197 -55 -334z" />
    <glyph glyph-name="uni0435" unicode="&#x435;" horiz-adv-x="1236" 
d="M1180 438h-846q29 -105 114 -169t197 -64q160 0 250 112l248 -71q-74 -129 -206 -203t-292 -74q-244 0 -412 160q-163 163 -163 403q0 243 159 402q162 162 400 162q239 0 397 -162q162 -162 162 -402q0 -39 -8 -94zM336 637h588q-31 100 -113 161.5t-186 61.5
q-100 0 -180 -61.5t-109 -161.5z" />
    <glyph glyph-name="uni0436" unicode="&#x436;" horiz-adv-x="1609" 
d="M322 0h-304l406 551l-358 514h296l316 -447v447h254v-447l315 447h297l-358 -514l403 -551h-301l-356 487v-487h-254v487z" />
    <glyph glyph-name="uni0437" unicode="&#x437;" horiz-adv-x="1089" 
d="M49 289l256 65q47 -141 232 -141q99 0 164 38.5t65 98.5q0 39 -29 65.5t-71 26.5h-263v207h250q39 0 65.5 23.5t26.5 58.5q0 51 -58.5 86t-145.5 35q-183 0 -230 -141l-256 65q44 146 180 233t320 87q193 0 326 -95q131 -94 131 -235q0 -130 -113 -215q131 -88 131 -236
q0 -144 -139 -247q-138 -99 -346 -99q-186 0 -319.5 86t-176.5 234z" />
    <glyph glyph-name="uni0438" unicode="&#x438;" horiz-adv-x="1224" 
d="M862 635l-540 -635h-213v1065h253v-641l541 641h213v-1065h-254v635z" />
    <glyph glyph-name="uni0439" unicode="&#x439;" horiz-adv-x="1224" 
d="M109 0v1065h253v-641l541 641h213v-1065h-254v635l-540 -635h-213zM250 1511h207q0 -66 44.5 -108.5t112.5 -42.5q66 0 109 42.5t43 108.5h209q0 -147 -105 -249q-101 -101 -256 -101q-156 0 -260 101t-104 249z" />
    <glyph glyph-name="uni043A" unicode="&#x43a;" horiz-adv-x="1114" 
d="M362 522v-522h-253v1065h253v-485l379 485h310l-400 -514l445 -551h-314z" />
    <glyph glyph-name="uni043B" unicode="&#x43b;" horiz-adv-x="1212" 
d="M113 0h-84v244h65q44 0 71.5 29.5t42.5 105t15 203.5v483h881v-1065h-254v821h-373v-295q0 -263 -96.5 -394.5t-267.5 -131.5z" />
    <glyph glyph-name="uni043C" unicode="&#x43c;" horiz-adv-x="1423" 
d="M362 590v-590h-253v1065h253l351 -602l348 602h254v-1065h-254v590l-270 -467h-158z" />
    <glyph glyph-name="uni043D" unicode="&#x43d;" horiz-adv-x="1224" 
d="M362 420v-420h-253v1065h253v-401h500v401h254v-1065h-254v420h-500z" />
    <glyph glyph-name="uni043E" unicode="&#x43e;" horiz-adv-x="1265" 
d="M229 129q-159 163 -159 403q0 243 159 402q162 162 404 162q241 0 403 -162q162 -158 162 -402q0 -241 -162 -403q-165 -160 -403 -160q-239 0 -404 160zM420 752q-86 -89 -86 -220q0 -130 86 -219q85 -88 213 -88t213 88q86 89 86 219q0 131 -86 220q-85 88 -213 88
t-213 -88z" />
    <glyph glyph-name="uni043F" unicode="&#x43f;" horiz-adv-x="1204" 
d="M362 821v-821h-253v1065h987v-1065h-254v821h-480z" />
    <glyph glyph-name="uni0440" unicode="&#x440;" horiz-adv-x="1273" 
d="M365 -461h-256v1526h256v-84q142 115 321 115q222 0 371 -162q149 -158 149 -402q0 -241 -149 -403q-151 -160 -371 -160q-179 0 -321 115v-545zM856 752q-82 88 -203 88q-120 0 -202 -88t-82 -220q0 -131 82 -219t202 -88q121 0 203 88q84 90 84 219q0 130 -84 220z" />
    <glyph glyph-name="uni0441" unicode="&#x441;" horiz-adv-x="1208" 
d="M1159 743l-256 -75q-35 80 -107.5 126t-162.5 46q-128 0 -213 -88q-86 -89 -86 -220q0 -130 86 -219q85 -88 213 -88q90 0 162.5 46t107.5 126l256 -75q-62 -161 -203.5 -257t-322.5 -96q-239 0 -404 160q-159 163 -159 403q0 243 159 402q162 162 404 162
q181 0 322.5 -96t203.5 -257z" />
    <glyph glyph-name="uni0442" unicode="&#x442;" horiz-adv-x="1001" 
d="M375 0v821h-355v244h961v-244h-352v-821h-254z" />
    <glyph glyph-name="uni0443" unicode="&#x443;" horiz-adv-x="1116" 
d="M399 -53l29 73l-410 1045h265l272 -719l279 719h264l-482 -1204q-68 -168 -178 -245t-286 -77h-41v244h41q182 0 247 164z" />
    <glyph glyph-name="uni0444" unicode="&#x444;" horiz-adv-x="1640" 
d="M997 -31h-32h-17v-430h-254v430h-16h-35q-238 0 -403 160q-160 165 -160 403q0 242 160 402q162 162 403 162h35h16v440h254v-440h17h32q244 0 402 -162q162 -158 162 -402q0 -241 -162 -403q-160 -160 -402 -160zM643 842q-128 0 -215 -90q-84 -90 -84 -220
q0 -131 84 -221q85 -88 215 -88q5 0 51 4v613q-10 2 -51 2zM997 842q-39 0 -49 -2v-613q36 -4 49 -4q131 0 213 88q86 89 86 221q0 131 -86 220q-84 90 -213 90z" />
    <glyph glyph-name="uni0445" unicode="&#x445;" horiz-adv-x="1140" 
d="M821 0l-252 344l-250 -344h-301l400 547l-377 518h299l229 -315l232 315h299l-379 -518l399 -547h-299z" />
    <glyph glyph-name="uni0446" unicode="&#x446;" horiz-adv-x="1304" 
d="M109 0v1065h253v-821h469v821h254v-821h189v-551h-254v307h-911z" />
    <glyph glyph-name="uni0447" unicode="&#x447;" horiz-adv-x="1122" 
d="M70 725v340h264v-338q0 -119 180 -119q70 0 246 21v436h254v-1065h-254v385q-173 -20 -260 -20q-199 0 -314 100q-116 101 -116 260z" />
    <glyph glyph-name="uni0448" unicode="&#x448;" horiz-adv-x="1736" 
d="M109 0v1065h253v-821h379v821h254v-821h379v821h254v-1065h-1519z" />
    <glyph glyph-name="uni0449" unicode="&#x449;" horiz-adv-x="1847" 
d="M109 1065h253v-821h379v821h254v-821h379v821h254v-821h189v-551h-254v307h-1454v1065z" />
    <glyph glyph-name="uni044A" unicode="&#x44a;" horiz-adv-x="1349" 
d="M375 0v821h-357v244h611v-342h299q158 0 266 -105q106 -100 106 -258q0 -155 -106 -258q-108 -102 -266 -102h-553zM928 479h-299v-235h299q45 0 76.5 33.5t31.5 82.5q0 51 -30.5 85t-77.5 34z" />
    <glyph glyph-name="uni044B" unicode="&#x44b;" horiz-adv-x="1511" 
d="M109 0v1065h253v-342h302q156 0 264 -105q106 -100 106 -258q0 -155 -106 -258q-108 -102 -264 -102h-555zM1403 0h-254v1065h254v-1065zM672 479h-10h-300v-235h300q45 0 76.5 33.5t31.5 82.5q0 47 -27.5 81t-70.5 38z" />
    <glyph glyph-name="uni044C" unicode="&#x44c;" horiz-adv-x="1083" 
d="M664 0h-555v1065h253v-342h302q156 0 264 -105q106 -100 106 -258q0 -155 -106 -258q-108 -102 -264 -102zM362 479v-235h300q45 0 76.5 33.5t31.5 82.5q0 47 -27.5 81t-70.5 38h-10h-300z" />
    <glyph glyph-name="uni044D" unicode="&#x44d;" horiz-adv-x="1208" 
d="M49 319l256 76q36 -79 108 -125.5t162 -46.5q99 0 176.5 56t106.5 149h-391v225h385q-32 87 -106.5 138t-170.5 51q-92 0 -163 -46t-107 -126l-256 75q62 161 203 256t323 95q244 0 402 -162q162 -158 162 -402q0 -241 -162 -403q-160 -160 -402 -160q-182 0 -323 94.5
t-203 255.5z" />
    <glyph glyph-name="uni044E" unicode="&#x44e;" horiz-adv-x="1718" 
d="M109 0v1065h253v-401h195q40 190 188 311q151 121 351 121q240 0 395 -162q158 -161 158 -402q0 -237 -158 -403q-157 -160 -395 -160q-208 0 -357 125q-148 124 -186 326h-191v-420h-253zM1300 752q-84 90 -204 90q-123 0 -207 -90q-82 -88 -82 -220q0 -133 82 -221
t207 -88q122 0 204 88q84 90 84 221q0 130 -84 220z" />
    <glyph glyph-name="uni044F" unicode="&#x44f;" horiz-adv-x="1155" 
d="M356 0h-297l256 365q-107 39 -171 130.5t-64 209.5q0 156 106 256q107 104 267 104h594v-1065h-254v342h-195zM346 705q0 -51 31 -85t76 -34h340v235h-340q-45 0 -76 -33.5t-31 -82.5z" />
    <glyph glyph-name="uni0450" unicode="&#x450;" horiz-adv-x="1236" 
d="M1180 438h-846q29 -105 114 -169t197 -64q160 0 250 112l248 -71q-74 -129 -206 -203t-292 -74q-244 0 -412 160q-163 163 -163 403q0 243 159 402q162 162 400 162q239 0 397 -162q162 -162 162 -402q0 -39 -8 -94zM336 637h588q-31 100 -113 161.5t-186 61.5
q-100 0 -180 -61.5t-109 -161.5zM723 1206l-449 191l115 225l418 -260z" />
    <glyph glyph-name="uni0451" unicode="&#x451;" horiz-adv-x="1236" 
d="M1180 438h-846q29 -105 114 -169t197 -64q160 0 250 112l248 -71q-74 -129 -206 -203t-292 -74q-244 0 -412 160q-163 163 -163 403q0 243 159 402q162 162 400 162q239 0 397 -162q162 -162 162 -402q0 -39 -8 -94zM336 637h588q-31 100 -113 161.5t-186 61.5
q-100 0 -180 -61.5t-109 -161.5zM258 1346q0 66 44 108.5t110 42.5t108.5 -42.5t42.5 -108.5q0 -63 -44 -107.5t-107 -44.5q-66 0 -110 44t-44 108zM694 1346q0 65 44 108t108 43q66 0 109.5 -42.5t43.5 -108.5t-43.5 -109t-109.5 -43q-63 0 -107.5 44.5t-44.5 107.5z" />
    <glyph glyph-name="uni0452" unicode="&#x452;" horiz-adv-x="1232" 
d="M367 1536v-162h342v-188h-342v-250q121 160 329 160q189 0 308 -119q122 -119 122 -297v-803q0 -146 -106 -239q-105 -99 -260 -99h-94v244h73q56 0 93.5 37t37.5 92v696q0 104 -72 174t-180 70t-179.5 -69.5t-71.5 -174.5v-608h-256v1186h-101v188h101v162h256z" />
    <glyph glyph-name="uni0453" unicode="&#x453;" horiz-adv-x="823" 
d="M362 821v-821h-253v1065h696v-244h-443zM801 1397l-447 -191l-86 156l418 260z" />
    <glyph glyph-name="uni0454" unicode="&#x454;" horiz-adv-x="1208" 
d="M635 -31q-239 0 -404 160q-161 161 -161 403q0 245 161 402q162 162 404 162q176 0 321 -97q141 -93 205 -254l-256 -75q-35 80 -107.5 126t-162.5 46q-96 0 -169.5 -51t-109.5 -138h426v-225h-432q31 -93 108.5 -149t176.5 -56q90 0 161.5 46.5t108.5 125.5l256 -76
q-63 -160 -205 -253q-145 -97 -321 -97z" />
    <glyph glyph-name="uni0455" unicode="&#x455;" horiz-adv-x="972" 
d="M897 809l-240 -39q-34 104 -186 104q-65 0 -107 -24.5t-42 -67.5q0 -52 94 -86l219 -73q147 -51 212.5 -127.5t65.5 -192.5q0 -161 -115 -247.5t-306 -86.5q-190 0 -304.5 83t-138.5 231l240 34q14 -58 68.5 -92.5t140.5 -34.5q75 0 123.5 28.5t48.5 76.5q0 62 -119 102
l-219 70q-135 44 -194.5 114t-59.5 183q0 163 111 247.5t300 84.5q172 0 280 -76.5t128 -210.5z" />
    <glyph glyph-name="uni0456" unicode="&#x456;" horiz-adv-x="473" 
d="M365 0h-256v1065h256v-1065zM236 1159q-69 0 -115.5 47.5t-46.5 116.5t46.5 115.5t115.5 46.5t116 -46.5t47 -115.5q0 -70 -46 -117t-117 -47z" />
    <glyph glyph-name="uni0457" unicode="&#x457;" horiz-adv-x="475" 
d="M365 0h-254v1065h254v-1065zM-55 1237q-44 44 -44 108t44 107q43 44 106.5 44t106.5 -44q44 -43 44 -107t-44 -108q-43 -43 -106.5 -43t-106.5 43zM315 1237q-43 44 -43 108t43 107q44 44 108 44t107 -44q44 -43 44 -107t-44 -108q-43 -43 -107 -43t-108 43z" />
    <glyph glyph-name="uni0458" unicode="&#x458;" horiz-adv-x="483" 
d="M121 1065h256v-1188q0 -145 -107 -239q-105 -99 -260 -99h-94v244h74q57 0 94 36.5t37 92.5v1153zM248 1159q-69 0 -115.5 47.5t-46.5 116.5t46.5 115.5t115.5 46.5t116.5 -46.5t47.5 -115.5q0 -70 -46.5 -117t-117.5 -47z" />
    <glyph glyph-name="uni0459" unicode="&#x459;" horiz-adv-x="1824" 
d="M113 0h-84v244h65q44 0 71.5 29.5t42.5 105t15 203.5v483h881v-342h299q158 0 266 -105q107 -101 107 -258q0 -154 -107 -258q-108 -102 -266 -102h-553v821h-373v-295q0 -263 -96.5 -394.5t-267.5 -131.5zM1403 479h-299v-235h299q45 0 76.5 33.5t31.5 82.5
q0 51 -30.5 85t-77.5 34z" />
    <glyph glyph-name="uni045A" unicode="&#x45a;" horiz-adv-x="1835" 
d="M109 0v1065h253v-373h500v373h254v-369h299q160 0 264 -98q107 -98 107 -248q0 -151 -107 -252q-104 -98 -264 -98h-553v449h-500v-449h-253zM1116 455v-211h299q44 0 75.5 31t31.5 75t-31.5 74.5t-75.5 30.5h-299z" />
    <glyph glyph-name="uni045B" unicode="&#x45b;" horiz-adv-x="1232" 
d="M367 1536v-162h342v-188h-342v-250q121 160 329 160q189 0 308 -119q122 -119 122 -297v-680h-256v608q0 104 -72 174t-180 70t-179.5 -69.5t-71.5 -174.5v-608h-256v1186h-101v188h101v162h256z" />
    <glyph glyph-name="uni045C" unicode="&#x45c;" horiz-adv-x="1114" 
d="M362 522v-522h-253v1065h253v-485l379 485h310l-400 -514l445 -551h-314zM885 1397l-447 -191l-86 156l418 260z" />
    <glyph glyph-name="uni045D" unicode="&#x45d;" horiz-adv-x="1224" 
d="M862 635l-540 -635h-213v1065h253v-641l541 641h213v-1065h-254v635zM791 1362l-86 -156l-447 191l113 225z" />
    <glyph glyph-name="uni045E" unicode="&#x45e;" horiz-adv-x="1116" 
d="M428 20l-410 1045h265l272 -719l279 719h264l-482 -1204q-68 -168 -178 -245t-286 -77h-41v244h41q182 0 247 164zM195 1511h208q0 -66 45 -108.5t113 -42.5q66 0 109 42.5t43 108.5h209q0 -147 -105 -249q-101 -101 -256 -101q-158 0 -262 101t-104 249z" />
    <glyph glyph-name="uni045F" unicode="&#x45f;" horiz-adv-x="1193" 
d="M109 0v1065h253v-821h469v821h254v-1065h-366v-307h-254v307h-356z" />
    <glyph glyph-name="uni0490" unicode="&#x490;" horiz-adv-x="1073" 
d="M393 1180v-1180h-274v1434h629v301h274v-555h-629z" />
    <glyph glyph-name="uni0491" unicode="&#x491;" horiz-adv-x="835" 
d="M362 821v-821h-253v1065h454v244h254v-488h-455z" />
    <glyph glyph-name="uni04D8" unicode="&#x4d8;" horiz-adv-x="1656" 
d="M827 1464q323 0 535 -215q215 -212 215 -532t-215 -535q-213 -213 -535 -213q-318 0 -534 213q-213 216 -213 535q0 67 8 114h1192q-38 167 -162 267q-123 102 -291 102q-220 0 -358 -170l-272 100q101 157 266 245.5t364 88.5zM827 236q164 0 283 94q123 95 164 248
h-891q40 -152 162 -248q122 -94 282 -94z" />
    <glyph glyph-name="uni04D9" unicode="&#x4d9;" horiz-adv-x="1236" 
d="M57 627h846q-30 105 -114.5 169t-198.5 64q-158 0 -248 -112l-248 73q72 128 204.5 201.5t291.5 73.5q249 0 411 -162q166 -159 166 -402q0 -242 -161 -403q-160 -160 -398 -160q-234 0 -399 160q-160 165 -160 403q0 59 8 95zM901 428h-588q29 -100 111.5 -161.5
t187.5 -61.5q99 0 178.5 61.5t110.5 161.5z" />
    <glyph glyph-name="Wgrave" unicode="&#x1e80;" horiz-adv-x="2058" 
d="M729 0h-225l-486 1434h283l313 -994l304 994h225l305 -994l311 994h281l-486 -1434h-223l-301 958zM788 1970l418 -260l-84 -156l-446 191z" />
    <glyph glyph-name="wgrave" unicode="&#x1e81;" horiz-adv-x="1595" 
d="M367 0l-349 1065h258l203 -670l203 670h231l203 -670l203 670h256l-346 -1065h-230l-200 641l-203 -641h-229zM557 1622l418 -260l-84 -156l-447 191z" />
    <glyph glyph-name="Wacute" unicode="&#x1e82;" horiz-adv-x="2058" 
d="M729 0h-225l-486 1434h283l313 -994l304 994h225l305 -994l311 994h281l-486 -1434h-223l-301 958zM1372 1745l-446 -191l-84 156l418 260z" />
    <glyph glyph-name="wacute" unicode="&#x1e83;" horiz-adv-x="1595" 
d="M367 0l-349 1065h258l203 -670l203 670h231l203 -670l203 670h256l-346 -1065h-230l-200 641l-203 -641h-229zM1141 1397l-447 -191l-84 156l418 260z" />
    <glyph glyph-name="Wdieresis" unicode="&#x1e84;" horiz-adv-x="2058" 
d="M729 0h-225l-486 1434h283l313 -994l304 994h225l305 -994l311 994h281l-486 -1434h-223l-301 958zM813 1845q64 0 108 -43t44 -108q0 -63 -44.5 -107.5t-107.5 -44.5q-66 0 -110 43t-44 109t44 108.5t110 42.5zM1096 1708q3 27 10 41q35 96 141 96q66 0 110 -42.5
t44 -108.5q0 -64 -44.5 -108t-109.5 -44q-70 0 -110.5 46t-40.5 120z" />
    <glyph glyph-name="wdieresis" unicode="&#x1e85;" horiz-adv-x="1595" 
d="M367 0l-349 1065h258l203 -670l203 670h231l203 -670l203 670h256l-346 -1065h-230l-200 641l-203 -641h-229zM864 1346q0 66 43 108.5t109 42.5t109.5 -42.5t43.5 -108.5q0 -64 -44 -108t-109 -44t-108.5 44t-43.5 108zM582 1497q64 0 107.5 -43t43.5 -108
q0 -63 -44 -107.5t-107 -44.5q-66 0 -110 43t-44 109t44 108.5t110 42.5z" />
    <glyph glyph-name="Germandbls" unicode="&#x1e9e;" horiz-adv-x="1355" 
d="M383 887v-887h-264v891q0 232 162 387q163 156 405 156h563v-181l-211 -352q109 -47 179 -166q71 -118 71 -252q0 -216 -182 -366q-183 -148 -453 -148v267q153 0 256 71t103 180q0 110 -107 183t-266 73l264 437h-219q-125 0 -215 -84q-86 -83 -86 -209z" />
    <glyph glyph-name="Ygrave" unicode="&#x1ef2;" horiz-adv-x="1406" 
d="M563 0v586l-545 848h318l362 -590l375 590h316l-551 -840v-594h-275zM883 1710l-86 -156l-447 191l115 225z" />
    <glyph glyph-name="ygrave" unicode="&#x1ef3;" horiz-adv-x="1116" 
d="M428 20l-410 1045h265l272 -719l279 719h264l-482 -1204q-68 -168 -178 -245t-286 -77h-41v244h41q182 0 247 164zM651 1206l-448 191l114 225l418 -260z" />
    <glyph glyph-name="figuredash" unicode="&#x2012;" 
d="M121 600v234h987v-234h-987z" />
    <glyph glyph-name="endash" unicode="&#x2013;" 
d="M121 416v233h987v-233h-987z" />
    <glyph glyph-name="emdash" unicode="&#x2014;" horiz-adv-x="2048" 
d="M121 416v233h1806v-233h-1806z" />
    <glyph glyph-name="quoteleft" unicode="&#x2018;" horiz-adv-x="475" 
d="M70 1223q0 204 239 362l82 -84q-117 -120 -117 -176q56 -11 94 -57t38 -105q0 -66 -45.5 -110.5t-114.5 -44.5q-75 0 -125.5 61t-50.5 154z" />
    <glyph glyph-name="quoteright" unicode="&#x2019;" horiz-adv-x="475" 
d="M406 1350q0 -204 -240 -363l-80 84q117 120 117 178q-58 11 -95.5 56t-37.5 106q0 66 46 111t113 45q78 0 127.5 -61.5t49.5 -155.5z" />
    <glyph glyph-name="quotesinglbase" unicode="&#x201a;" horiz-adv-x="475" 
d="M406 74q0 -204 -240 -363l-80 84q117 120 117 176q-57 11 -95 56.5t-38 105.5q0 66 46 111t113 45q78 0 127.5 -60.5t49.5 -154.5z" />
    <glyph glyph-name="quotereversed" unicode="&#x201b;" horiz-adv-x="475" 
d="M70 1358q0 90 50.5 149.5t125.5 59.5q68 0 114 -45t46 -111q0 -61 -38 -106t-94 -56q0 -45 86 -131l31 -26l-82 -84q-86 58 -125 98q-114 117 -114 252z" />
    <glyph glyph-name="quotedblleft" unicode="&#x201c;" horiz-adv-x="868" 
d="M463 1223q0 204 239 362l80 -84q-116 -119 -116 -176q57 -11 95 -56.5t38 -105.5q0 -66 -46 -110.5t-114 -44.5q-78 0 -127 60.5t-49 154.5zM70 1223q0 204 239 362l82 -84q-117 -120 -117 -176q56 -11 94 -57t38 -105q0 -66 -45.5 -110.5t-114.5 -44.5q-75 0 -125.5 61
t-50.5 154z" />
    <glyph glyph-name="quotedblright" unicode="&#x201d;" horiz-adv-x="868" 
d="M406 1350q0 -204 -240 -363l-80 84q117 120 117 178q-58 11 -95.5 56t-37.5 106q0 66 46 111t113 45q78 0 127.5 -61.5t49.5 -155.5zM799 1350q0 -204 -240 -363l-82 84q117 120 117 178q-56 11 -93.5 56t-37.5 106q0 66 46 111t114 45q75 0 125.5 -62t50.5 -155z" />
    <glyph glyph-name="quotedblbase" unicode="&#x201e;" horiz-adv-x="868" 
d="M406 74q0 -204 -240 -363l-80 84q117 120 117 176q-57 11 -95 56.5t-38 105.5q0 66 46 111t113 45q78 0 127.5 -60.5t49.5 -154.5zM799 74q0 -204 -240 -363l-82 84q117 120 117 176q-56 11 -93.5 56.5t-37.5 105.5q0 66 45.5 111t114.5 45q75 0 125.5 -61t50.5 -154z
" />
    <glyph glyph-name="uni201F" unicode="&#x201f;" horiz-adv-x="868" 
d="M463 1358q0 92 49 150.5t127 58.5q68 0 114 -45t46 -111q0 -61 -37.5 -106t-95.5 -56q0 -43 88 -131l28 -26l-80 -84q-82 56 -124 98q-115 118 -115 252zM70 1358q0 90 50.5 149.5t125.5 59.5q68 0 114 -45t46 -111q0 -61 -38 -106t-94 -56q0 -45 86 -131l31 -26l-82 -84
q-86 58 -125 98q-114 117 -114 252z" />
    <glyph glyph-name="dagger" unicode="&#x2020;" horiz-adv-x="942" 
d="M39 819v199h328v416h208v-416h328v-199h-328v-1024h-208v1024h-328z" />
    <glyph glyph-name="daggerdbl" unicode="&#x2021;" horiz-adv-x="942" 
d="M367 211h-328v199h328v409h-328v199h328v416h208v-416h328v-199h-328v-409h328v-199h-328v-416h-208v416z" />
    <glyph glyph-name="bullet" unicode="&#x2022;" horiz-adv-x="774" 
d="M160 305q-90 90 -90 227q0 138 90 228t227 90t227 -90q93 -90 93 -228q0 -137 -93 -227q-90 -90 -227 -90t-227 90z" />
    <glyph glyph-name="ellipsis" unicode="&#x2026;" horiz-adv-x="1378" 
d="M70 131q0 68 45 114t114 46t114.5 -46t45.5 -114q0 -69 -45.5 -115.5t-114.5 -46.5t-114 46.5t-45 115.5zM528 131q0 67 46 113.5t114 46.5q69 0 115.5 -46t46.5 -114q0 -69 -46.5 -115.5t-115.5 -46.5q-68 0 -114 46.5t-46 115.5zM987 131q0 67 46.5 113.5t113.5 46.5
q69 0 115.5 -46t46.5 -114q0 -69 -46.5 -115.5t-115.5 -46.5q-68 0 -114 46.5t-46 115.5z" />
    <glyph glyph-name="perthousand" unicode="&#x2030;" horiz-adv-x="2498" 
d="M360 0l-131 109l1108 1325l133 -111zM59 1102q0 153 105 258q104 104 258 104q157 0 258 -104q104 -104 104 -258q0 -156 -104 -260q-103 -103 -258 -103q-152 0 -258 103q-105 105 -105 260zM324 1200q-41 -41 -41 -98t41 -98t98 -41t98 41t41 98t-41 98t-98 41t-98 -41
zM1274 696q157 0 258 -104q104 -104 104 -260t-104 -260q-103 -103 -258 -103q-152 0 -258 103q-105 105 -105 260t105 260q104 104 258 104zM1135 332q0 -57 41 -98t98 -41t98 41t41 98q0 60 -39.5 100.5t-99.5 40.5t-99.5 -40.5t-39.5 -100.5zM2077 696q157 0 258 -104
q104 -104 104 -260t-104 -260q-103 -103 -258 -103q-152 0 -258 103q-103 106 -103 260t103 260q104 104 258 104zM1937 332q0 -57 41.5 -98t98.5 -41q44 -4 79.5 21.5t51 63t8.5 81t-39 73.5q-30 32 -73.5 39t-81 -8.5t-63.5 -51t-22 -79.5z" />
    <glyph glyph-name="guilsinglleft" unicode="&#x2039;" horiz-adv-x="686" 
d="M459 133l-400 399l400 400l147 -148l-250 -252l250 -251z" />
    <glyph glyph-name="guilsinglright" unicode="&#x203a;" horiz-adv-x="686" 
d="M227 932l400 -400l-400 -399l-147 148l250 251l-250 252z" />
    <glyph glyph-name="fraction" unicode="&#x2044;" horiz-adv-x="1218" 
d="M209 0h-209l1010 1434h209z" />
    <glyph glyph-name="Euro" unicode="&#x20ac;" horiz-adv-x="1687" 
d="M205 797h-166v186h207q75 214 266 348q192 133 436 133q221 0 400 -108.5t272 -294.5l-268 -100q-60 111 -167 175t-237 64q-124 0 -225 -57t-164 -160h432v-186h-497q-7 -47 -7 -80q0 -34 7 -78h497v-188h-432q64 -101 165.5 -158t223.5 -57q130 0 237 63t167 174
l268 -100q-93 -186 -272 -295t-400 -109q-247 0 -436 131q-189 133 -266 351h-207v188h166q-4 66 -4 78q0 10 4 80z" />
    <glyph glyph-name="uni20B4" unicode="&#x20b4;" horiz-adv-x="1308" 
d="M506 774h-436v187h766q65 53 65 102q0 56 -63.5 97.5t-153.5 41.5q-84 0 -148.5 -40t-82.5 -99l-275 80q44 141 182 229q139 92 328 92q211 0 348 -110q140 -110 140 -262q0 -67 -31 -131h92v-187h-297q-68 -45 -199 -112h496v-187h-793q-45 -45 -45 -90q0 -63 75 -107.5
t181 -44.5q110 0 189.5 48t97.5 118l275 -82q-45 -144 -199 -249q-150 -99 -363 -99q-232 0 -383 115q-149 113 -149 281q0 54 20 110h-73v187h252q63 50 184 112z" />
    <glyph glyph-name="uni2113" unicode="&#x2113;" horiz-adv-x="1021" 
d="M231 389l-151 -67v262q73 30 151 73v490q0 176 97 299q100 121 245 121q143 0 242 -117q98 -113 98 -285q0 -339 -432 -630v-226q0 -90 92 -90q47 0 96.5 28.5t75.5 63.5l23 33l152 -149q-32 -40 -70 -78q-53 -60 -132.5 -102.5t-170.5 -45.5q-134 0 -225 101
q-91 105 -91 252v67zM481 1159v-332q185 164 185 328q0 67 -28 114.5t-67 47.5q-38 0 -64 -45.5t-26 -112.5z" />
    <glyph glyph-name="uni2116" unicode="&#x2116;" horiz-adv-x="2344" 
d="M383 961v-961h-264v1434h243l756 -963v963h264v-1434h-243zM1866 739q-154 0 -260 103q-103 106 -103 258q0 154 103 260q104 104 260 104q155 0 256 -104q104 -104 104 -260q0 -154 -104 -258q-103 -103 -256 -103zM2204 399h-680v222h680v-222zM1724 1100q0 -57 41 -97
t101 -40t99.5 39.5t39.5 97.5q0 60 -39.5 100.5t-99.5 40.5t-101 -40.5t-41 -100.5z" />
    <glyph glyph-name="uni2117" unicode="&#x2117;" horiz-adv-x="1628" 
d="M815 -16q-305 0 -520 215t-215 518t215 518q218 215 520 215q303 0 518 -215t215 -518t-215 -518t-518 -215zM815 1348q-261 0 -446 -185t-185 -446q0 -260 185 -445q187 -184 446 -184q261 0 445 184t184 445q0 260 -184 444q-184 187 -445 187zM725 326h-164v782h352
q122 0 201 -76q82 -73 82 -186t-82 -189q-78 -75 -201 -75h-188v-256zM913 956h-188v-221h188q47 0 79 32t32 79t-32 78.5t-79 31.5z" />
    <glyph glyph-name="trademark" unicode="&#x2122;" horiz-adv-x="1556" 
d="M854 717h-141v717h141l254 -445l254 445h141v-717h-141v457l-207 -377h-96l-205 372v-452zM250 717v581h-232v136h611v-136h-234v-581h-145z" />
    <glyph glyph-name="estimated" unicode="&#x212e;" horiz-adv-x="1622" 
d="M1542 717h-1134v-508q178 -141 403 -141q182 0 335 93t240 255h91q-88 -196 -271 -314q-180 -116 -395 -116q-300 0 -516 213q-215 215 -215 518t213 516q215 215 518 215q304 0 516 -215q215 -212 215 -516zM408 1225v-426h806v426q-178 141 -403 141t-403 -141z" />
    <glyph glyph-name="uni2150" unicode="&#x2150;" horiz-adv-x="1708" 
d="M233 645v604l-137 -67l-59 135l242 117h114v-789h-160zM1391 1434l-1008 -1434h-219l1007 1434h220zM1214 0l291 643h-389v145h559v-153l-282 -635h-179z" />
    <glyph glyph-name="uni2151" unicode="&#x2151;" horiz-adv-x="1691" 
d="M1354 645q-55 0 -92 -31.5t-37 -78.5q0 -48 37.5 -80.5t93.5 -32.5t93.5 32.5t37.5 80.5q0 47 -38 78.5t-95 31.5zM1059 141l139 66q46 -64 137 -64q69 0 113.5 34.5t44.5 88.5v82q-47 -78 -154 -78q-116 0 -198 76t-82 191q0 111 84 186q82 76 211 76q128 0 213 -76
q86 -74 86 -184v-271q0 -117 -90 -198q-89 -80 -224 -80q-92 0 -167.5 41.5t-112.5 109.5zM233 645v604l-137 -67l-59 135l242 117h114v-789h-160zM1391 1434l-1008 -1434h-219l1007 1434h220z" />
    <glyph glyph-name="uni2152" unicode="&#x2152;" horiz-adv-x="2254" 
d="M1905 645q-63 0 -105.5 -37t-42.5 -92v-244q0 -55 42.5 -92t105.5 -37q62 0 104.5 37t42.5 92v244q0 55 -42.5 92t-104.5 37zM1292 0v604l-139 -67l-57 135l241 116h115v-788h-160zM1597 274v240q0 120 89 203q88 82 219 82t219 -82t88 -203v-240q0 -120 -88 -202
t-219 -82t-219 82q-89 83 -89 202zM233 645v604l-137 -67l-59 135l242 117h114v-789h-160zM1391 1434l-1008 -1434h-219l1007 1434h220z" />
    <glyph glyph-name="onethird" unicode="&#x2153;" horiz-adv-x="1695" 
d="M233 645v604l-137 -67l-59 135l242 117h114v-789h-160zM1391 1434l-1008 -1434h-219l1007 1434h220zM1468 555q0 39 -35 64.5t-90 25.5q-100 0 -131 -72l-141 50q36 80 112 128t173 48q119 0 198.5 -69t79.5 -173q0 -94 -96 -147q117 -52 117 -170q0 -108 -86 -179
q-83 -71 -211 -71q-105 0 -184.5 50.5t-110.5 135.5l149 53q11 -39 49 -62.5t91 -23.5q60 0 98.5 29t38.5 72q0 42 -39 70t-96 28h-60v121h41q58 0 95.5 25.5t37.5 66.5z" />
    <glyph glyph-name="twothirds" unicode="&#x2154;" horiz-adv-x="1855" 
d="M434 1194q0 41 -33.5 68.5t-81.5 27.5q-100 0 -143 -110l-149 71q42 89 119.5 141t172.5 52q115 0 199 -72q82 -70 82 -172q0 -125 -170 -272l-137 -129h315v-154h-561v117l285 268q102 94 102 164zM543 0h-219l1007 1434h219zM1626 555q0 39 -34 64.5t-89 25.5
q-100 0 -131 -72l-141 50q33 79 110.5 127.5t174.5 48.5q119 0 198.5 -69t79.5 -173q0 -94 -96 -147q117 -52 117 -170q0 -108 -86 -179t-213 -71q-104 0 -183.5 51.5t-109.5 134.5l147 53q11 -39 48.5 -62.5t90.5 -23.5q59 0 99.5 29.5t40.5 71.5t-39 70t-97 28h-59v121h39
q58 0 95.5 25.5t37.5 66.5z" />
    <glyph glyph-name="uni2155" unicode="&#x2155;" horiz-adv-x="1705" 
d="M233 645v604l-137 -67l-59 135l242 117h114v-789h-160zM1391 1434l-1008 -1434h-219l1007 1434h220zM1665 260q0 -117 -86 -193.5t-215 -76.5q-108 0 -190 57t-113 152l162 43q41 -99 141 -99q57 0 96 34t39 83q0 51 -45 85t-111 34h-221l41 409h434v-145h-303l-12 -119
h102q121 0 199 -75q82 -76 82 -189z" />
    <glyph glyph-name="uni2156" unicode="&#x2156;" horiz-adv-x="1863" 
d="M434 1194q0 41 -33.5 68.5t-81.5 27.5q-100 0 -143 -110l-149 71q42 89 119.5 141t172.5 52q115 0 199 -72q82 -70 82 -172q0 -125 -170 -272l-137 -129h315v-154h-561v117l285 268q102 94 102 164zM543 0h-219l1007 1434h219zM1825 260q0 -117 -86 -193.5t-215 -76.5
q-108 0 -190 57t-113 152l159 43q44 -99 142 -99q57 0 97 34t40 83q0 51 -45 85t-111 34h-223l41 409h436v-145h-305l-12 -119h104q121 0 199 -75q82 -76 82 -189z" />
    <glyph glyph-name="uni2157" unicode="&#x2157;" horiz-adv-x="1902" 
d="M438 1200q0 39 -34.5 64.5t-88.5 25.5q-98 0 -133 -71l-141 49q36 80 112 128t173 48q119 0 199.5 -69t80.5 -173q0 -95 -98 -147q117 -53 117 -170q0 -107 -86 -178q-84 -72 -211 -72q-105 0 -184.5 50.5t-110.5 135.5l149 53q11 -39 49 -62.5t91 -23.5q60 0 98.5 29
t38.5 72t-38 70.5t-95 27.5h-62v121h41q58 0 95.5 25.5t37.5 66.5zM580 0h-220l1008 1434h219zM1862 260q0 -117 -86 -193.5t-215 -76.5q-108 0 -190.5 57.5t-113.5 151.5l160 43q43 -99 142 -99q57 0 97 34t40 83q0 51 -45 85t-111 34h-223l41 409h436v-145h-303l-14 -119
h104q121 0 199 -75q82 -76 82 -189z" />
    <glyph glyph-name="uni2158" unicode="&#x2158;" horiz-adv-x="1931" 
d="M610 0h-219l1008 1434h219zM37 793v153l407 488h152v-490h96v-151h-96v-148h-160v148h-399zM1288 199l160 43q44 -99 141 -99q57 0 97 34t40 83q0 51 -44.5 85t-110.5 34h-223l41 409h434v-145h-303l-13 -119h105q120 0 198 -75q82 -76 82 -189q0 -117 -86 -193.5
t-215 -76.5q-108 0 -190 57t-113 152zM436 1196l-211 -252h211v252z" />
    <glyph glyph-name="uni2159" unicode="&#x2159;" horiz-adv-x="1693" 
d="M1456 324q-37 31 -94 31t-94 -31q-37 -29 -37 -74t37 -76t94 -31t94 31q38 31 38 76t-38 74zM1647 641l-144 -68q-41 72 -133 72q-63 0 -105 -34.5t-42 -88.5v-82q52 70 155 70q117 0 199 -76q84 -78 84 -186q0 -110 -85 -184t-214 -74q-128 0 -213 73q-86 77 -86 185
v272q0 120 88 199q89 80 219 80q92 0 167 -43t110 -115zM233 645v604l-137 -67l-59 135l242 117h114v-789h-160zM1391 1434l-1008 -1434h-219l1007 1434h220z" />
    <glyph glyph-name="uni215A" unicode="&#x215a;" horiz-adv-x="1845" 
d="M1647 250q0 44 -37 74t-94 30t-95.5 -30t-38.5 -74q0 -45 38.5 -76t95.5 -31t94 30t37 77zM1798 641l-143 -68q-41 72 -131 72q-64 0 -107 -35t-43 -88v-82q58 70 158 70q117 0 199 -76q84 -78 84 -186t-86 -185q-85 -73 -213 -73q-131 0 -216 73q-86 77 -86 185v272
q0 119 89 199t219 80q92 0 166.5 -43t109.5 -115zM637 905q0 -118 -88 -194q-85 -76 -215 -76q-108 0 -190 57t-113 152l162 43q41 -99 141 -99q57 0 96 34t39 83q0 51 -45 85t-111 34h-221l41 410h434v-146h-303l-12 -119h102q123 0 201 -75q82 -76 82 -189zM1542 1434
l-1007 -1434h-220l1008 1434h219z" />
    <glyph glyph-name="oneeighth" unicode="&#x215b;" horiz-adv-x="1697" 
d="M1223 242q0 -43 37.5 -71t97.5 -28q57 0 95 28t38 69t-38 67.5t-95 26.5q-59 0 -97 -26.5t-38 -65.5zM1276 621q-32 -23 -32 -57.5t32 -59.5q32 -23 82 -23t82 23q32 25 32 59.5t-32 57.5q-32 25 -82 25t-82 -25zM1077 578q0 92 80 157q79 64 201 64q119 0 198 -64
q82 -64 82 -160t-90 -165q109 -71 109 -187q0 -100 -86 -168q-86 -65 -213 -65q-130 0 -215 67q-86 68 -86 170q0 115 108 185q-88 61 -88 166zM233 645v604l-137 -67l-59 135l242 117h114v-789h-160zM1391 1434l-1008 -1434h-219l1007 1434h220z" />
    <glyph glyph-name="threeeighths" unicode="&#x215c;" horiz-adv-x="1894" 
d="M1253 227q0 114 109 185q-90 69 -90 166q0 94 80.5 157.5t199.5 63.5q122 0 202.5 -63.5t80.5 -160.5q0 -96 -90 -165q108 -71 108 -187q0 -100 -86 -166.5t-215 -66.5t-214 67t-85 170zM1587 1434l-1007 -1434h-220l1008 1434h219zM328 635q-105 0 -184.5 50.5
t-110.5 135.5l149 53q11 -39 49 -62.5t91 -23.5q60 0 98.5 29t38.5 72t-38 70.5t-95 27.5h-62v121h41q58 0 95.5 25.5t37.5 66.5q0 39 -34.5 64.5t-88.5 25.5q-98 0 -133 -71l-141 49q36 80 112 128t173 48q119 0 199.5 -69t80.5 -173q0 -95 -98 -147q117 -53 117 -170
q0 -107 -86 -178q-84 -72 -211 -72zM1419 242q0 -43 38 -71t95 -28t96.5 28t39.5 69t-39 67.5t-97 26.5q-57 0 -95 -26.5t-38 -65.5zM1552 481q71 -4 101 39t0 86t-101 39q-49 0 -80.5 -23.5t-31.5 -58.5t31.5 -58.5t80.5 -23.5z" />
    <glyph glyph-name="fiveeighths" unicode="&#x215d;" horiz-adv-x="1849" 
d="M1376 242q0 -43 38 -71t95 -28t95 28t38 69t-38 67.5t-95 26.5t-95 -26.5t-38 -65.5zM1427 621q-32 -23 -32 -57.5t32 -59.5q32 -23 82 -23t82 23q32 25 32 59.5t-32 57.5q-32 25 -82 25t-82 -25zM1229 578q0 94 80.5 157.5t199.5 63.5q120 0 199 -64q82 -64 82 -160
q0 -99 -90 -165q110 -70 110 -187q0 -100 -86 -166.5t-215 -66.5q-130 0 -215 67q-86 68 -86 170q0 114 109 185q-88 61 -88 166zM637 905q0 -118 -88 -194q-85 -76 -215 -76q-108 0 -190 57t-113 152l162 43q41 -99 141 -99q57 0 96 34t39 83q0 51 -45 85t-111 34h-221
l41 410h434v-146h-303l-12 -119h102q123 0 201 -75q82 -76 82 -189zM1542 1434l-1007 -1434h-220l1008 1434h219z" />
    <glyph glyph-name="seveneighths" unicode="&#x215e;" horiz-adv-x="1765" 
d="M1290 242q0 -43 37.5 -71t97.5 -28q57 0 95.5 28t38.5 69t-38.5 67.5t-95.5 26.5q-59 0 -97 -26.5t-38 -65.5zM1343 621q-32 -23 -32 -57.5t32 -59.5q32 -23 82 -23t82 23q32 25 32 59.5t-32 57.5q-32 25 -82 25t-82 -25zM1145 578q0 92 80 157q79 64 200 64
q120 0 199 -64q82 -64 82 -160t-90 -165q108 -71 108 -187q0 -100 -86 -168q-86 -65 -213 -65q-130 0 -215 67q-86 68 -86 170q0 114 109 185q-88 61 -88 166zM119 645l291 643h-390v146h560v-154l-283 -635h-178zM1458 1434l-1007 -1434h-220l1008 1434h219z" />
    <glyph glyph-name="uni215F" unicode="&#x215f;" horiz-adv-x="1390" 
d="M233 645v604l-137 -67l-59 135l242 117h114v-789h-160zM1391 1434l-1008 -1434h-219l1007 1434h220z" />
    <glyph glyph-name="arrowleft" unicode="&#x2190;" horiz-adv-x="1439" 
d="M670 168l-549 549l549 549l153 -154l-268 -278h764v-234h-764l268 -278z" />
    <glyph glyph-name="arrowup" unicode="&#x2191;" horiz-adv-x="1439" 
d="M172 768l549 547l547 -547l-154 -154l-278 267v-762h-232v762l-278 -267z" />
    <glyph glyph-name="arrowright" unicode="&#x2192;" horiz-adv-x="1439" 
d="M770 1266l549 -549l-549 -549l-154 154l269 278h-764v234h764l-269 278z" />
    <glyph glyph-name="arrowdown" unicode="&#x2193;" horiz-adv-x="1439" 
d="M1268 666l-547 -547l-549 547l154 153l278 -266v762h232v-762l278 266z" />
    <glyph glyph-name="uni2196" unicode="&#x2196;" horiz-adv-x="1439" 
d="M297 365v776h774v-217l-385 -9l539 -538l-164 -166l-539 541l-8 -387h-217z" />
    <glyph glyph-name="uni2197" unicode="&#x2197;" horiz-adv-x="1439" 
d="M451 1141h774v-776h-217l-7 387l-540 -541l-164 166l539 538l-385 9v217z" />
    <glyph glyph-name="uni2198" unicode="&#x2198;" horiz-adv-x="1439" 
d="M1225 987v-776h-774v217l385 8l-539 539l164 166l540 -541l7 387h217z" />
    <glyph glyph-name="uni2199" unicode="&#x2199;" horiz-adv-x="1439" 
d="M1071 211h-774v776h217l8 -387l539 541l164 -166l-539 -539l385 -8v-217z" />
    <glyph glyph-name="emptyset" unicode="&#x2205;" horiz-adv-x="1652" 
d="M827 1464q183 0 347 -86l59 86h233l-137 -196q244 -221 244 -551q0 -310 -219 -529t-527 -219q-184 0 -348 86l-57 -86h-234l136 195q-244 226 -244 553q0 309 219 528t528 219zM446 338l605 866q-101 49 -224 49q-224 0 -381 -157t-157 -379q0 -214 157 -379zM827 180
q223 0 379 156q158 158 158 381q0 220 -156 379l-606 -867q101 -49 225 -49z" />
    <glyph glyph-name="product" unicode="&#x220f;" horiz-adv-x="1329" 
d="M383 1190v-1548h-264v1792h1091v-1792h-264v1548h-563z" />
    <glyph glyph-name="summation" unicode="&#x2211;" horiz-adv-x="1038" 
d="M977 -115v-243h-916v202l424 693l-424 694v203h916v-244h-604l397 -653l-397 -652h604z" />
    <glyph glyph-name="minus" unicode="&#x2212;" 
d="M121 600v234h987v-234h-987z" />
    <glyph glyph-name="integral" unicode="&#x222b;" horiz-adv-x="684" 
d="M20 -358v243h64q56 0 93.5 37t37.5 92v1184q0 146 104 240q104 98 261 98h84v-244h-64q-56 0 -93.5 -37t-37.5 -92v-1183q0 -146 -104 -240q-104 -98 -261 -98h-84z" />
    <glyph glyph-name="approxequal" unicode="&#x2248;" 
d="M776 748q-86 0 -192 59q-104 61 -140 61q-38 0 -66 -31t-28 -75h-229q0 141 98 239q99 99 234 99q88 0 194 -62q104 -61 137 -61q39 0 66 30.5t27 77.5h231q-3 -144 -100 -241q-101 -96 -232 -96zM776 336q-86 0 -192 59q-106 62 -140 62q-38 0 -66 -31.5t-28 -75.5h-229
q0 142 98 240t234 98q90 0 194 -61q106 -62 137 -62q39 0 66 31t27 78h231q-3 -145 -100 -242q-101 -96 -232 -96z" />
    <glyph glyph-name="notequal" unicode="&#x2260;" 
d="M791 838l-111 -242h428v-234h-539l-112 -243h-230l113 243h-219v234h328l112 242h-440v233h549l112 244h232l-113 -244h207v-233h-317z" />
    <glyph glyph-name="lessequal" unicode="&#x2264;" 
d="M1108 387l-987 393v211l987 398v-250l-631 -254l631 -248v-250zM121 57v232h987v-232h-987z" />
    <glyph glyph-name="greaterequal" unicode="&#x2265;" 
d="M1108 991v-211l-987 -393v250l631 248l-631 254v250zM121 289h987v-232h-987v232z" />
    <glyph glyph-name="uni23F4" unicode="&#x23f4;" horiz-adv-x="790" 
d="M606 272l-504 445l504 444v-889z" />
    <glyph glyph-name="uni23F5" unicode="&#x23f5;" horiz-adv-x="790" 
d="M184 1161l504 -444l-504 -445v889z" />
    <glyph glyph-name="uni23F6" unicode="&#x23f6;" horiz-adv-x="929" 
d="M20 465l445 504l444 -504h-889z" />
    <glyph glyph-name="uni23F7" unicode="&#x23f7;" horiz-adv-x="929" 
d="M909 969l-444 -504l-445 504h889z" />
    <glyph glyph-name="filledbox" unicode="&#x25a0;" horiz-adv-x="1671" 
d="M1552 0h-1433v1434h1433v-1434z" />
    <glyph glyph-name="H22073" unicode="&#x25a1;" horiz-adv-x="1671" 
d="M1552 0h-1433v1434h1433v-1434zM1343 209v1016h-1015v-1016h1015z" />
    <glyph glyph-name="uni25A2" unicode="&#x25a2;" horiz-adv-x="1671" 
d="M1552 0h-1433v1434h1433v-1434zM1343 209v1016h-1015v-1016h1015z" />
    <glyph glyph-name="triagup" unicode="&#x25b2;" horiz-adv-x="1826" 
d="M61 0l852 1475l852 -1475h-1704z" />
    <glyph glyph-name="uni25B3" unicode="&#x25b3;" horiz-adv-x="1826" 
d="M913 1475l852 -1475h-1704zM426 209h977l-488 848z" />
    <glyph glyph-name="triagdn" unicode="&#x25bc;" horiz-adv-x="1826" 
d="M1765 1434l-852 -1473l-852 1473h1704z" />
    <glyph glyph-name="uni25BD" unicode="&#x25bd;" horiz-adv-x="1826" 
d="M61 1434h1704l-852 -1475zM915 379l488 846h-977z" />
    <glyph glyph-name="uni25C6" unicode="&#x25c6;" horiz-adv-x="1638" 
d="M819 -41l-758 758l758 758l758 -758z" />
    <glyph glyph-name="uni25C7" unicode="&#x25c7;" horiz-adv-x="1638" 
d="M819 -41l-758 758l758 758l758 -758zM819 254l463 463l-463 463l-463 -463z" />
    <glyph glyph-name="lozenge" unicode="&#x25ca;" horiz-adv-x="1091" 
d="M61 717l414 717h141l414 -717l-414 -717h-141zM547 297l241 420l-241 420l-242 -420z" />
    <glyph glyph-name="circle" unicode="&#x25cb;" horiz-adv-x="1652" 
d="M827 1464q308 0 527 -219t219 -528q0 -310 -219 -529t-527 -219q-309 0 -528 219t-219 529q0 309 219 528t528 219zM827 180q223 0 379 156q158 158 158 381q0 221 -158 379q-157 157 -379 157q-224 0 -381 -157t-157 -379q0 -224 157 -381q156 -156 381 -156z" />
    <glyph glyph-name="H18533" unicode="&#x25cf;" horiz-adv-x="1652" 
d="M827 1464q308 0 527 -219t219 -528q0 -310 -219 -529t-527 -219q-309 0 -528 219t-219 529q0 309 219 528t528 219z" />
    <glyph glyph-name="uni25D0" unicode="&#x25d0;" horiz-adv-x="1652" 
d="M827 1464q308 0 527 -219t219 -528q0 -310 -219 -529t-527 -219q-309 0 -528 219t-219 529q0 309 219 528t528 219zM827 1253v-1073q223 0 379 156q158 158 158 381q0 221 -158 379q-157 157 -379 157z" />
    <glyph glyph-name="uni25D1" unicode="&#x25d1;" horiz-adv-x="1652" 
d="M1354 1245q219 -219 219 -528q0 -310 -219 -529t-527 -219q-309 0 -528 219t-219 529q0 309 219 528t528 219q308 0 527 -219zM827 180v1073q-224 0 -381 -157t-157 -379q0 -224 157 -381q156 -156 381 -156z" />
    <glyph glyph-name="uni25D2" unicode="&#x25d2;" horiz-adv-x="1652" 
d="M1354 188q-219 -219 -527 -219q-309 0 -528 219t-219 529q0 309 219 528t528 219q308 0 527 -219t219 -528q0 -310 -219 -529zM289 717h1075q0 221 -158 379q-157 157 -379 157q-224 0 -381 -157t-157 -379z" />
    <glyph glyph-name="uni25D3" unicode="&#x25d3;" horiz-adv-x="1652" 
d="M299 1245q219 219 528 219q308 0 527 -219t219 -528q0 -310 -219 -529t-527 -219q-309 0 -528 219t-219 529q0 309 219 528zM1364 717h-1075q0 -224 157 -381q156 -156 381 -156q223 0 379 156q158 158 158 381z" />
    <glyph glyph-name="uni25D4" unicode="&#x25d4;" horiz-adv-x="1652" 
d="M827 1464q308 0 527 -219t219 -528q0 -310 -219 -529t-527 -219q-309 0 -528 219t-219 529q0 309 219 528t528 219zM827 180q223 0 379 156q158 158 158 381h-537v536q-224 0 -381 -157t-157 -379q0 -224 157 -381q156 -156 381 -156z" />
    <glyph glyph-name="uni25D5" unicode="&#x25d5;" horiz-adv-x="1652" 
d="M827 1464q308 0 527 -219t219 -528q0 -310 -219 -529t-527 -219q-309 0 -528 219t-219 529q0 309 219 528t528 219zM289 717h538v536q-224 0 -381 -157t-157 -379z" />
    <glyph glyph-name="uni25D6" unicode="&#x25d6;" horiz-adv-x="946" 
d="M827 1464v-1495q-309 0 -528 219t-219 529q0 309 219 528t528 219z" />
    <glyph glyph-name="uni25D7" unicode="&#x25d7;" horiz-adv-x="946" 
d="M119 -31v1495q309 0 528 -219t219 -528q0 -310 -219 -529t-528 -219z" />
    <glyph glyph-name="uni25EF" unicode="&#x25ef;" horiz-adv-x="1652" 
d="M827 1464q308 0 527 -219t219 -528q0 -310 -219 -529t-527 -219q-309 0 -528 219t-219 529q0 309 219 528t528 219zM827 180q223 0 379 156q158 158 158 381q0 221 -158 379q-157 157 -379 157q-224 0 -381 -157t-157 -379q0 -224 157 -381q156 -156 381 -156z" />
    <glyph glyph-name="uni2639" unicode="&#x2639;" horiz-adv-x="1617" 
d="M424 938q0 54 36.5 90.5t90.5 36.5q55 0 92 -36.5t37 -90.5q0 -56 -37 -92.5t-92 -36.5q-54 0 -90.5 37t-36.5 92zM942 938q0 54 36.5 90.5t90.5 36.5q55 0 92 -36.5t37 -90.5q0 -56 -37 -92.5t-92 -36.5q-54 0 -90.5 37t-36.5 92zM475 293h-82q0 161 119 268
q121 109 297 109q174 0 295 -109t121 -268h-82q0 125 -96 209t-238 84t-238 -84t-96 -209zM295 203q-213 213 -213 514t213 514t514 213t514 -213t213 -514t-213 -514t-514 -213t-514 213zM350 1176q-190 -190 -190 -459t190 -459t459 -190t459 190t190 459t-190 459
t-459 190t-459 -190z" />
    <glyph glyph-name="smileface" unicode="&#x263a;" horiz-adv-x="1617" 
d="M424 938q0 54 36.5 90.5t90.5 36.5q55 0 92 -36.5t37 -90.5q0 -56 -37 -92.5t-92 -36.5q-54 0 -90.5 37t-36.5 92zM942 938q0 54 36.5 90.5t90.5 36.5q55 0 92 -36.5t37 -90.5q0 -56 -37 -92.5t-92 -36.5q-54 0 -90.5 37t-36.5 92zM393 608h82q0 -125 96 -209t238 -84
t238 84t96 209h82q0 -161 -121 -270q-119 -107 -295 -107q-178 0 -297 107t-119 270zM295 203q-213 213 -213 514t213 514t514 213t514 -213t213 -514t-213 -514t-514 -213t-514 213zM350 1176q-190 -190 -190 -459t190 -459t459 -190t459 190t190 459t-190 459t-459 190
t-459 -190z" />
    <glyph glyph-name="invsmileface" unicode="&#x263b;" horiz-adv-x="1617" 
d="M424 938q0 -55 36.5 -92t90.5 -37q55 0 92 36.5t37 92.5q0 54 -37 90.5t-92 36.5q-54 0 -90.5 -36.5t-36.5 -90.5zM942 938q0 -55 36.5 -92t90.5 -37q55 0 92 36.5t37 92.5q0 54 -37 90.5t-92 36.5q-54 0 -90.5 -36.5t-36.5 -90.5zM475 608h-82q0 -163 119 -270t297 -107
q176 0 295 107q121 109 121 270h-82q0 -125 -96 -209t-238 -84t-238 84t-96 209zM295 203q-213 213 -213 514t213 514t514 213t514 -213t213 -514t-213 -514t-514 -213t-514 213z" />
    <glyph glyph-name="commaaccent" horiz-adv-x="473" 
d="M375 -270q0 -157 -195 -269l-2 -2l-65 68q94 73 94 111q-46 11 -76.5 47t-30.5 84q0 54 37 90.5t94 36.5q62 0 103 -47t41 -119z" />
    <glyph glyph-name="zero.fitted" 
d="M59 485v463q0 220 158 369q159 147 397 147q240 0 396 -147q159 -147 159 -369v-463q0 -221 -159 -368q-157 -148 -396 -148q-237 0 -397 148q-158 149 -158 368zM326 952v-471q0 -108 82 -184q83 -74 206 -74q124 0 207 74q84 78 84 184v471q0 108 -84 183
q-81 75 -207 75q-125 0 -206 -75q-82 -73 -82 -183z" />
    <glyph glyph-name="one.fitted" 
d="M575 1112l-286 -139l-111 233l473 228h189v-1180h305v-254h-877v254h307v858z" />
    <glyph glyph-name="two.fitted" 
d="M831 1016q0 80 -69 137q-66 57 -162 57q-92 0 -164.5 -56t-109.5 -153l-246 117q69 160 208 253t312 93q214 0 358 -129q148 -130 148 -311q0 -110 -73.5 -230t-233.5 -274l-281 -266h600v-254h-1009v199l526 501q196 190 196 316z" />
    <glyph glyph-name="three.fitted" 
d="M823 1034q0 74 -70 125t-178 51q-90 0 -156 -34t-97 -95l-240 115q63 123 196 195.5t300 72.5q224 0 372 -121t148 -301q0 -178 -154 -299q191 -126 191 -333q0 -190 -156 -316q-155 -125 -387 -125q-191 0 -334 88q-142 89 -195 234l256 90q24 -70 97 -114t174 -44
q116 0 193 56.5t77 142.5q0 81 -76.5 135.5t-187.5 54.5h-109v240h74q111 0 186.5 51.5t75.5 130.5z" />
    <glyph glyph-name="four.fitted" 
d="M768 0v274h-702v254l714 906h252v-906h182v-254h-182v-274h-264zM768 1028l-391 -500h391v500z" />
    <glyph glyph-name="five.fitted" 
d="M1153 457q0 -205 -158 -348q-158 -140 -389 -140q-189 0 -333 100t-205 267l264 72q37 -86 109 -135.5t165 -49.5q116 0 193 68q80 68 80 166q0 106 -88 176q-84 69 -216 69h-399l74 732h780v-244h-559l-25 -246h146q239 0 399 -139q162 -137 162 -348z" />
    <glyph glyph-name="six.fitted" 
d="M1137 1188l-246 -119q-37 64 -105 102.5t-149 38.5q-123 0 -205 -73t-82 -183v-98q127 68 279 68q226 0 381 -140q155 -137 155 -342q0 -201 -155 -338q-153 -135 -383 -135q-232 0 -387 137q-154 139 -154 340v504q0 218 158 367q159 147 397 147q163 0 295 -74
t201 -202zM360 449q0 -98 76 -162t191 -64q112 0 187 63t75 156q0 97 -75 162.5t-187 65.5q-113 0 -191 -66q-76 -64 -76 -155z" />
    <glyph glyph-name="seven.fitted" 
d="M309 0l518 1190h-716v244h999v-256l-514 -1178h-287z" />
    <glyph glyph-name="eight.fitted" 
d="M76 401q0 105 55.5 196t153.5 148q-179 120 -179 314q0 170 146 289q143 116 364 116t363 -118q145 -118 145 -289q0 -192 -178 -312q209 -126 209 -346q0 -183 -154 -307q-153 -123 -385 -123q-231 0 -387 123q-153 126 -153 309zM352 424q0 -87 74.5 -144t189.5 -57
q113 0 189 57t76 142t-76 142t-189 57q-115 0 -189.5 -56t-74.5 -141zM381 1038q0 -74 67.5 -124t167.5 -50t167 50t67 124q0 72 -67.5 122t-166.5 50t-167 -50t-68 -122z" />
    <glyph glyph-name="nine.fitted" 
d="M70 258l245 117q36 -70 107.5 -111t161.5 -41q128 0 215 72q86 74 86 180v82q-121 -68 -273 -68q-224 0 -379 140q-153 141 -153 350q0 208 153 346q154 139 381 139q231 0 381 -141q154 -139 154 -346v-500q0 -219 -162 -362q-166 -146 -403 -146q-169 0 -306.5 78.5
t-207.5 210.5zM874 975q0 100 -75 167.5t-185 67.5t-184 -65.5t-74 -163.5q0 -103 73.5 -170.5t184.5 -67.5q110 0 185 67t75 165z" />
    <glyph glyph-name="zero.sup" horiz-adv-x="700" 
d="M43 1022v240q0 120 88 202t219 82t219 -82t88 -202v-240q0 -121 -88 -203t-219 -82t-219 82t-88 203zM350 1393q-62 0 -103.5 -37t-41.5 -92v-244q0 -55 41.5 -92t103.5 -37q63 0 105.5 37t42.5 92v244q0 55 -42.5 92t-105.5 37z" />
    <glyph glyph-name="one.sup" horiz-adv-x="495" 
d="M233 1352l-137 -68l-59 135l242 117h114v-788h-160v604z" />
    <glyph glyph-name="two.sup" horiz-adv-x="655" 
d="M434 1296q0 41 -33.5 69t-81.5 28q-99 0 -143 -111l-149 72q42 89 119 140.5t173 51.5q116 0 199 -71q82 -70 82 -172q0 -126 -170 -273l-137 -129h315v-153h-561v116l285 269q102 95 102 163z" />
    <glyph glyph-name="three.sup" horiz-adv-x="665" 
d="M438 1303q0 39 -34.5 64.5t-88.5 25.5q-98 0 -133 -72l-141 49q36 80 112 128t173 48q119 0 199.5 -68.5t80.5 -172.5q0 -96 -98 -148q117 -53 117 -170q0 -107 -86 -178q-84 -72 -211 -72q-105 0 -184.5 51t-110.5 136l149 53q11 -39 49 -62.5t91 -23.5q60 0 98.5 28.5
t38.5 71.5t-38 71t-95 28h-62v120h41q57 0 95 26t38 67z" />
    <glyph glyph-name="four.sup" horiz-adv-x="720" 
d="M436 748v147h-399v154l407 487h152v-489h96v-152h-96v-147h-160zM436 1298l-211 -251h211v251z" />
    <glyph glyph-name="five.sup" horiz-adv-x="675" 
d="M637 1008q0 -119 -88 -195q-85 -76 -215 -76q-108 0 -190 57t-113 152l162 43q40 -98 141 -98q57 0 96 34t39 83q0 51 -45 84.5t-111 33.5h-221l41 410h434v-145h-303l-12 -119h102q122 0 201 -76q82 -76 82 -188z" />
    <glyph glyph-name="six.sup" horiz-adv-x="677" 
d="M631 1389l-144 -68q-44 72 -133 72q-64 0 -106.5 -34.5t-42.5 -88.5v-82q57 69 157 69q118 0 199 -75q84 -78 84 -187q0 -107 -86 -184q-86 -74 -213 -74q-126 0 -215 74q-86 77 -86 184v273q0 119 88 198q89 80 219 80q93 0 167.5 -42t111.5 -115zM477 997q0 45 -37 75
t-94 30t-95 -30.5t-38 -74.5q0 -45 38 -75.5t95 -30.5t94 29.5t37 76.5z" />
    <glyph glyph-name="seven.sup" horiz-adv-x="612" 
d="M119 748l291 643h-390v145h560v-154l-283 -634h-178z" />
    <glyph glyph-name="eight.sup" horiz-adv-x="679" 
d="M41 975q0 113 109 184q-91 69 -91 166q0 94 81 157.5t200 63.5q121 0 199 -63q82 -64 82 -160q0 -101 -91 -164q111 -71 111 -188q0 -100 -86 -167t-215 -67t-214 67.5t-85 170.5zM207 989q0 -43 38 -70.5t95 -27.5t95 27.5t38 68.5t-38 67.5t-95 26.5t-95 -26.5
t-38 -65.5zM258 1368q-32 -23 -32 -57.5t32 -59.5q32 -23 82 -23t82 23q32 25 32 59.5t-32 57.5q-32 25 -82 25t-82 -25z" />
    <glyph glyph-name="nine.sup" horiz-adv-x="673" 
d="M41 889l139 65q45 -63 137 -63q69 0 113.5 34.5t44.5 88.5v82q-47 -78 -153 -78q-117 0 -199 76t-82 190q0 111 84 186q85 76 213 76q129 0 211 -76q86 -74 86 -184v-270q0 -118 -90 -199q-89 -80 -223 -80q-92 0 -168.5 42t-112.5 110zM338 1393q-57 0 -94 -32t-37 -79
q0 -48 37.5 -80.5t93.5 -32.5t93.5 32.5t37.5 80.5q0 47 -37.5 79t-93.5 32z" />
    <glyph glyph-name="zero.sub" horiz-adv-x="700" 
d="M43 70v239q0 121 88 203t219 82t219 -82t88 -203v-239q0 -121 -88 -203t-219 -82t-219 82t-88 203zM350 440q-62 0 -103.5 -37t-41.5 -92v-243q0 -55 41.5 -92t103.5 -37q63 0 105.5 37t42.5 92v243q0 55 -42.5 92t-105.5 37z" />
    <glyph glyph-name="one.sub" horiz-adv-x="495" 
d="M233 399l-137 -67l-59 135l242 117h114v-789h-160v604z" />
    <glyph glyph-name="two.sub" horiz-adv-x="655" 
d="M434 344q0 41 -33.5 68.5t-81.5 27.5q-100 0 -143 -110l-149 71q42 89 119.5 141t172.5 52q115 0 199 -72q82 -70 82 -172q0 -125 -170 -272l-137 -129h315v-154h-561v117l285 268q102 94 102 164z" />
    <glyph glyph-name="three.sub" horiz-adv-x="665" 
d="M438 350q0 39 -34.5 64.5t-88.5 25.5q-98 0 -133 -71l-141 49q36 80 112 128t173 48q119 0 199.5 -69t80.5 -173q0 -95 -98 -147q117 -53 117 -170q0 -107 -86 -178q-84 -72 -211 -72q-105 0 -184.5 50.5t-110.5 135.5l149 54q11 -39 49 -62.5t91 -23.5q60 0 98.5 28.5
t38.5 71.5t-38 70.5t-95 27.5h-62v121h41q58 0 95.5 25.5t37.5 66.5z" />
    <glyph glyph-name="four.sub" horiz-adv-x="720" 
d="M436 -205v148h-399v153l407 488h152v-490h96v-151h-96v-148h-160zM436 346l-211 -252h211v252z" />
    <glyph glyph-name="five.sub" horiz-adv-x="675" 
d="M637 55q0 -116 -88 -192q-87 -78 -215 -78q-108 0 -190 57t-113 152l162 43q40 -98 141 -98q57 0 96 33.5t39 82.5q0 51 -45 85t-111 34h-221l41 410h434v-146h-303l-12 -119h102q123 0 201 -75q82 -76 82 -189z" />
    <glyph glyph-name="six.sub" horiz-adv-x="677" 
d="M631 436l-144 -67q-44 71 -133 71q-64 0 -106.5 -34.5t-42.5 -88.5v-81q57 69 157 69q117 0 199 -76q84 -78 84 -186t-86 -182q-85 -76 -213 -76q-127 0 -215 76q-86 74 -86 182v272q0 120 88 199q89 80 219 80q92 0 167 -42.5t112 -115.5zM477 45q0 45 -37 75t-94 30
t-95 -30.5t-38 -74.5q0 -45 38 -75.5t95 -30.5t94 29.5t37 76.5z" />
    <glyph glyph-name="seven.sub" horiz-adv-x="612" 
d="M119 -205l291 643h-390v146h560v-154l-283 -635h-178z" />
    <glyph glyph-name="eight.sub" horiz-adv-x="679" 
d="M41 23q0 113 109 184q-91 69 -91 166q0 94 81 157.5t200 63.5q120 0 199 -64q82 -64 82 -159q0 -101 -91 -164q111 -70 111 -189q0 -100 -86 -166.5t-215 -66.5t-214 67.5t-85 170.5zM207 37q0 -43 38 -70.5t95 -27.5t95 27.5t38 68.5t-38 67.5t-95 26.5t-95 -26.5
t-38 -65.5zM258 416q-32 -23 -32 -57.5t32 -59.5q32 -23 82 -23t82 23q32 25 32 59.5t-32 57.5q-32 25 -82 25t-82 -25z" />
    <glyph glyph-name="nine.sub" horiz-adv-x="673" 
d="M41 -63l139 65q45 -63 137 -63q69 0 113.5 34t44.5 88v82q-47 -77 -153 -77q-118 0 -199 75q-82 76 -82 191q0 111 84 186q85 76 213 76q129 0 211 -76q86 -74 86 -184v-271q0 -117 -90 -198q-89 -80 -223 -80q-92 0 -168.5 42t-112.5 110zM338 440q-57 0 -94 -31.5
t-37 -78.5q0 -48 37.5 -80.5t93.5 -32.5t93.5 32.5t37.5 80.5q0 47 -37.5 78.5t-93.5 31.5z" />
    <glyph glyph-name="exclamdown.case" horiz-adv-x="512" 
d="M94 1305q0 67 46 113t114 46q69 0 115.5 -45.5t46.5 -113.5q0 -69 -46.5 -115.5t-115.5 -46.5q-68 0 -114 46.5t-46 115.5zM119 0l28 981h220l26 -981h-274z" />
    <glyph glyph-name="questiondown.case" horiz-adv-x="1165" 
d="M338 420q0 -85 74.5 -141t187.5 -56q94 0 164.5 43t95.5 115l264 -74q-47 -152 -190 -246q-142 -92 -330 -92q-228 0 -381 129q-151 130 -151 324q0 75 27 142t66 111.5t89.5 81t89.5 55.5t74 30l41 12l12 125h221l27 -270q-58 -15 -133 -45q-58 -24 -117 -58
q-54 -32 -92.5 -83t-38.5 -103zM698 1417q47 -44 47 -114t-47 -117q-44 -44 -114 -44t-117 44q-44 47 -44 117t44 114q47 47 117 47t114 -47z" />
    <glyph glyph-name="dagger.case" horiz-adv-x="942" 
d="M39 819v199h328v416h208v-416h328v-199h-328v-819h-208v819h-328z" />
    <glyph glyph-name="daggerdbl.case" horiz-adv-x="942" 
d="M367 377h-328v198h328v283h-328v199h328v377h208v-377h328v-199h-328v-283h328v-198h-328v-377h-208v377z" />
    <glyph glyph-name="slash.case" horiz-adv-x="1089" 
d="M231 -205h-231l858 1841h232z" />
    <glyph glyph-name="backslash.case" horiz-adv-x="1089" 
d="M231 1636l859 -1841h-232l-858 1841h231z" />
    <glyph glyph-name="parenleft.case" horiz-adv-x="638" 
d="M352 1606l33 32h233l-32 -41q-22 -28 -74 -116q-59 -99 -97.5 -198.5t-68.5 -248.5q-65 -315 -2 -635q38 -167 78 -258q93 -218 164 -307l32 -39h-233l-2 2q-163 173 -246 471q-57 203 -57 451q0 171 30.5 332t77.5 266q92 213 164 289z" />
    <glyph glyph-name="parenright.case" horiz-adv-x="638" 
d="M53 1599l-33 39h234l33 -34q13 -14 73 -107q49 -76 93 -180q37 -85 73 -258q33 -156 33 -340q0 -160 -28 -315t-68 -261q-44 -111 -88 -180q-59 -95 -76 -115q-28 -36 -43 -51l-2 -2h-234l33 41q19 25 74 117q58 97 96.5 198t69.5 248q66 318 0 633q-10 49 -21.5 95
t-26.5 88.5t-27 76t-31 72t-29.5 60.5t-31 56t-26.5 45t-26 42t-21 32z" />
    <glyph glyph-name="bracketleft.case" horiz-adv-x="624" 
d="M246 -207v2h-146v1843h504v-213h-270v-1419h270v-213h-358z" />
    <glyph glyph-name="bracketright.case" horiz-adv-x="624" 
d="M522 -205h-502v213h269v1417h-269v213h502v-1843z" />
    <glyph glyph-name="braceleft.case" horiz-adv-x="698" 
d="M535 1638h143v-213h-121q-54 0 -88.5 -34.5t-34.5 -85.5v-316q0 -108 -54 -178t-149 -94q95 -24 149 -93.5t54 -177.5v-317q0 -51 36 -86t87 -35h121v-213h-143q-144 0 -240 96q-94 94 -94 238v317q0 50 -42.5 92.5t-92.5 57.5l-46 14v215q18 4 62 23q119 54 119 141v316
q0 143 94 237q96 96 240 96z" />
    <glyph glyph-name="braceright.case" horiz-adv-x="698" 
d="M20 1425v213h144q141 0 237 -96q97 -97 97 -237v-316q0 -50 42.5 -92t92.5 -57l45 -15v-215q-22 -4 -64 -22q-116 -55 -116 -142v-317q0 -141 -97 -238q-96 -96 -237 -96h-144v213h121q51 0 87 35t36 86v317q0 109 55 179.5t150 91.5q-96 24 -150.5 94t-54.5 178v316
q0 51 -35 85.5t-86 34.5h-123z" />
    <glyph glyph-name="guillemotleft.case" horiz-adv-x="1140" 
d="M459 317l-400 400l400 399l147 -147l-250 -252l250 -252zM913 317l-399 400l399 399l148 -147l-252 -252l252 -252z" />
    <glyph glyph-name="guillemotright.case" horiz-adv-x="1140" 
d="M682 1116l399 -399l-399 -400l-147 148l249 252l-249 252zM227 1116l400 -399l-400 -400l-147 148l250 252l-250 252z" />
    <glyph glyph-name="guilsinglleft.case" horiz-adv-x="686" 
d="M459 317l-400 400l400 399l147 -147l-250 -252l250 -252z" />
    <glyph glyph-name="guilsinglright.case" horiz-adv-x="686" 
d="M227 1116l400 -399l-400 -400l-147 148l250 252l-250 252z" />
    <glyph glyph-name="hyphen.case" horiz-adv-x="819" 
d="M121 600v234h577v-234h-577z" />
    <glyph glyph-name="endash.case" 
d="M121 600v234h987v-234h-987z" />
    <glyph glyph-name="emdash.case" horiz-adv-x="2048" 
d="M121 600v234h1806v-234h-1806z" />
    <glyph glyph-name="bar.case" horiz-adv-x="411" 
d="M311 -205h-211v1843h211v-1843z" />
    <glyph glyph-name="brokenbar.case" horiz-adv-x="411" 
d="M311 1638v-753h-211v753h211zM100 -205v756h211v-756h-211z" />
    <glyph glyph-name="zero.dnom" horiz-adv-x="700" 
d="M43 274v240q0 121 88 203t219 82t219 -82t88 -203v-240q0 -120 -88 -202t-219 -82t-219 82t-88 202zM350 645q-62 0 -103.5 -37t-41.5 -92v-244q0 -55 41.5 -92t103.5 -37q63 0 105.5 37t42.5 92v244q0 55 -42.5 92t-105.5 37z" />
    <glyph glyph-name="one.dnom" horiz-adv-x="495" 
d="M233 604l-137 -67l-59 135l242 116h114v-788h-160v604z" />
    <glyph glyph-name="two.dnom" horiz-adv-x="655" 
d="M434 549q0 41 -33.5 68.5t-81.5 27.5q-100 0 -143 -110l-149 71q42 89 119.5 141t172.5 52q115 0 199 -72q82 -70 82 -172q0 -125 -170 -272l-137 -129h315v-154h-561v117l285 268q102 95 102 164z" />
    <glyph glyph-name="three.dnom" horiz-adv-x="665" 
d="M438 555q0 39 -34.5 64.5t-88.5 25.5q-98 0 -133 -72l-141 50q36 80 112 128t173 48q119 0 199.5 -69t80.5 -173q0 -95 -98 -147q117 -52 117 -170q0 -108 -86 -179q-83 -71 -211 -71q-105 0 -184.5 50.5t-110.5 135.5l149 53q11 -39 49 -62.5t91 -23.5q60 0 98.5 29
t38.5 72t-38 70.5t-95 27.5h-62v121h41q58 0 95.5 25.5t37.5 66.5z" />
    <glyph glyph-name="four.dnom" horiz-adv-x="720" 
d="M436 0v147h-399v154l407 487h152v-489h96v-152h-96v-147h-160zM436 551l-211 -252h211v252z" />
    <glyph glyph-name="five.dnom" horiz-adv-x="675" 
d="M637 260q0 -118 -88 -194q-85 -76 -215 -76q-108 0 -190 57t-113 152l162 43q41 -99 141 -99q57 0 96 34t39 83q0 51 -45 85t-111 34h-221l41 409h434v-145h-303l-12 -119h102q123 0 201 -75q82 -76 82 -189z" />
    <glyph glyph-name="six.dnom" horiz-adv-x="677" 
d="M631 641l-144 -68q-44 72 -133 72q-64 0 -106.5 -34.5t-42.5 -88.5v-82q58 70 157 70q117 0 199 -76q84 -78 84 -186t-86 -185q-85 -73 -213 -73q-127 0 -215 73q-86 77 -86 185v272q0 120 88 199q89 80 219 80q92 0 167 -42.5t112 -115.5zM477 250q0 44 -37 74t-94 30
t-95 -30t-38 -74q0 -45 38 -76t95 -31t94 30t37 77z" />
    <glyph glyph-name="seven.dnom" horiz-adv-x="612" 
d="M119 0l291 643h-390v145h560v-153l-283 -635h-178z" />
    <glyph glyph-name="eight.dnom" horiz-adv-x="679" 
d="M41 227q0 114 109 185q-91 69 -91 166q0 94 81 157.5t200 63.5q120 0 199 -64q82 -64 82 -160q0 -100 -91 -163q111 -70 111 -189q0 -100 -86 -166.5t-215 -66.5t-214 67t-85 170zM207 242q0 -43 38 -71t95 -28t95 28t38 69t-38 67.5t-95 26.5t-95 -26.5t-38 -65.5z
M258 621q-32 -23 -32 -57.5t32 -59.5q32 -23 82 -23t82 23q32 25 32 59.5t-32 57.5q-32 25 -82 25t-82 -25z" />
    <glyph glyph-name="nine.dnom" horiz-adv-x="673" 
d="M41 141l139 66q46 -64 137 -64q69 0 113.5 34.5t44.5 88.5v82q-47 -78 -153 -78q-117 0 -199 76t-82 191q0 111 84 186q85 76 213 76q129 0 211 -76q86 -74 86 -184v-271q0 -117 -90 -198q-89 -80 -223 -80q-92 0 -169 41.5t-112 109.5zM338 645q-57 0 -94 -31.5
t-37 -78.5q0 -48 37.5 -80.5t93.5 -32.5t93.5 32.5t37.5 80.5q0 47 -37.5 78.5t-93.5 31.5z" />
    <glyph glyph-name="logo" horiz-adv-x="880" 
d="M41 1061v209h47q145 0 248 -103q102 -102 102 -247q0 -146 -102 -248q-103 -103 -248 -103h-47v211q186 0 186 140q0 141 -186 141zM442 1061v209h47q145 0 248 -103t103 -247q0 -145 -103 -248t-248 -103h-47v211q189 0 189 140q0 141 -189 141zM109 442h-56v41h152v-41
h-55v-237h-41v237zM285 328l-74 155h47l47 -102l49 102h47l-73 -155v-123h-43v123zM467 205h-41v278h78q37 0 63.5 -25.5t26.5 -62.5t-26.5 -62.5t-63.5 -25.5h-37v-102zM504 442h-37v-94h37q20 0 33.5 13.5t13.5 33.5q0 19 -13.5 33t-33.5 14zM743 205h-122v278h122v-41
h-79v-98h63v-41h-63v-57h79v-41z" />
    <glyph glyph-name="bullet.case" horiz-adv-x="774" 
d="M160 489q-90 90 -90 228q0 137 90 227t227 90t227 -90q93 -90 93 -227q0 -138 -93 -228q-90 -90 -227 -90t-227 90z" />
    <glyph glyph-name="zero.num" horiz-adv-x="700" 
d="M43 920v239q0 121 88 203t219 82t219 -82t88 -203v-239q0 -121 -88 -203t-219 -82t-219 82t-88 203zM350 1290q-62 0 -103.5 -37t-41.5 -92v-243q0 -55 41.5 -92.5t103.5 -37.5q63 0 105.5 37.5t42.5 92.5v243q0 55 -42.5 92t-105.5 37z" />
    <glyph glyph-name="one.num" horiz-adv-x="495" 
d="M233 1249l-137 -67l-59 135l242 117h114v-789h-160v604z" />
    <glyph glyph-name="two.num" horiz-adv-x="655" 
d="M434 1194q0 41 -33.5 68.5t-81.5 27.5q-100 0 -143 -110l-149 71q42 89 119.5 141t172.5 52q115 0 199 -72q82 -70 82 -172q0 -125 -170 -272l-137 -129h315v-154h-561v117l285 268q102 94 102 164z" />
    <glyph glyph-name="three.num" horiz-adv-x="665" 
d="M438 1200q0 39 -34.5 64.5t-88.5 25.5q-98 0 -133 -71l-141 49q36 80 112 128t173 48q119 0 199.5 -69t80.5 -173q0 -95 -98 -147q117 -53 117 -170q0 -107 -86 -178q-84 -72 -211 -72q-105 0 -184.5 50.5t-110.5 135.5l149 53q11 -39 49 -62.5t91 -23.5q60 0 98.5 29
t38.5 72t-38 70.5t-95 27.5h-62v121h41q58 0 95.5 25.5t37.5 66.5z" />
    <glyph glyph-name="four.num" horiz-adv-x="720" 
d="M436 645v148h-399v153l407 488h152v-490h96v-151h-96v-148h-160zM436 1196l-211 -252h211v252z" />
    <glyph glyph-name="five.num" horiz-adv-x="675" 
d="M637 905q0 -118 -88 -194q-85 -76 -215 -76q-108 0 -190 57t-113 152l162 43q41 -99 141 -99q57 0 96 34t39 83q0 51 -45 85t-111 34h-221l41 410h434v-146h-303l-12 -119h102q123 0 201 -75q82 -76 82 -189z" />
    <glyph glyph-name="six.num" horiz-adv-x="677" 
d="M631 1286l-144 -67q-44 71 -133 71q-64 0 -106.5 -34.5t-42.5 -88.5v-82q58 70 157 70q117 0 199 -76q84 -78 84 -186q0 -107 -86 -184q-86 -74 -213 -74q-126 0 -215 74q-86 77 -86 184v272q0 120 88 199q89 80 219 80q92 0 167 -42.5t112 -115.5zM477 895q0 44 -37 74
t-94 30t-95 -30t-38 -74q0 -45 38 -76t95 -31t94 30t37 77z" />
    <glyph glyph-name="seven.num" horiz-adv-x="612" 
d="M119 645l291 643h-390v146h560v-154l-283 -635h-178z" />
    <glyph glyph-name="eight.num" horiz-adv-x="679" 
d="M41 872q0 114 109 185q-91 69 -91 166q0 94 81 157.5t200 63.5q120 0 199 -64q82 -64 82 -159q0 -101 -91 -164q111 -70 111 -189q0 -100 -86 -166.5t-215 -66.5t-214 67t-85 170zM207 887q0 -43 38 -71t95 -28t95 28t38 69t-38 67.5t-95 26.5t-95 -26.5t-38 -65.5z
M258 1266q-32 -23 -32 -57.5t32 -59.5q32 -23 82 -23t82 23q32 25 32 59.5t-32 57.5q-32 25 -82 25t-82 -25z" />
    <glyph glyph-name="nine.num" horiz-adv-x="673" 
d="M41 786l139 66q46 -64 137 -64q69 0 113.5 34.5t44.5 88.5v82q-47 -78 -153 -78q-117 0 -199 76t-82 191q0 111 84 186q85 76 213 76q129 0 211 -76q86 -74 86 -184v-271q0 -117 -90 -198q-89 -80 -223 -80q-92 0 -169 41.5t-112 109.5zM338 1290q-57 0 -94 -31.5
t-37 -78.5q0 -48 37.5 -80.5t93.5 -32.5t93.5 32.5t37.5 80.5q0 47 -37.5 78.5t-93.5 31.5z" />
    <glyph glyph-name="afii10021.1" horiz-adv-x="1681" 
d="M1640 0h-1599v254h166q141 56 141 477v703h1069v-1180h223v-254zM535 254h608v926h-518v-439q0 -302 -90 -487z" />
    <glyph glyph-name="afii10040.1" horiz-adv-x="1615" 
d="M119 1434h274v-1180h684v1180h275v-1180h225v-254h-1458v1434z" />
    <glyph glyph-name="afii10043.1" horiz-adv-x="2287" 
d="M119 0v1434h274v-1180h531v1180h274v-1180h551v1180h274v-1180h226v-254h-2130z" />
    <glyph glyph-name="germandbls.1" horiz-adv-x="1193" 
d="M365 831v-831h-256v1190q0 156 131 260q130 106 325 106h53v-251h-51q-87 0 -144.5 -36.5t-57.5 -90.5v-113h684v-188l-207 -310q135 -68 214 -202t79 -299q0 -239 -170 -398q-171 -160 -422 -160v254q145 0 239 88q97 88 97 218q0 127 -97 215q-94 88 -239 88v188
l182 272h-360z" />
    <glyph glyph-name="R.1" horiz-adv-x="1361" 
d="M119 1434h663q213 0 353 -125q143 -125 143 -312q0 -111 -54.5 -205t-152.5 -155q136 -109 166 -272l76 -365h-271l-59 297q-20 98 -100.5 163.5t-180.5 65.5h-309v-526h-274v1434zM782 1180h-389v-400h389q88 0 148.5 57.5t60.5 141.5q0 86 -59 143.5t-150 57.5z" />
    <glyph glyph-name="Racute.1" horiz-adv-x="1382" 
d="M393 0h-274v1434h663q213 0 353 -125q143 -125 143 -312q0 -111 -54.5 -205t-152.5 -155q136 -109 166 -272l76 -365h-271l-59 297q-20 98 -100.5 163.5t-180.5 65.5h-309v-526zM782 1180h-389v-400h389q88 0 148.5 57.5t60.5 141.5q0 86 -59 143.5t-150 57.5zM946 1745
l-448 -191l-84 156l417 260z" />
    <glyph glyph-name="Rcaron.1" horiz-adv-x="1382" 
d="M393 526v-526h-274v1434h663q213 0 353 -125q143 -125 143 -312q0 -111 -54.5 -205t-152.5 -155q136 -109 166 -272l76 -365h-271l-59 297q-20 98 -100.5 163.5t-180.5 65.5h-309zM782 1180h-389v-400h389q88 0 148.5 57.5t60.5 141.5q0 86 -59 143.5t-150 57.5z
M588 1554h-15l-356 261l102 143l263 -154l260 152l104 -141z" />
    <glyph glyph-name="Rcommaaccent.1" horiz-adv-x="1382" 
d="M393 0h-274v1434h663q213 0 353 -125q143 -125 143 -312q0 -111 -54.5 -205t-152.5 -155q136 -109 166 -272l76 -365h-271l-59 297q-20 98 -100.5 163.5t-180.5 65.5h-309v-526zM782 1180h-389v-400h389q88 0 148.5 57.5t60.5 141.5q0 86 -59 143.5t-150 57.5zM590 -231
q0 54 37.5 90.5t93.5 36.5q63 0 103 -47t40 -119q0 -158 -194 -269l-2 -2l-64 68q94 73 94 111q-45 11 -76.5 48t-31.5 83z" />
    <glyph glyph-name="u.1" horiz-adv-x="1222" 
d="M109 479v586h256v-563q0 -118 71.5 -197.5t177.5 -79.5q104 0 175 80t71 197v563h254v-586q0 -216 -145 -364q-146 -146 -357 -146q-214 0 -360 146q-143 146 -143 364z" />
    <glyph glyph-name="uacute.1" horiz-adv-x="1222" 
d="M109 479v586h256v-563q0 -118 71.5 -197.5t177.5 -79.5q104 0 175 80t71 197v563h254v-586q0 -216 -145 -364q-146 -146 -357 -146q-214 0 -360 146q-143 146 -143 364zM508 1206l-86 156l418 260l114 -225z" />
    <glyph glyph-name="ubreve.1" horiz-adv-x="1222" 
d="M109 479v586h256v-563q0 -118 71.5 -197.5t177.5 -79.5q104 0 175 80t71 197v563h254v-586q0 -216 -145 -364q-146 -146 -357 -146q-214 0 -360 146q-143 146 -143 364zM279 1516h196q0 -64 39 -108t98 -44t96 42.5t37 109.5h199q0 -140 -96 -236q-94 -94 -238 -94
q-143 0 -237 94t-94 236z" />
    <glyph glyph-name="ucircumflex.1" horiz-adv-x="1222" 
d="M109 479v586h256v-563q0 -118 71.5 -197.5t177.5 -79.5q104 0 175 80t71 197v563h254v-586q0 -216 -145 -364q-146 -146 -357 -146q-214 0 -360 146q-143 146 -143 364zM610 1358l-260 -154l-104 144l358 260h14l357 -260l-103 -142z" />
    <glyph glyph-name="udieresis.1" horiz-adv-x="1222" 
d="M109 479v586h256v-563q0 -118 71.5 -197.5t177.5 -79.5q104 0 175 80t71 197v563h254v-586q0 -216 -145 -364q-146 -146 -357 -146q-214 0 -360 146q-143 146 -143 364zM395 1497q64 0 107 -43t43 -108q0 -63 -43.5 -107.5t-106.5 -44.5q-66 0 -109.5 43t-43.5 109
t43.5 108.5t109.5 42.5zM678 1346q0 66 42.5 108.5t108.5 42.5t109 -42.5t43 -108.5q0 -63 -44.5 -107.5t-107.5 -44.5t-107 44.5t-44 107.5z" />
    <glyph glyph-name="ugrave.1" horiz-adv-x="1222" 
d="M109 479v586h256v-563q0 -118 71.5 -197.5t177.5 -79.5q104 0 175 80t71 197v563h254v-586q0 -216 -145 -364q-146 -146 -357 -146q-214 0 -360 146q-143 146 -143 364zM705 1206l-449 191l115 225l417 -260z" />
    <glyph glyph-name="uhungarumlaut.1" horiz-adv-x="1222" 
d="M109 479v586h256v-563q0 -118 71.5 -197.5t177.5 -79.5q104 0 175 80t71 197v563h254v-586q0 -216 -145 -364q-146 -146 -357 -146q-214 0 -360 146q-143 146 -143 364zM406 1184l-127 121l292 348l179 -180zM829 1184l-129 121l293 348l178 -180z" />
    <glyph glyph-name="umacron.1" horiz-adv-x="1222" 
d="M109 479v586h256v-563q0 -118 71.5 -197.5t177.5 -79.5q104 0 175 80t71 197v563h254v-586q0 -216 -145 -364q-146 -146 -357 -146q-214 0 -360 146q-143 146 -143 364zM930 1257h-637v209h637v-209z" />
    <glyph glyph-name="uogonek.1" horiz-adv-x="1222" 
d="M109 479v586h256v-563q0 -118 71.5 -197.5t177.5 -79.5q104 0 175 80t71 197v563h254v-586q0 -190 -110 -327t-287 -172q-101 -101 -101 -177q0 -69 74 -69q23 0 49 12t39 25l13 12l86 -105l-33 -30q-25 -22 -84 -49q-67 -31 -127 -31q-91 0 -150 53t-59 135
q0 105 102 219q-178 26 -301 168q-116 140 -116 336z" />
    <glyph glyph-name="uring.1" horiz-adv-x="1222" 
d="M109 479v586h256v-563q0 -118 71.5 -197.5t177.5 -79.5q104 0 175 80t71 197v563h254v-586q0 -216 -145 -364q-146 -146 -357 -146q-214 0 -360 146q-143 146 -143 364zM612 1665q96 0 168 -72t72 -170t-72 -170q-69 -69 -168 -69q-100 0 -170.5 69.5t-70.5 169.5
q0 101 69 170q72 72 172 72zM612 1358q26 0 46 19.5t20 45.5q0 44 -40.5 62t-74.5 -15q-31 -31 -13 -71.5t62 -40.5z" />
    <glyph glyph-name="utilde.1" horiz-adv-x="1222" 
d="M109 479v586h256v-563q0 -118 71.5 -197.5t177.5 -79.5q104 0 175 80t71 197v563h254v-586q0 -216 -145 -364q-146 -146 -357 -146q-214 0 -360 146q-143 146 -143 364zM465 1243h-195q0 101 68 172q69 72 164 72q62 0 121 -41q59 -39 77 -39q23 0 39.5 20.5t16.5 49.5
h194q0 -103 -66 -173.5t-163 -70.5q-64 0 -123 39q-56 39 -76 39q-24 0 -40.5 -19.5t-16.5 -48.5z" />
    <glyph glyph-name="y.1" horiz-adv-x="1116" 
d="M426 27l-408 1038h265l270 -715l281 715h264l-611 -1526h-251z" />
    <glyph glyph-name="yacute.1" horiz-adv-x="1116" 
d="M426 27l-408 1038h265l270 -715l281 715h264l-611 -1526h-251zM901 1397l-446 -191l-86 156l419 260z" />
    <glyph glyph-name="ycircumflex.1" horiz-adv-x="1116" 
d="M236 -461l190 488l-408 1038h265l270 -715l281 715h264l-611 -1526h-251zM557 1358l-260 -154l-104 144l358 260h14l357 -260l-103 -142z" />
    <glyph glyph-name="ydieresis.1" horiz-adv-x="1116" 
d="M426 27l-408 1038h265l270 -715l281 715h264l-611 -1526h-251zM776 1194q-63 0 -107 44.5t-44 107.5q0 66 42.5 108.5t108.5 42.5t110 -42.5t44 -108.5q0 -64 -44 -108t-110 -44zM342 1194q-66 0 -110 43t-44 109t44 108.5t110 42.5q64 0 108 -43t44 -108
q0 -63 -44.5 -107.5t-107.5 -44.5z" />
    <glyph glyph-name="ygrave.1" horiz-adv-x="1116" 
d="M426 27l-408 1038h265l270 -715l281 715h264l-611 -1526h-251zM651 1206l-448 191l114 225l418 -260z" />
    <glyph glyph-name="afii10085.1" horiz-adv-x="1116" 
d="M426 27l-408 1038h265l270 -715l281 715h264l-611 -1526h-251z" />
    <glyph glyph-name="afii10110.1" horiz-adv-x="1116" 
d="M236 -461l190 488l-408 1038h265l270 -715l281 715h264l-611 -1526h-251zM195 1511h208q0 -66 45 -108.5t113 -42.5q66 0 109 42.5t43 108.5h209q0 -147 -105 -249q-101 -101 -256 -101q-158 0 -262 101t-104 249z" />
    <glyph glyph-name="g.1" horiz-adv-x="1273" 
d="M588 1096q181 0 323 -115v84h254v-1036q0 -221 -153 -371t-375 -150q-101 0 -205 37l94 232q52 -15 103 -15q116 0 200 78q82 76 82 189v55q-142 -115 -323 -115q-220 0 -371 160q-147 163 -147 403q0 243 147 402q149 162 371 162zM416 752q-82 -88 -82 -220
q0 -131 82 -219t205 -88q120 0 202 88q84 90 84 219q0 130 -84 220q-82 88 -202 88q-123 0 -205 -88z" />
    <glyph glyph-name="gbreve.1" horiz-adv-x="1273" 
d="M588 -31q-220 0 -371 160q-147 163 -147 403q0 243 147 402q149 162 371 162q181 0 323 -115v84h254v-1036q0 -221 -153 -371t-375 -150q-101 0 -205 37l94 232q52 -15 103 -15q116 0 200 78q82 76 82 189v55q-142 -115 -323 -115zM823 752q-82 88 -202 88
q-123 0 -205 -88t-82 -220q0 -131 82 -219t205 -88q120 0 202 88q84 90 84 219q0 130 -84 220zM287 1516h196q0 -64 39.5 -108t98.5 -44t96 42.5t37 109.5h198q0 -140 -96 -236q-94 -94 -238 -94q-143 0 -237 94t-94 236z" />
    <glyph glyph-name="gcircumflex.1" horiz-adv-x="1273" 
d="M588 -31q-220 0 -371 160q-147 163 -147 403q0 243 147 402q149 162 371 162q181 0 323 -115v84h254v-1036q0 -221 -153 -371t-375 -150q-101 0 -205 37l94 232q52 -15 103 -15q116 0 200 78q82 76 82 189v55q-142 -115 -323 -115zM823 752q-82 88 -202 88
q-123 0 -205 -88t-82 -220q0 -131 82 -219t205 -88q120 0 202 88q84 90 84 219q0 130 -84 220zM618 1358l-260 -154l-104 144l358 260h15l356 -260l-102 -142z" />
    <glyph glyph-name="gcommaaccent.1" horiz-adv-x="1273" 
d="M588 1096q181 0 323 -115v84h254v-1036q0 -221 -153 -371t-375 -150q-101 0 -205 37l94 232q52 -15 103 -15q116 0 200 78q82 76 82 189v55q-142 -115 -323 -115q-220 0 -371 160q-147 163 -147 403q0 243 147 402q149 162 371 162zM823 752q-82 88 -202 88
q-123 0 -205 -88t-82 -220q0 -131 82 -219t205 -88q120 0 202 88q84 90 84 219q0 130 -84 220zM477 1350q0 156 195 268l2 2l63 -68q-94 -73 -94 -112q47 -8 78 -44t31 -85q0 -54 -37.5 -90.5t-93.5 -36.5q-63 0 -103.5 46.5t-40.5 119.5z" />
    <glyph glyph-name="gdotaccent.1" horiz-adv-x="1273" 
d="M588 1096q181 0 323 -115v84h254v-1036q0 -221 -153 -371t-375 -150q-101 0 -205 37l94 232q52 -15 103 -15q116 0 200 78q82 76 82 189v55q-142 -115 -323 -115q-220 0 -371 160q-147 163 -147 403q0 243 147 402q149 162 371 162zM823 752q-82 88 -202 88
q-123 0 -205 -88t-82 -220q0 -131 82 -219t205 -88q120 0 202 88q84 90 84 219q0 130 -84 220zM459 1356q0 69 45.5 115.5t113.5 46.5q69 0 115.5 -46.5t46.5 -115.5q0 -68 -46.5 -114t-115.5 -46q-67 0 -113 46t-46 114z" />
    <glyph glyph-name="t.1" horiz-adv-x="741" 
d="M20 842v139l259 293h149v-209h264v-223h-264v-469q0 -56 37 -92.5t94 -36.5h133v-244h-157q-152 0 -259 96q-104 94 -104 240v506h-152z" />
    <glyph glyph-name="tbar.1" horiz-adv-x="741" 
d="M172 842h-152v139l259 293h149v-209h264v-223h-264v-180h182v-187h-182v-102q0 -56 37 -92.5t94 -36.5h133v-244h-157q-152 0 -259 96q-104 94 -104 240v139h-121v187h121v180z" />
    <glyph glyph-name="tcaron.1" horiz-adv-x="794" 
d="M20 842v139l259 293h149v-209h264v-223h-264v-469q0 -56 37 -92.5t94 -36.5h133v-244h-157q-152 0 -259 96q-104 94 -104 240v506h-152zM774 1374q0 -158 -192 -268v-2h-2l-66 65q94 73 94 113q-45 8 -75.5 45t-30.5 86q0 54 37 90.5t94 36.5q61 0 101 -47t40 -119z" />
    <glyph glyph-name="tcommaaccent.1" horiz-adv-x="741" 
d="M20 842v139l259 293h149v-209h264v-223h-264v-469q0 -56 37 -92.5t94 -36.5h133v-244h-157q-152 0 -259 96q-104 94 -104 240v506h-152zM573 -270q0 -159 -192 -269l-2 -2l-66 68q95 74 95 111q-46 11 -76.5 47t-30.5 84q0 54 37 90.5t92 36.5q63 0 103 -47t40 -119z" />
    <glyph glyph-name="uni021B.1" horiz-adv-x="741" 
d="M20 842v139l259 293h149v-209h264v-223h-264v-469q0 -56 37 -92.5t94 -36.5h133v-244h-157q-152 0 -259 96q-104 94 -104 240v506h-152zM573 -270q0 -159 -192 -269l-2 -2l-66 68q95 74 95 111q-46 11 -76.5 47t-30.5 84q0 54 37 90.5t92 36.5q63 0 103 -47t40 -119z" />
    </font>
</defs>
</svg>
